<svg xmlns="http://www.w3.org/2000/svg" id="sprotty_dependencies$project:PiMulator" class="sprotty-graph sprotty-dependencies-diagram dependencies" style="font-family:&quot;Noto Sans&quot;, Helvetica, Arial, sans-serif;-webkit-locale:&quot;en&quot;;perspective-origin:0px 0px;transform-origin:0px 0px;" version="1.1" viewBox="7 7 1153.609375 508" width="1153.609375" height="508"><g transform="scale(1) translate(0,0)"><g id="sprotty_dependencies$project:PiMulator/FileNodeImpl$testbnch_MEMSyncTop.sv" class="file" transform="translate(12, 150)"><rect x="0" y="0" width="203.921875" height="44" class="sprotty-node" style="fill:rgb(255, 255, 255);stroke:rgb(48, 48, 48);"/><text class="clickable sprotty-label file" id="sprotty_dependencies$project:PiMulator/FileNodeImpl$testbnch_MEMSyncTop.sv/label" transform="translate(5, 10) translate(96.625, 19)" style="cursor:default;perspective-origin:0.328125px 0px;fill:rgb(48, 48, 48);text-anchor:middle;">testbnch_MEMSyncTop.sv</text></g><g id="sprotty_dependencies$project:PiMulator/FileNodeImpl$CMD.sv" class="file" transform="translate(587, 254)"><rect x="0" y="0" width="65.140625" height="44" class="sprotty-node" style="fill:rgb(255, 255, 255);stroke:rgb(48, 48, 48);"/><text class="clickable sprotty-label file" id="sprotty_dependencies$project:PiMulator/FileNodeImpl$CMD.sv/label" transform="translate(5, 10) translate(27.234375, 19)" style="cursor:default;perspective-origin:0.328125px 0px;fill:rgb(48, 48, 48);text-anchor:middle;">CMD.sv</text></g><g id="sprotty_dependencies$project:PiMulator/FileNodeImpl$WrappedDIMM.sv" class="file" transform="translate(457, 66)"><rect x="0" y="0" width="140.09375" height="44" class="sprotty-node" style="fill:rgb(255, 255, 255);stroke:rgb(48, 48, 48);"/><text class="clickable sprotty-label file" id="sprotty_dependencies$project:PiMulator/FileNodeImpl$WrappedDIMM.sv/label" transform="translate(5, 10) translate(64.71875, 19)" style="cursor:default;perspective-origin:0.328125px 0px;fill:rgb(48, 48, 48);text-anchor:middle;">WrappedDIMM.sv</text></g><g id="sprotty_dependencies$project:PiMulator/FileNodeImpl$testbnch_DIMM.sv" class="file" transform="translate(935, 66)"><rect x="0" y="0" width="146.90625" height="44" class="sprotty-node" style="fill:rgb(255, 255, 255);stroke:rgb(48, 48, 48);"/><text class="clickable sprotty-label file" id="sprotty_dependencies$project:PiMulator/FileNodeImpl$testbnch_DIMM.sv/label" transform="translate(5, 10) translate(68.125, 19)" style="cursor:default;perspective-origin:0.328125px 0px;fill:rgb(48, 48, 48);text-anchor:middle;">testbnch_DIMM.sv</text></g><g id="sprotty_dependencies$project:PiMulator/FileNodeImpl$testbnch_MEMSync.sv" class="file" transform="translate(234, 254)"><rect x="0" y="0" width="176.4375" height="44" class="sprotty-node" style="fill:rgb(255, 255, 255);stroke:rgb(48, 48, 48);"/><text class="clickable sprotty-label file" id="sprotty_dependencies$project:PiMulator/FileNodeImpl$testbnch_MEMSync.sv/label" transform="translate(5, 10) translate(82.890625, 19)" style="cursor:default;perspective-origin:0.328125px 0px;fill:rgb(48, 48, 48);text-anchor:middle;">testbnch_MEMSync.sv</text></g><g id="sprotty_dependencies$project:PiMulator/FileNodeImpl$DIMM.sv" class="file" transform="translate(496, 150)"><rect x="0" y="0" width="72.609375" height="44" class="sprotty-node" style="fill:rgb(255, 255, 255);stroke:rgb(48, 48, 48);"/><text class="clickable sprotty-label file" id="sprotty_dependencies$project:PiMulator/FileNodeImpl$DIMM.sv/label" transform="translate(5, 10) translate(30.96875, 19)" style="cursor:default;perspective-origin:0.328125px 0px;fill:rgb(48, 48, 48);text-anchor:middle;">DIMM.sv</text></g><g id="sprotty_dependencies$project:PiMulator/FileNodeImpl$bank_array.sv" class="file" transform="translate(684, 466)"><rect x="0" y="0" width="114.921875" height="44" class="sprotty-node" style="fill:rgb(255, 255, 255);stroke:rgb(48, 48, 48);"/><text class="clickable sprotty-label file" id="sprotty_dependencies$project:PiMulator/FileNodeImpl$bank_array.sv/label" transform="translate(5, 10) translate(52.125, 19)" style="cursor:default;perspective-origin:0.328125px 0px;fill:rgb(48, 48, 48);text-anchor:middle;">bank_array.sv</text></g><g id="sprotty_dependencies$project:PiMulator/FileNodeImpl$memtiming.sv" class="file" transform="translate(844, 328)"><rect x="0" y="0" width="117.875" height="44" class="sprotty-node" style="fill:rgb(255, 255, 255);stroke:rgb(48, 48, 48);"/><text class="clickable sprotty-label file" id="sprotty_dependencies$project:PiMulator/FileNodeImpl$memtiming.sv/label" transform="translate(5, 10) translate(53.609375, 19)" style="cursor:default;perspective-origin:0.328125px 0px;fill:rgb(48, 48, 48);text-anchor:middle;">memtiming.sv</text></g><g id="sprotty_dependencies$project:PiMulator/FileNodeImpl$MEMSyncTop.sv" class="file" transform="translate(54, 254)"><rect x="0" y="0" width="129.640625" height="44" class="sprotty-node" style="fill:rgb(255, 255, 255);stroke:rgb(48, 48, 48);"/><text class="clickable sprotty-label file" id="sprotty_dependencies$project:PiMulator/FileNodeImpl$MEMSyncTop.sv/label" transform="translate(5, 10) translate(59.484375, 19)" style="cursor:default;perspective-origin:0.328125px 0px;fill:rgb(48, 48, 48);text-anchor:middle;">MEMSyncTop.sv</text></g><g id="sprotty_dependencies$project:PiMulator/FileNodeImpl$tristate.v" class="file" transform="translate(461, 254)"><rect x="0" y="0" width="75.71875" height="44" class="sprotty-node" style="fill:rgb(255, 255, 255);stroke:rgb(48, 48, 48);"/><text class="clickable sprotty-label file" id="sprotty_dependencies$project:PiMulator/FileNodeImpl$tristate.v/label" transform="translate(5, 10) translate(32.53125, 19)" style="cursor:default;perspective-origin:0.328125px 0px;fill:rgb(48, 48, 48);text-anchor:middle;">tristate.v</text></g><g id="sprotty_dependencies$project:PiMulator/FileNodeImpl$MEMSync.sv" class="file" transform="translate(266, 328)"><rect x="0" y="0" width="102.15625" height="44" class="sprotty-node" style="fill:rgb(255, 255, 255);stroke:rgb(48, 48, 48);"/><text class="clickable sprotty-label file" id="sprotty_dependencies$project:PiMulator/FileNodeImpl$MEMSync.sv/label" transform="translate(5, 10) translate(45.75, 19)" style="cursor:default;perspective-origin:0.328125px 0px;fill:rgb(48, 48, 48);text-anchor:middle;">MEMSync.sv</text></g><g id="sprotty_dependencies$project:PiMulator/FileNodeImpl$Chip.sv" class="file" transform="translate(703, 254)"><rect x="0" y="0" width="65.015625" height="44" class="sprotty-node" style="fill:rgb(255, 255, 255);stroke:rgb(48, 48, 48);"/><text class="clickable sprotty-label file" id="sprotty_dependencies$project:PiMulator/FileNodeImpl$Chip.sv/label" transform="translate(5, 10) translate(27.171875, 19)" style="cursor:default;perspective-origin:0.328125px 0px;fill:rgb(48, 48, 48);text-anchor:middle;">Chip.sv</text></g><g id="sprotty_dependencies$project:PiMulator/FileNodeImpl$testbnch_Bank.sv" class="file" transform="translate(1012, 328)"><rect x="0" y="0" width="143.609375" height="44" class="sprotty-node" style="fill:rgb(255, 255, 255);stroke:rgb(48, 48, 48);"/><text class="clickable sprotty-label file" id="sprotty_dependencies$project:PiMulator/FileNodeImpl$testbnch_Bank.sv/label" transform="translate(5, 10) translate(66.46875, 19)" style="cursor:default;perspective-origin:0.328125px 0px;fill:rgb(48, 48, 48);text-anchor:middle;">testbnch_Bank.sv</text></g><g id="sprotty_dependencies$project:PiMulator/FileNodeImpl$testbnch_TimingFSM.sv" class="file" transform="translate(809, 150)"><rect x="0" y="0" width="188.25" height="44" class="sprotty-node" style="fill:rgb(255, 255, 255);stroke:rgb(48, 48, 48);"/><text class="clickable sprotty-label file" id="sprotty_dependencies$project:PiMulator/FileNodeImpl$testbnch_TimingFSM.sv/label" transform="translate(5, 10) translate(88.796875, 19)" style="cursor:default;perspective-origin:0.328125px 0px;fill:rgb(48, 48, 48);text-anchor:middle;">testbnch_TimingFSM.sv</text></g><g id="sprotty_dependencies$project:PiMulator/FileNodeImpl$testbnch_CMD.sv" class="file" transform="translate(12, 12)"><rect x="0" y="0" width="139.4375" height="44" class="sprotty-node" style="fill:rgb(255, 255, 255);stroke:rgb(48, 48, 48);"/><text class="clickable sprotty-label file" id="sprotty_dependencies$project:PiMulator/FileNodeImpl$testbnch_CMD.sv/label" transform="translate(5, 10) translate(64.390625, 19)" style="cursor:default;perspective-origin:0.328125px 0px;fill:rgb(48, 48, 48);text-anchor:middle;">testbnch_CMD.sv</text></g><g id="sprotty_dependencies$project:PiMulator/FileNodeImpl$Bank.sv" class="file" transform="translate(706, 402)"><rect x="0" y="0" width="69.3125" height="44" class="sprotty-node" style="fill:rgb(255, 255, 255);stroke:rgb(48, 48, 48);"/><text class="clickable sprotty-label file" id="sprotty_dependencies$project:PiMulator/FileNodeImpl$Bank.sv/label" transform="translate(5, 10) translate(29.328125, 19)" style="cursor:default;perspective-origin:0.328125px 0px;fill:rgb(48, 48, 48);text-anchor:middle;">Bank.sv</text></g><g id="sprotty_dependencies$project:PiMulator/FileNodeImpl$testbnch_BankInterleaving.sv" class="file" transform="translate(648, 66)"><rect x="0" y="0" width="232.421875" height="44" class="sprotty-node" style="fill:rgb(255, 255, 255);stroke:rgb(48, 48, 48);"/><text class="clickable sprotty-label file" id="sprotty_dependencies$project:PiMulator/FileNodeImpl$testbnch_BankInterleaving.sv/label" transform="translate(5, 10) translate(110.875, 19)" style="cursor:default;perspective-origin:0.328125px 0px;fill:rgb(48, 48, 48);text-anchor:middle;">testbnch_BankInterleaving.sv</text></g><g id="sprotty_dependencies$project:PiMulator/FileNodeImpl$testbnch_Chip.sv" class="file" transform="translate(619, 150)"><rect x="0" y="0" width="139.296875" height="44" class="sprotty-node" style="fill:rgb(255, 255, 255);stroke:rgb(48, 48, 48);"/><text class="clickable sprotty-label file" id="sprotty_dependencies$project:PiMulator/FileNodeImpl$testbnch_Chip.sv/label" transform="translate(5, 10) translate(64.3125, 19)" style="cursor:default;perspective-origin:0.328125px 0px;fill:rgb(48, 48, 48);text-anchor:middle;">testbnch_Chip.sv</text></g><g id="sprotty_dependencies$project:PiMulator/FileNodeImpl$BankGroup.sv" class="file" transform="translate(678, 328)"><rect x="0" y="0" width="115.296875" height="44" class="sprotty-node" style="fill:rgb(255, 255, 255);stroke:rgb(48, 48, 48);"/><text class="clickable sprotty-label file" id="sprotty_dependencies$project:PiMulator/FileNodeImpl$BankGroup.sv/label" transform="translate(5, 10) translate(52.3125, 19)" style="cursor:default;perspective-origin:0.328125px 0px;fill:rgb(48, 48, 48);text-anchor:middle;">BankGroup.sv</text></g><g id="sprotty_dependencies$project:PiMulator/FileNodeImpl$testbnch_RefInterleaving.sv" class="file" transform="translate(188, 66)"><rect x="0" y="0" width="218.328125" height="44" class="sprotty-node" style="fill:rgb(255, 255, 255);stroke:rgb(48, 48, 48);"/><text class="clickable sprotty-label file" id="sprotty_dependencies$project:PiMulator/FileNodeImpl$testbnch_RefInterleaving.sv/label" transform="translate(5, 10) translate(103.828125, 19)" style="cursor:default;perspective-origin:0.328125px 0px;fill:rgb(48, 48, 48);text-anchor:middle;">testbnch_RefInterleaving.sv</text></g><g id="sprotty_dependencies$project:PiMulator/FileNodeImpl$TimingFSM.sv" class="file" transform="translate(846, 254)"><rect x="0" y="0" width="113.953125" height="44" class="sprotty-node" style="fill:rgb(255, 255, 255);stroke:rgb(48, 48, 48);"/><text class="clickable sprotty-label file" id="sprotty_dependencies$project:PiMulator/FileNodeImpl$TimingFSM.sv/label" transform="translate(5, 10) translate(51.640625, 19)" style="cursor:default;perspective-origin:0.328125px 0px;fill:rgb(48, 48, 48);text-anchor:middle;">TimingFSM.sv</text></g><g id="sprotty_dependencies$project:PiMulator/FileNodeImpl$testbnch_MEMSyncTop.sv_to_dependencies$project:PiMulator/FileNodeImpl$MEMSyncTop.sv" class="sprotty-edge dependency" style="fill:none;stroke:rgb(48, 48, 48);stroke-linejoin:round;"><g><path d=" M114,194 L114,254"/><path d=" M114,194 L114,254" class="clickable" style="cursor:default;"/></g><path d="M 114,254 L 121,251.5 L 121,256.5 Z" transform="rotate(-90 114 254)" class="arrow" style="fill:rgb(48, 48, 48);stroke-linejoin:miter;stroke-miterlimit:2;"/></g><g id="sprotty_dependencies$project:PiMulator/FileNodeImpl$WrappedDIMM.sv_to_dependencies$project:PiMulator/FileNodeImpl$DIMM.sv" class="sprotty-edge dependency" style="fill:none;stroke:rgb(48, 48, 48);stroke-linejoin:round;"><g><path d=" M527,110 L527,150"/><path d=" M527,110 L527,150" class="clickable" style="cursor:default;"/></g><path d="M 527,150 L 534,147.5 L 534,152.5 Z" transform="rotate(-90 527 150)" class="arrow" style="fill:rgb(48, 48, 48);stroke-linejoin:miter;stroke-miterlimit:2;"/></g><g id="sprotty_dependencies$project:PiMulator/FileNodeImpl$testbnch_DIMM.sv_to_dependencies$project:PiMulator/FileNodeImpl$DIMM.sv" class="sprotty-edge dependency" style="fill:none;stroke:rgb(48, 48, 48);stroke-linejoin:round;"><g><path d=" M1003,110 L1003,135 L547,135 L547,150"/><path d=" M1003,110 L1003,135 L547,135 L547,150" class="clickable" style="cursor:default;"/></g><path d="M 547,150 L 554,147.5 L 554,152.5 Z" transform="rotate(-90 547 150)" class="arrow" style="fill:rgb(48, 48, 48);stroke-linejoin:miter;stroke-miterlimit:2;"/></g><g id="sprotty_dependencies$project:PiMulator/FileNodeImpl$testbnch_DIMM.sv_to_dependencies$project:PiMulator/FileNodeImpl$TimingFSM.sv" class="sprotty-edge dependency" style="fill:none;stroke:rgb(48, 48, 48);stroke-linejoin:round;"><g><path d=" M1013,110 L1013,209 L913,209 L913,254"/><path d=" M1013,110 L1013,209 L913,209 L913,254" class="clickable" style="cursor:default;"/></g><path d="M 913,254 L 920,251.5 L 920,256.5 Z" transform="rotate(-90 913 254)" class="arrow" style="fill:rgb(48, 48, 48);stroke-linejoin:miter;stroke-miterlimit:2;"/></g><g id="sprotty_dependencies$project:PiMulator/FileNodeImpl$testbnch_MEMSync.sv_to_dependencies$project:PiMulator/FileNodeImpl$MEMSync.sv" class="sprotty-edge dependency" style="fill:none;stroke:rgb(48, 48, 48);stroke-linejoin:round;"><g><path d=" M322,298 L322,328"/><path d=" M322,298 L322,328" class="clickable" style="cursor:default;"/></g><path d="M 322,328 L 329,325.5 L 329,330.5 Z" transform="rotate(-90 322 328)" class="arrow" style="fill:rgb(48, 48, 48);stroke-linejoin:miter;stroke-miterlimit:2;"/></g><g id="sprotty_dependencies$project:PiMulator/FileNodeImpl$DIMM.sv_to_dependencies$project:PiMulator/FileNodeImpl$CMD.sv" class="sprotty-edge dependency" style="fill:none;stroke:rgb(48, 48, 48);stroke-linejoin:round;"><g><path d=" M532,194 L532,239 L620,239 L620,254"/><path d=" M532,194 L532,239 L620,239 L620,254" class="clickable" style="cursor:default;"/></g><path d="M 620,254 L 627,251.5 L 627,256.5 Z" transform="rotate(-90 620 254)" class="arrow" style="fill:rgb(48, 48, 48);stroke-linejoin:miter;stroke-miterlimit:2;"/></g><g id="sprotty_dependencies$project:PiMulator/FileNodeImpl$DIMM.sv_to_dependencies$project:PiMulator/FileNodeImpl$tristate.v" class="sprotty-edge dependency" style="fill:none;stroke:rgb(48, 48, 48);stroke-linejoin:round;"><g><path d=" M522,194 L522,219 L499,219 L499,254"/><path d=" M522,194 L522,219 L499,219 L499,254" class="clickable" style="cursor:default;"/></g><path d="M 499,254 L 506,251.5 L 506,256.5 Z" transform="rotate(-90 499 254)" class="arrow" style="fill:rgb(48, 48, 48);stroke-linejoin:miter;stroke-miterlimit:2;"/></g><g id="sprotty_dependencies$project:PiMulator/FileNodeImpl$DIMM.sv_to_dependencies$project:PiMulator/FileNodeImpl$Chip.sv" class="sprotty-edge dependency" style="fill:none;stroke:rgb(48, 48, 48);stroke-linejoin:round;"><g><path d=" M542,194 L542,229 L731,229 L731,254"/><path d=" M542,194 L542,229 L731,229 L731,254" class="clickable" style="cursor:default;"/></g><path d="M 731,254 L 738,251.5 L 738,256.5 Z" transform="rotate(-90 731 254)" class="arrow" style="fill:rgb(48, 48, 48);stroke-linejoin:miter;stroke-miterlimit:2;"/></g><g id="sprotty_dependencies$project:PiMulator/FileNodeImpl$DIMM.sv_to_dependencies$project:PiMulator/FileNodeImpl$MEMSyncTop.sv" class="sprotty-edge dependency" style="fill:none;stroke:rgb(48, 48, 48);stroke-linejoin:round;"><g><path d=" M512,194 L512,209 L124,209 L124,254"/><path d=" M512,194 L512,209 L124,209 L124,254" class="clickable" style="cursor:default;"/></g><path d="M 124,254 L 131,251.5 L 131,256.5 Z" transform="rotate(-90 124 254)" class="arrow" style="fill:rgb(48, 48, 48);stroke-linejoin:miter;stroke-miterlimit:2;"/></g><g id="sprotty_dependencies$project:PiMulator/FileNodeImpl$DIMM.sv_to_dependencies$project:PiMulator/FileNodeImpl$TimingFSM.sv" class="sprotty-edge dependency" style="fill:none;stroke:rgb(48, 48, 48);stroke-linejoin:round;"><g><path d=" M552,194 L552,209 L893,209 L893,254"/><path d=" M552,194 L552,209 L893,209 L893,254" class="clickable" style="cursor:default;"/></g><path d="M 893,254 L 900,251.5 L 900,256.5 Z" transform="rotate(-90 893 254)" class="arrow" style="fill:rgb(48, 48, 48);stroke-linejoin:miter;stroke-miterlimit:2;"/></g><g id="sprotty_dependencies$project:PiMulator/FileNodeImpl$MEMSyncTop.sv_to_dependencies$project:PiMulator/FileNodeImpl$MEMSync.sv" class="sprotty-edge dependency" style="fill:none;stroke:rgb(48, 48, 48);stroke-linejoin:round;"><g><path d=" M119,298 L119,313 L312,313 L312,328"/><path d=" M119,298 L119,313 L312,313 L312,328" class="clickable" style="cursor:default;"/></g><path d="M 312,328 L 319,325.5 L 319,330.5 Z" transform="rotate(-90 312 328)" class="arrow" style="fill:rgb(48, 48, 48);stroke-linejoin:miter;stroke-miterlimit:2;"/></g><g id="sprotty_dependencies$project:PiMulator/FileNodeImpl$Chip.sv_to_dependencies$project:PiMulator/FileNodeImpl$BankGroup.sv" class="sprotty-edge dependency" style="fill:none;stroke:rgb(48, 48, 48);stroke-linejoin:round;"><g><path d=" M736,298 L736,328"/><path d=" M736,298 L736,328" class="clickable" style="cursor:default;"/></g><path d="M 736,328 L 743,325.5 L 743,330.5 Z" transform="rotate(-90 736 328)" class="arrow" style="fill:rgb(48, 48, 48);stroke-linejoin:miter;stroke-miterlimit:2;"/></g><g id="sprotty_dependencies$project:PiMulator/FileNodeImpl$testbnch_Bank.sv_to_dependencies$project:PiMulator/FileNodeImpl$Bank.sv" class="sprotty-edge dependency" style="fill:none;stroke:rgb(48, 48, 48);stroke-linejoin:round;"><g><path d=" M1084,372 L1084,387 L746,387 L746,402"/><path d=" M1084,372 L1084,387 L746,387 L746,402" class="clickable" style="cursor:default;"/></g><path d="M 746,402 L 753,399.5 L 753,404.5 Z" transform="rotate(-90 746 402)" class="arrow" style="fill:rgb(48, 48, 48);stroke-linejoin:miter;stroke-miterlimit:2;"/></g><g id="sprotty_dependencies$project:PiMulator/FileNodeImpl$testbnch_TimingFSM.sv_to_dependencies$project:PiMulator/FileNodeImpl$TimingFSM.sv" class="sprotty-edge dependency" style="fill:none;stroke:rgb(48, 48, 48);stroke-linejoin:round;"><g><path d=" M903,194 L903,254"/><path d=" M903,194 L903,254" class="clickable" style="cursor:default;"/></g><path d="M 903,254 L 910,251.5 L 910,256.5 Z" transform="rotate(-90 903 254)" class="arrow" style="fill:rgb(48, 48, 48);stroke-linejoin:miter;stroke-miterlimit:2;"/></g><g id="sprotty_dependencies$project:PiMulator/FileNodeImpl$Bank.sv_to_dependencies$project:PiMulator/FileNodeImpl$bank_array.sv" class="sprotty-edge dependency" style="fill:none;stroke:rgb(48, 48, 48);stroke-linejoin:round;"><g><path d=" M741,446 L741,466"/><path d=" M741,446 L741,466" class="clickable" style="cursor:default;"/></g><path d="M 741,466 L 748,463.5 L 748,468.5 Z" transform="rotate(-90 741 466)" class="arrow" style="fill:rgb(48, 48, 48);stroke-linejoin:miter;stroke-miterlimit:2;"/></g><g id="sprotty_dependencies$project:PiMulator/FileNodeImpl$testbnch_BankInterleaving.sv_to_dependencies$project:PiMulator/FileNodeImpl$DIMM.sv" class="sprotty-edge dependency" style="fill:none;stroke:rgb(48, 48, 48);stroke-linejoin:round;"><g><path d=" M764,110 L764,125 L537,125 L537,150"/><path d=" M764,110 L764,125 L537,125 L537,150" class="clickable" style="cursor:default;"/></g><path d="M 537,150 L 544,147.5 L 544,152.5 Z" transform="rotate(-90 537 150)" class="arrow" style="fill:rgb(48, 48, 48);stroke-linejoin:miter;stroke-miterlimit:2;"/></g><g id="sprotty_dependencies$project:PiMulator/FileNodeImpl$testbnch_Chip.sv_to_dependencies$project:PiMulator/FileNodeImpl$Chip.sv" class="sprotty-edge dependency" style="fill:none;stroke:rgb(48, 48, 48);stroke-linejoin:round;"><g><path d=" M689,194 L689,219 L741,219 L741,254"/><path d=" M689,194 L689,219 L741,219 L741,254" class="clickable" style="cursor:default;"/></g><path d="M 741,254 L 748,251.5 L 748,256.5 Z" transform="rotate(-90 741 254)" class="arrow" style="fill:rgb(48, 48, 48);stroke-linejoin:miter;stroke-miterlimit:2;"/></g><g id="sprotty_dependencies$project:PiMulator/FileNodeImpl$BankGroup.sv_to_dependencies$project:PiMulator/FileNodeImpl$Bank.sv" class="sprotty-edge dependency" style="fill:none;stroke:rgb(48, 48, 48);stroke-linejoin:round;"><g><path d=" M736,372 L736,402"/><path d=" M736,372 L736,402" class="clickable" style="cursor:default;"/></g><path d="M 736,402 L 743,399.5 L 743,404.5 Z" transform="rotate(-90 736 402)" class="arrow" style="fill:rgb(48, 48, 48);stroke-linejoin:miter;stroke-miterlimit:2;"/></g><g id="sprotty_dependencies$project:PiMulator/FileNodeImpl$testbnch_RefInterleaving.sv_to_dependencies$project:PiMulator/FileNodeImpl$DIMM.sv" class="sprotty-edge dependency" style="fill:none;stroke:rgb(48, 48, 48);stroke-linejoin:round;"><g><path d=" M297,110 L297,125 L517,125 L517,150"/><path d=" M297,110 L297,125 L517,125 L517,150" class="clickable" style="cursor:default;"/></g><path d="M 517,150 L 524,147.5 L 524,152.5 Z" transform="rotate(-90 517 150)" class="arrow" style="fill:rgb(48, 48, 48);stroke-linejoin:miter;stroke-miterlimit:2;"/></g><g id="sprotty_dependencies$project:PiMulator/FileNodeImpl$TimingFSM.sv_to_dependencies$project:PiMulator/FileNodeImpl$memtiming.sv" class="sprotty-edge dependency" style="fill:none;stroke:rgb(48, 48, 48);stroke-linejoin:round;"><g><path d=" M903,298 L903,328"/><path d=" M903,298 L903,328" class="clickable" style="cursor:default;"/></g><path d="M 903,328 L 910,325.5 L 910,330.5 Z" transform="rotate(-90 903 328)" class="arrow" style="fill:rgb(48, 48, 48);stroke-linejoin:miter;stroke-miterlimit:2;"/></g></g></svg>