<svg xmlns="http://www.w3.org/2000/svg" id="sprotty_s_pimulator.Bank" class="sprotty-graph sprotty-block-diagram blockdiagram" style="font-family:&quot;Noto Sans&quot;, Helvetica, Arial, sans-serif;-webkit-locale:&quot;en&quot;;perspective-origin:0px 0px;transform-origin:0px 0px;" version="1.1" viewBox="7 7 320.734375 220" width="320.734375" height="220"><g transform="scale(1) translate(0,0)"><g id="sprotty_ArchitectureBlockImpl$Bank" class="architecture" transform="translate(12, 12)"><g class="sprotty-block" style="fill:rgb(255, 255, 255);stroke:rgb(48, 48, 48);stroke-dasharray:0px;"><rect x="0" y="0" rx="1" ry="1" width="310.734375" height="210"/><text x="155.3671875" y="12" class="sprotty-block-name" style="cursor:pointer;font-weight:700;perspective-origin:155.531px 0px;fill:rgb(48, 48, 48);stroke:rgba(0, 0, 0, 0);dominant-baseline:middle;text-anchor:middle;">Bank</text><line x1="0" y1="20" x2="310.734375" y2="20"/></g><g id="sprotty_ArchitectureBlockImpl$Bank/InstantiationBlockImpl$arrayi/BPortImpl$o_data_to_ArchitectureBlockImpl$Bank/BPortImpl$dqout" class="sprotty-edge thick edge" style="fill:none;stroke:rgb(112, 112, 112);stroke-linejoin:round;stroke-width:3px;"><g><path d="M 255.28125 117 L 310.734375 117 "/><path d="M 255.28125 117 L 310.734375 117 " class="clickable"/></g></g><g id="sprotty_ArchitectureBlockImpl$Bank/BPortImpl$clk_to_ArchitectureBlockImpl$Bank/InstantiationBlockImpl$arrayi/BPortImpl$clk" class="sprotty-edge edge" style="fill:none;stroke:rgb(112, 112, 112);stroke-linejoin:round;"><g><path d="M 0 35 L 86.28125 35 C 87.28125 35 88.28125 36 88.28125 37 L 88.28125 73 C 88.28125 74 89.28125 75 90.28125 75 L 98.28125 75 "/><path d="M 0 35 L 86.28125 35 C 87.28125 35 88.28125 36 88.28125 37 L 88.28125 73 C 88.28125 74 89.28125 75 90.28125 75 L 98.28125 75 " class="clickable"/></g></g><g id="sprotty_ArchitectureBlockImpl$Bank/BPortImpl$row_to_ArchitectureBlockImpl$Bank/InstantiationBlockImpl$arrayi/BPortImpl$addr" class="sprotty-edge thick edge" style="fill:none;stroke:rgb(112, 112, 112);stroke-linejoin:round;stroke-width:3px;"><g><path d="M 0 103 L 98.28125 103 "/><path d="M 0 103 L 98.28125 103 " class="clickable"/></g></g><g id="sprotty_ArchitectureBlockImpl$Bank/BPortImpl$column_to_ArchitectureBlockImpl$Bank/InstantiationBlockImpl$arrayi/BPortImpl$addr" class="sprotty-edge thick edge" style="fill:none;stroke:rgb(112, 112, 112);stroke-linejoin:round;stroke-width:3px;"><g><path d="M 0 69 L 76.28125 69 C 77.28125 69 78.28125 70 78.28125 71 L 78.28125 101 C 78.28125 102 79.28125 103 80.28125 103 L 98.28125 103 "/><path d="M 0 69 L 76.28125 69 C 77.28125 69 78.28125 70 78.28125 71 L 78.28125 101 C 78.28125 102 79.28125 103 80.28125 103 L 98.28125 103 " class="clickable"/></g><circle r="3" id="sprotty_ArchitectureBlockImpl$Bank/BPortImpl$column_to_ArchitectureBlockImpl$Bank/InstantiationBlockImpl$arrayi/BPortImpl$addr/junction0" transform="translate(78.28125, 103)" class="sprotty-junction thick" style="fill:rgb(112, 112, 112);stroke:none;"/></g><g id="sprotty_ArchitectureBlockImpl$Bank/BPortImpl$rd_o_wr_to_ArchitectureBlockImpl$Bank/InstantiationBlockImpl$arrayi/BPortImpl$rd_o_wr" class="sprotty-edge thick edge" style="fill:none;stroke:rgb(112, 112, 112);stroke-linejoin:round;stroke-width:3px;"><g><path d="M 0 137 L 76.28125 137 C 77.28125 137 78.28125 136 78.28125 135 L 78.28125 133 C 78.28125 132 79.28125 131 80.28125 131 L 98.28125 131 "/><path d="M 0 137 L 76.28125 137 C 77.28125 137 78.28125 136 78.28125 135 L 78.28125 133 C 78.28125 132 79.28125 131 80.28125 131 L 98.28125 131 " class="clickable"/></g></g><g id="sprotty_ArchitectureBlockImpl$Bank/BPortImpl$dqin_to_ArchitectureBlockImpl$Bank/InstantiationBlockImpl$arrayi/BPortImpl$i_data" class="sprotty-edge thick edge" style="fill:none;stroke:rgb(112, 112, 112);stroke-linejoin:round;stroke-width:3px;"><g><path d="M 0 171 L 76.28125 171 C 77.28125 171 78.28125 170 78.28125 169 L 78.28125 161 C 78.28125 160 79.28125 159 80.28125 159 L 98.28125 159 "/><path d="M 0 171 L 76.28125 171 C 77.28125 171 78.28125 170 78.28125 169 L 78.28125 161 C 78.28125 160 79.28125 159 80.28125 159 L 98.28125 159 " class="clickable"/></g></g><g id="sprotty_ArchitectureBlockImpl$Bank/InstantiationBlockImpl$arrayi" class="instantiation" transform="translate(98.28125, 37)"><g class="sprotty-block" style="fill:rgb(255, 255, 255);stroke:rgb(48, 48, 48);stroke-dasharray:0px;"><rect x="0" y="0" rx="1" ry="1" width="157" height="140"/><text x="78.5" y="12" class="sprotty-block-name" style="cursor:pointer;font-weight:700;perspective-origin:78.5px 0px;fill:rgb(48, 48, 48);stroke:rgba(0, 0, 0, 0);dominant-baseline:middle;text-anchor:middle;">arrayi : bank_array</text><line x1="0" y1="20" x2="157" y2="20"/></g><g id="sprotty_ArchitectureBlockImpl$Bank/InstantiationBlockImpl$arrayi/BPortImpl$i_data" class="triangle" transform="translate(0, 122)"><path d="M 0,0 L 5,2.5 L 0,5 Z" transform="translate(-1.67, -2.5)" class="sprotty-port" style="fill:rgb(48, 48, 48);stroke:rgb(48, 48, 48);"/><text class="clickable sprotty-label port" id="sprotty_ArchitectureBlockImpl$Bank/InstantiationBlockImpl$arrayi/BPortImpl$i_data/label" transform="translate(6, -9) translate(17.53125, 14)" style="cursor:default;font-size:12px;perspective-origin:0px 0px;fill:rgb(48, 48, 48);text-anchor:middle;">i_data</text></g><g id="sprotty_ArchitectureBlockImpl$Bank/InstantiationBlockImpl$arrayi/BPortImpl$rd_o_wr" class="triangle" transform="translate(0, 94)"><path d="M 0,0 L 5,2.5 L 0,5 Z" transform="translate(-1.67, -2.5)" class="sprotty-port" style="fill:rgb(48, 48, 48);stroke:rgb(48, 48, 48);"/><text class="clickable sprotty-label port" id="sprotty_ArchitectureBlockImpl$Bank/InstantiationBlockImpl$arrayi/BPortImpl$rd_o_wr/label" transform="translate(6, -9) translate(23.46875, 14)" style="cursor:default;font-size:12px;perspective-origin:0.171875px 0px;fill:rgb(48, 48, 48);text-anchor:middle;">rd_o_wr</text></g><g id="sprotty_ArchitectureBlockImpl$Bank/InstantiationBlockImpl$arrayi/BPortImpl$addr" class="triangle" transform="translate(0, 66)"><path d="M 0,0 L 5,2.5 L 0,5 Z" transform="translate(-1.67, -2.5)" class="sprotty-port" style="fill:rgb(48, 48, 48);stroke:rgb(48, 48, 48);"/><text class="clickable sprotty-label port" id="sprotty_ArchitectureBlockImpl$Bank/InstantiationBlockImpl$arrayi/BPortImpl$addr/label" transform="translate(6, -9) translate(13.15625, 14)" style="cursor:default;font-size:12px;perspective-origin:0.171875px 0px;fill:rgb(48, 48, 48);text-anchor:middle;">addr</text></g><g id="sprotty_ArchitectureBlockImpl$Bank/InstantiationBlockImpl$arrayi/BPortImpl$clk" class="triangle" transform="translate(0, 38)"><path d="M 0,0 L 5,2.5 L 0,5 Z" transform="translate(-1.67, -2.5)" class="sprotty-port" style="fill:rgb(48, 48, 48);stroke:rgb(48, 48, 48);"/><text class="clickable sprotty-label port" id="sprotty_ArchitectureBlockImpl$Bank/InstantiationBlockImpl$arrayi/BPortImpl$clk/label" transform="translate(6, -9) translate(8.078125, 14)" style="cursor:default;font-size:12px;perspective-origin:0.1875px 0px;fill:rgb(48, 48, 48);text-anchor:middle;">clk</text></g><g id="sprotty_ArchitectureBlockImpl$Bank/InstantiationBlockImpl$arrayi/BPortImpl$o_data" class="triangle" transform="translate(157, 80)"><path d="M 0,0 L 5,2.5 L 0,5 Z" transform="translate(-1.67, -2.5)" class="sprotty-port" style="fill:rgb(48, 48, 48);stroke:rgb(48, 48, 48);"/><text class="clickable sprotty-label port" id="sprotty_ArchitectureBlockImpl$Bank/InstantiationBlockImpl$arrayi/BPortImpl$o_data/label" transform="translate(-45.03125, -9) translate(19.515625, 14)" style="cursor:default;font-size:12px;perspective-origin:0px 0px;fill:rgb(48, 48, 48);text-anchor:middle;">o_data</text></g></g><g id="sprotty_ArchitectureBlockImpl$Bank/BPortImpl$column" class="triangle" transform="translate(0, 69)"><path d="M 0,0 L 5,2.5 L 0,5 Z" transform="translate(-1.67, -2.5)" class="sprotty-port" style="fill:rgb(48, 48, 48);stroke:rgb(48, 48, 48);"/><text class="clickable sprotty-label port" id="sprotty_ArchitectureBlockImpl$Bank/BPortImpl$column/label" transform="translate(6, 6) translate(21.125, 14)" style="cursor:default;font-size:12px;perspective-origin:0px 0px;fill:rgb(48, 48, 48);text-anchor:middle;">column</text></g><g id="sprotty_ArchitectureBlockImpl$Bank/BPortImpl$row" class="triangle" transform="translate(0, 103)"><path d="M 0,0 L 5,2.5 L 0,5 Z" transform="translate(-1.67, -2.5)" class="sprotty-port" style="fill:rgb(48, 48, 48);stroke:rgb(48, 48, 48);"/><text class="clickable sprotty-label port" id="sprotty_ArchitectureBlockImpl$Bank/BPortImpl$row/label" transform="translate(6, 6) translate(10.6875, 14)" style="cursor:default;font-size:12px;perspective-origin:0.1875px 0px;fill:rgb(48, 48, 48);text-anchor:middle;">row</text></g><g id="sprotty_ArchitectureBlockImpl$Bank/BPortImpl$dqin" class="triangle" transform="translate(0, 171)"><path d="M 0,0 L 5,2.5 L 0,5 Z" transform="translate(-1.67, -2.5)" class="sprotty-port" style="fill:rgb(48, 48, 48);stroke:rgb(48, 48, 48);"/><text class="clickable sprotty-label port" id="sprotty_ArchitectureBlockImpl$Bank/BPortImpl$dqin/label" transform="translate(6, 6) translate(12.765625, 14)" style="cursor:default;font-size:12px;perspective-origin:0px 0px;fill:rgb(48, 48, 48);text-anchor:middle;">dqin</text></g><g id="sprotty_ArchitectureBlockImpl$Bank/BPortImpl$rd_o_wr" class="triangle" transform="translate(0, 137)"><path d="M 0,0 L 5,2.5 L 0,5 Z" transform="translate(-1.67, -2.5)" class="sprotty-port" style="fill:rgb(48, 48, 48);stroke:rgb(48, 48, 48);"/><text class="clickable sprotty-label port" id="sprotty_ArchitectureBlockImpl$Bank/BPortImpl$rd_o_wr/label" transform="translate(6, 6) translate(23.46875, 14)" style="cursor:default;font-size:12px;perspective-origin:0.171875px 0px;fill:rgb(48, 48, 48);text-anchor:middle;">rd_o_wr</text></g><g id="sprotty_ArchitectureBlockImpl$Bank/BPortImpl$clk" class="triangle" transform="translate(0, 35)"><path d="M 0,0 L 5,2.5 L 0,5 Z" transform="translate(-1.67, -2.5)" class="sprotty-port" style="fill:rgb(48, 48, 48);stroke:rgb(48, 48, 48);"/><text class="clickable sprotty-label port" id="sprotty_ArchitectureBlockImpl$Bank/BPortImpl$clk/label" transform="translate(6, 6) translate(8.078125, 14)" style="cursor:default;font-size:12px;perspective-origin:0.1875px 0px;fill:rgb(48, 48, 48);text-anchor:middle;">clk</text></g><g id="sprotty_ArchitectureBlockImpl$Bank/BPortImpl$dqout" class="triangle" transform="translate(310.734375, 117)"><path d="M 0,0 L 5,2.5 L 0,5 Z" transform="translate(-1.67, -2.5)" class="sprotty-port" style="fill:rgb(48, 48, 48);stroke:rgb(48, 48, 48);"/><text class="clickable sprotty-label port" id="sprotty_ArchitectureBlockImpl$Bank/BPortImpl$dqout/label" transform="translate(-40.453125, 6) translate(16.984375, 14)" style="cursor:default;font-size:12px;perspective-origin:0.234375px 0px;fill:rgb(48, 48, 48);text-anchor:middle;">dqout</text></g></g></g></svg>