<svg xmlns="http://www.w3.org/2000/svg" id="sprotty_s_pimulator.MEMSyncTop" class="sprotty-graph sprotty-block-diagram blockdiagram" style="font-family:&quot;Noto Sans&quot;, Helvetica, Arial, sans-serif;-webkit-locale:&quot;en&quot;;perspective-origin:0px 0px;transform-origin:0px 0px;" version="1.1" viewBox="7 7 399.0625 412" width="399.0625" height="412"><g transform="scale(1) translate(0,0)"><g id="sprotty_ArchitectureBlockImpl$MEMSyncTop" class="architecture" transform="translate(12, 12)"><g class="sprotty-block" style="fill:rgb(255, 255, 255);stroke:rgb(48, 48, 48);stroke-dasharray:0px;"><rect x="0" y="0" rx="1" ry="1" width="389.0625" height="402"/><text x="194.53125" y="12" class="sprotty-block-name" style="cursor:pointer;font-weight:700;perspective-origin:194.531px 0px;fill:rgb(48, 48, 48);stroke:rgba(0, 0, 0, 0);dominant-baseline:middle;text-anchor:middle;">MEMSyncTop</text><line x1="0" y1="20" x2="389.0625" y2="20"/></g><g id="sprotty_ArchitectureBlockImpl$MEMSyncTop/GenerateStatementBlockImpl$BG/GPortImpl$cRowId_to_ArchitectureBlockImpl$MEMSyncTop/BPortImpl$cRowId" class="sprotty-edge thick edge" style="fill:none;stroke:rgb(112, 112, 112);stroke-linejoin:round;stroke-width:3px;"><g><path d="M 286.9375 143 L 389.0625 143 "/><path d="M 286.9375 143 L 389.0625 143 " class="clickable"/></g></g><g id="sprotty_ArchitectureBlockImpl$MEMSyncTop/AssignmentBlockImpl$stall/GPortImpl$stallOUT_to_ArchitectureBlockImpl$MEMSyncTop/BPortImpl$stall" class="sprotty-edge edge" style="fill:none;stroke:rgb(112, 112, 112);stroke-linejoin:round;"><g><path d="M 326.65625 339 L 389.0625 339 "/><path d="M 326.65625 339 L 389.0625 339 " class="clickable"/></g></g><g id="sprotty_ArchitectureBlockImpl$MEMSyncTop/BPortImpl$BankFSM_to_ArchitectureBlockImpl$MEMSyncTop/GenerateStatementBlockImpl$BG/GPortImpl$BankFSM" class="sprotty-edge thick edge" style="fill:none;stroke:rgb(112, 112, 112);stroke-linejoin:round;stroke-width:3px;"><g><path d="M 0 143 L 92.90625 143 "/><path d="M 0 143 L 92.90625 143 " class="clickable"/></g></g><g id="sprotty_ArchitectureBlockImpl$MEMSyncTop/BPortImpl$RowId_to_ArchitectureBlockImpl$MEMSyncTop/GenerateStatementBlockImpl$BG/GPortImpl$RowId" class="sprotty-edge thick edge" style="fill:none;stroke:rgb(112, 112, 112);stroke-linejoin:round;stroke-width:3px;"><g><path d="M 0 227 L 92.90625 227 "/><path d="M 0 227 L 92.90625 227 " class="clickable"/></g></g><g id="sprotty_ArchitectureBlockImpl$MEMSyncTop/BPortImpl$clk_to_ArchitectureBlockImpl$MEMSyncTop/GenerateStatementBlockImpl$BG/GPortImpl$clk" class="sprotty-edge edge" style="fill:none;stroke:rgb(112, 112, 112);stroke-linejoin:round;"><g><path d="M 0 283 L 92.90625 283 "/><path d="M 0 283 L 92.90625 283 " class="clickable"/></g></g><g id="sprotty_ArchitectureBlockImpl$MEMSyncTop/BPortImpl$reset_n_to_ArchitectureBlockImpl$MEMSyncTop/GenerateStatementBlockImpl$BG/GPortImpl$reset_n" class="sprotty-edge edge" style="fill:none;stroke:rgb(112, 112, 112);stroke-linejoin:round;"><g><path d="M 0 317 L 80.90625 317 C 81.90625 317 82.90625 316 82.90625 315 L 82.90625 313 C 82.90625 312 83.90625 311 84.90625 311 L 92.90625 311 "/><path d="M 0 317 L 80.90625 317 C 81.90625 317 82.90625 316 82.90625 315 L 82.90625 313 C 82.90625 312 83.90625 311 84.90625 311 L 92.90625 311 " class="clickable"/></g></g><g id="sprotty_ArchitectureBlockImpl$MEMSyncTop/BPortImpl$sync_to_ArchitectureBlockImpl$MEMSyncTop/GenerateStatementBlockImpl$BG/GPortImpl$sync" class="sprotty-edge thick edge" style="fill:none;stroke:rgb(112, 112, 112);stroke-linejoin:round;stroke-width:3px;"><g><path d="M 0 351 L 80.90625 351 C 81.90625 351 82.90625 350 82.90625 349 L 82.90625 341 C 82.90625 340 83.90625 339 84.90625 339 L 92.90625 339 "/><path d="M 0 351 L 80.90625 351 C 81.90625 351 82.90625 350 82.90625 349 L 82.90625 341 C 82.90625 340 83.90625 339 84.90625 339 L 92.90625 339 " class="clickable"/></g></g><g id="sprotty_ArchitectureBlockImpl$MEMSyncTop/GenerateStatementBlockImpl$BG/GPortImpl$stalls_to_ArchitectureBlockImpl$MEMSyncTop/AssignmentBlockImpl$stall/GPortImpl$stallsIN" class="sprotty-edge thick edge" style="fill:none;stroke:rgb(112, 112, 112);stroke-linejoin:round;stroke-width:3px;"><g><path d="M 286.9375 339 L 306.9375 339 "/><path d="M 286.9375 339 L 306.9375 339 " class="clickable"/></g></g><g id="sprotty_ArchitectureBlockImpl$MEMSyncTop/GenerateStatementBlockImpl$BG" class="generate" transform="translate(92.90625, 35)"><g class="sprotty-block sprotty-block-generate" style="fill:rgb(255, 255, 255);stroke:rgb(48, 48, 48);stroke-dasharray:0px;"><rect x="0" y="0" rx="1" ry="1" width="194.03125" height="352" style="stroke-dasharray:3px, 1px;"/><text x="97.015625" y="12" class="sprotty-block-name" style="cursor:pointer;font-weight:700;perspective-origin:97.0156px 0px;fill:rgb(48, 48, 48);stroke:rgba(0, 0, 0, 0);dominant-baseline:middle;text-anchor:middle;">BG</text><line x1="0" y1="20" x2="194.03125" y2="20" style="stroke-dasharray:3px, 1px;"/></g><g id="sprotty_ArchitectureBlockImpl$MEMSyncTop/GenerateStatementBlockImpl$BG/GenerateStatementBlockImpl$B" class="generate" transform="translate(15, 35)"><g class="sprotty-block sprotty-block-generate" style="fill:rgb(255, 255, 255);stroke:rgb(48, 48, 48);stroke-dasharray:0px;"><rect x="0" y="0" rx="1" ry="1" width="164.03125" height="302" style="stroke-dasharray:3px, 1px;"/><text x="82.015625" y="12" class="sprotty-block-name" style="cursor:pointer;font-weight:700;perspective-origin:82.0625px 0px;fill:rgb(48, 48, 48);stroke:rgba(0, 0, 0, 0);dominant-baseline:middle;text-anchor:middle;">B</text><line x1="0" y1="20" x2="164.03125" y2="20" style="stroke-dasharray:3px, 1px;"/></g><g id="sprotty_ArchitectureBlockImpl$MEMSyncTop/GenerateStatementBlockImpl$BG/GenerateStatementBlockImpl$B/InstantiationBlockImpl$Mi/BPortImpl$cRowId_to_ArchitectureBlockImpl$MEMSyncTop/GenerateStatementBlockImpl$BG/GenerateStatementBlockImpl$B/GPortImpl$cRowId" class="sprotty-edge thick edge" style="fill:none;stroke:rgb(112, 112, 112);stroke-linejoin:round;stroke-width:3px;"><g><path d="M 149.03125 73 L 164.03125 73 "/><path d="M 149.03125 73 L 164.03125 73 " class="clickable"/></g></g><g id="sprotty_ArchitectureBlockImpl$MEMSyncTop/GenerateStatementBlockImpl$BG/GenerateStatementBlockImpl$B/GPortImpl$cRowId_to_ArchitectureBlockImpl$MEMSyncTop/GenerateStatementBlockImpl$BG/GPortImpl$cRowId" class="sprotty-edge thick edge" style="fill:none;stroke:rgb(112, 112, 112);stroke-linejoin:round;stroke-width:3px;"><g><path d="M 164.03125 73 L 179.03125 73 "/><path d="M 164.03125 73 L 179.03125 73 " class="clickable"/></g></g><g id="sprotty_ArchitectureBlockImpl$MEMSyncTop/GenerateStatementBlockImpl$BG/GenerateStatementBlockImpl$B/GPortImpl$BankFSM_to_ArchitectureBlockImpl$MEMSyncTop/GenerateStatementBlockImpl$BG/GenerateStatementBlockImpl$B/InstantiationBlockImpl$Mi/BPortImpl$ACT" class="sprotty-edge thick edge" style="fill:none;stroke:rgb(112, 112, 112);stroke-linejoin:round;stroke-width:3px;"><g><path d="M 0 73 L 35 73 "/><path d="M 0 73 L 35 73 " class="clickable"/></g></g><g id="sprotty_ArchitectureBlockImpl$MEMSyncTop/GenerateStatementBlockImpl$BG/GPortImpl$BankFSM_to_ArchitectureBlockImpl$MEMSyncTop/GenerateStatementBlockImpl$BG/GenerateStatementBlockImpl$B/GPortImpl$BankFSM" class="sprotty-edge thick edge" style="fill:none;stroke:rgb(112, 112, 112);stroke-linejoin:round;stroke-width:3px;"><g><path d="M -15 73 L 0 73 "/><path d="M -15 73 L 0 73 " class="clickable"/></g></g><g id="sprotty_ArchitectureBlockImpl$MEMSyncTop/GenerateStatementBlockImpl$BG/GenerateStatementBlockImpl$B/GPortImpl$BankFSM_to_ArchitectureBlockImpl$MEMSyncTop/GenerateStatementBlockImpl$BG/GenerateStatementBlockImpl$B/InstantiationBlockImpl$Mi/BPortImpl$PR" class="sprotty-edge thick edge" style="fill:none;stroke:rgb(112, 112, 112);stroke-linejoin:round;stroke-width:3px;"><g><path d="M 0 73 L 23 73 C 24 73 25 74 25 75 L 25 99 C 25 100 26 101 27 101 L 35 101 "/><path d="M 0 73 L 23 73 C 24 73 25 74 25 75 L 25 99 C 25 100 26 101 27 101 L 35 101 " class="clickable"/></g><circle r="3" id="sprotty_ArchitectureBlockImpl$MEMSyncTop/GenerateStatementBlockImpl$BG/GenerateStatementBlockImpl$B/GPortImpl$BankFSM_to_ArchitectureBlockImpl$MEMSyncTop/GenerateStatementBlockImpl$BG/GenerateStatementBlockImpl$B/InstantiationBlockImpl$Mi/BPortImpl$PR/junction0" transform="translate(25, 73)" class="sprotty-junction thick" style="fill:rgb(112, 112, 112);stroke:none;"/><circle r="3" id="sprotty_ArchitectureBlockImpl$MEMSyncTop/GenerateStatementBlockImpl$BG/GenerateStatementBlockImpl$B/GPortImpl$BankFSM_to_ArchitectureBlockImpl$MEMSyncTop/GenerateStatementBlockImpl$BG/GenerateStatementBlockImpl$B/InstantiationBlockImpl$Mi/BPortImpl$PR/junction1" transform="translate(25, 101)" class="sprotty-junction thick" style="fill:rgb(112, 112, 112);stroke:none;"/></g><g id="sprotty_ArchitectureBlockImpl$MEMSyncTop/GenerateStatementBlockImpl$BG/GenerateStatementBlockImpl$B/GPortImpl$BankFSM_to_ArchitectureBlockImpl$MEMSyncTop/GenerateStatementBlockImpl$BG/GenerateStatementBlockImpl$B/InstantiationBlockImpl$Mi/BPortImpl$RD" class="sprotty-edge thick edge" style="fill:none;stroke:rgb(112, 112, 112);stroke-linejoin:round;stroke-width:3px;"><g><path d="M 0 73 L 23 73 C 24 73 25 74 25 75 L 25 127 C 25 128 26 129 27 129 L 35 129 "/><path d="M 0 73 L 23 73 C 24 73 25 74 25 75 L 25 127 C 25 128 26 129 27 129 L 35 129 " class="clickable"/></g><circle r="3" id="sprotty_ArchitectureBlockImpl$MEMSyncTop/GenerateStatementBlockImpl$BG/GenerateStatementBlockImpl$B/GPortImpl$BankFSM_to_ArchitectureBlockImpl$MEMSyncTop/GenerateStatementBlockImpl$BG/GenerateStatementBlockImpl$B/InstantiationBlockImpl$Mi/BPortImpl$RD/junction0" transform="translate(25, 129)" class="sprotty-junction thick" style="fill:rgb(112, 112, 112);stroke:none;"/></g><g id="sprotty_ArchitectureBlockImpl$MEMSyncTop/GenerateStatementBlockImpl$BG/GenerateStatementBlockImpl$B/GPortImpl$RowId_to_ArchitectureBlockImpl$MEMSyncTop/GenerateStatementBlockImpl$BG/GenerateStatementBlockImpl$B/InstantiationBlockImpl$Mi/BPortImpl$RowId" class="sprotty-edge thick edge" style="fill:none;stroke:rgb(112, 112, 112);stroke-linejoin:round;stroke-width:3px;"><g><path d="M 0 157 L 35 157 "/><path d="M 0 157 L 35 157 " class="clickable"/></g></g><g id="sprotty_ArchitectureBlockImpl$MEMSyncTop/GenerateStatementBlockImpl$BG/GPortImpl$RowId_to_ArchitectureBlockImpl$MEMSyncTop/GenerateStatementBlockImpl$BG/GenerateStatementBlockImpl$B/GPortImpl$RowId" class="sprotty-edge thick edge" style="fill:none;stroke:rgb(112, 112, 112);stroke-linejoin:round;stroke-width:3px;"><g><path d="M -15 157 L 0 157 "/><path d="M -15 157 L 0 157 " class="clickable"/></g></g><g id="sprotty_ArchitectureBlockImpl$MEMSyncTop/GenerateStatementBlockImpl$BG/GenerateStatementBlockImpl$B/GPortImpl$BankFSM_to_ArchitectureBlockImpl$MEMSyncTop/GenerateStatementBlockImpl$BG/GenerateStatementBlockImpl$B/InstantiationBlockImpl$Mi/BPortImpl$WR" class="sprotty-edge thick edge" style="fill:none;stroke:rgb(112, 112, 112);stroke-linejoin:round;stroke-width:3px;"><g><path d="M 0 73 L 23 73 C 24 73 25 74 25 75 L 25 183 C 25 184 26 185 27 185 L 35 185 "/><path d="M 0 73 L 23 73 C 24 73 25 74 25 75 L 25 183 C 25 184 26 185 27 185 L 35 185 " class="clickable"/></g></g><g id="sprotty_ArchitectureBlockImpl$MEMSyncTop/GenerateStatementBlockImpl$BG/GenerateStatementBlockImpl$B/GPortImpl$clk_to_ArchitectureBlockImpl$MEMSyncTop/GenerateStatementBlockImpl$BG/GenerateStatementBlockImpl$B/InstantiationBlockImpl$Mi/BPortImpl$clk" class="sprotty-edge edge" style="fill:none;stroke:rgb(112, 112, 112);stroke-linejoin:round;"><g><path d="M 0 213 L 35 213 "/><path d="M 0 213 L 35 213 " class="clickable"/></g></g><g id="sprotty_ArchitectureBlockImpl$MEMSyncTop/GenerateStatementBlockImpl$BG/GPortImpl$clk_to_ArchitectureBlockImpl$MEMSyncTop/GenerateStatementBlockImpl$BG/GenerateStatementBlockImpl$B/GPortImpl$clk" class="sprotty-edge edge" style="fill:none;stroke:rgb(112, 112, 112);stroke-linejoin:round;"><g><path d="M -15 213 L 0 213 "/><path d="M -15 213 L 0 213 " class="clickable"/></g></g><g id="sprotty_ArchitectureBlockImpl$MEMSyncTop/GenerateStatementBlockImpl$BG/GenerateStatementBlockImpl$B/GPortImpl$reset_n_to_ArchitectureBlockImpl$MEMSyncTop/GenerateStatementBlockImpl$BG/GenerateStatementBlockImpl$B/InstantiationBlockImpl$Mi/BPortImpl$rst" class="sprotty-edge edge" style="fill:none;stroke:rgb(112, 112, 112);stroke-linejoin:round;"><g><path d="M 0 241 L 35 241 "/><path d="M 0 241 L 35 241 " class="clickable"/></g></g><g id="sprotty_ArchitectureBlockImpl$MEMSyncTop/GenerateStatementBlockImpl$BG/GPortImpl$reset_n_to_ArchitectureBlockImpl$MEMSyncTop/GenerateStatementBlockImpl$BG/GenerateStatementBlockImpl$B/GPortImpl$reset_n" class="sprotty-edge edge" style="fill:none;stroke:rgb(112, 112, 112);stroke-linejoin:round;"><g><path d="M -15 241 L 0 241 "/><path d="M -15 241 L 0 241 " class="clickable"/></g></g><g id="sprotty_ArchitectureBlockImpl$MEMSyncTop/GenerateStatementBlockImpl$BG/GenerateStatementBlockImpl$B/GPortImpl$sync_to_ArchitectureBlockImpl$MEMSyncTop/GenerateStatementBlockImpl$BG/GenerateStatementBlockImpl$B/InstantiationBlockImpl$Mi/BPortImpl$sync" class="sprotty-edge thick edge" style="fill:none;stroke:rgb(112, 112, 112);stroke-linejoin:round;stroke-width:3px;"><g><path d="M 0 269 L 35 269 "/><path d="M 0 269 L 35 269 " class="clickable"/></g></g><g id="sprotty_ArchitectureBlockImpl$MEMSyncTop/GenerateStatementBlockImpl$BG/GPortImpl$sync_to_ArchitectureBlockImpl$MEMSyncTop/GenerateStatementBlockImpl$BG/GenerateStatementBlockImpl$B/GPortImpl$sync" class="sprotty-edge thick edge" style="fill:none;stroke:rgb(112, 112, 112);stroke-linejoin:round;stroke-width:3px;"><g><path d="M -15 269 L 0 269 "/><path d="M -15 269 L 0 269 " class="clickable"/></g></g><g id="sprotty_ArchitectureBlockImpl$MEMSyncTop/GenerateStatementBlockImpl$BG/GenerateStatementBlockImpl$B/InstantiationBlockImpl$Mi/BPortImpl$stall_to_ArchitectureBlockImpl$MEMSyncTop/GenerateStatementBlockImpl$BG/GenerateStatementBlockImpl$B/GPortImpl$stalls" class="sprotty-edge thick edge" style="fill:none;stroke:rgb(112, 112, 112);stroke-linejoin:round;stroke-width:3px;"><g><path d="M 149.03125 269 L 164.03125 269 "/><path d="M 149.03125 269 L 164.03125 269 " class="clickable"/></g></g><g id="sprotty_ArchitectureBlockImpl$MEMSyncTop/GenerateStatementBlockImpl$BG/GenerateStatementBlockImpl$B/GPortImpl$stalls_to_ArchitectureBlockImpl$MEMSyncTop/GenerateStatementBlockImpl$BG/GPortImpl$stalls" class="sprotty-edge thick edge" style="fill:none;stroke:rgb(112, 112, 112);stroke-linejoin:round;stroke-width:3px;"><g><path d="M 164.03125 269 L 179.03125 269 "/><path d="M 164.03125 269 L 179.03125 269 " class="clickable"/></g></g><g id="sprotty_ArchitectureBlockImpl$MEMSyncTop/GenerateStatementBlockImpl$BG/GenerateStatementBlockImpl$B/InstantiationBlockImpl$Mi" class="instantiation" transform="translate(35, 35)"><g class="sprotty-block" style="fill:rgb(255, 255, 255);stroke:rgb(48, 48, 48);stroke-dasharray:0px;"><rect x="0" y="0" rx="1" ry="1" width="114.03125" height="252"/><text x="57.015625" y="12" class="sprotty-block-name" style="cursor:pointer;font-weight:700;perspective-origin:57.0156px 0px;fill:rgb(48, 48, 48);stroke:rgba(0, 0, 0, 0);dominant-baseline:middle;text-anchor:middle;">Mi : MEMSync</text><line x1="0" y1="20" x2="114.03125" y2="20"/></g><g id="sprotty_ArchitectureBlockImpl$MEMSyncTop/GenerateStatementBlockImpl$BG/GenerateStatementBlockImpl$B/InstantiationBlockImpl$Mi/BPortImpl$sync" class="triangle" transform="translate(0, 234)"><path d="M 0,0 L 5,2.5 L 0,5 Z" transform="translate(-1.67, -2.5)" class="sprotty-port" style="fill:rgb(48, 48, 48);stroke:rgb(48, 48, 48);"/><text class="clickable sprotty-label port" id="sprotty_ArchitectureBlockImpl$MEMSyncTop/GenerateStatementBlockImpl$BG/GenerateStatementBlockImpl$B/InstantiationBlockImpl$Mi/BPortImpl$sync/label" transform="translate(6, -9) translate(12.65625, 14)" style="cursor:default;font-size:12px;perspective-origin:0px 0px;fill:rgb(48, 48, 48);text-anchor:middle;">sync</text></g><g id="sprotty_ArchitectureBlockImpl$MEMSyncTop/GenerateStatementBlockImpl$BG/GenerateStatementBlockImpl$B/InstantiationBlockImpl$Mi/BPortImpl$rst" class="triangle" transform="translate(0, 206)"><path d="M 0,0 L 5,2.5 L 0,5 Z" transform="translate(-1.67, -2.5)" class="sprotty-port" style="fill:rgb(48, 48, 48);stroke:rgb(48, 48, 48);"/><text class="clickable sprotty-label port" id="sprotty_ArchitectureBlockImpl$MEMSyncTop/GenerateStatementBlockImpl$BG/GenerateStatementBlockImpl$B/InstantiationBlockImpl$Mi/BPortImpl$rst/label" transform="translate(6, -9) translate(7.25, 14)" style="cursor:default;font-size:12px;perspective-origin:0.234375px 0px;fill:rgb(48, 48, 48);text-anchor:middle;">rst</text></g><g id="sprotty_ArchitectureBlockImpl$MEMSyncTop/GenerateStatementBlockImpl$BG/GenerateStatementBlockImpl$B/InstantiationBlockImpl$Mi/BPortImpl$clk" class="triangle" transform="translate(0, 178)"><path d="M 0,0 L 5,2.5 L 0,5 Z" transform="translate(-1.67, -2.5)" class="sprotty-port" style="fill:rgb(48, 48, 48);stroke:rgb(48, 48, 48);"/><text class="clickable sprotty-label port" id="sprotty_ArchitectureBlockImpl$MEMSyncTop/GenerateStatementBlockImpl$BG/GenerateStatementBlockImpl$B/InstantiationBlockImpl$Mi/BPortImpl$clk/label" transform="translate(6, -9) translate(8.078125, 14)" style="cursor:default;font-size:12px;perspective-origin:0.1875px 0px;fill:rgb(48, 48, 48);text-anchor:middle;">clk</text></g><g id="sprotty_ArchitectureBlockImpl$MEMSyncTop/GenerateStatementBlockImpl$BG/GenerateStatementBlockImpl$B/InstantiationBlockImpl$Mi/BPortImpl$WR" class="triangle" transform="translate(0, 150)"><path d="M 0,0 L 5,2.5 L 0,5 Z" transform="translate(-1.67, -2.5)" class="sprotty-port" style="fill:rgb(48, 48, 48);stroke:rgb(48, 48, 48);"/><text class="clickable sprotty-label port" id="sprotty_ArchitectureBlockImpl$MEMSyncTop/GenerateStatementBlockImpl$BG/GenerateStatementBlockImpl$B/InstantiationBlockImpl$Mi/BPortImpl$WR/label" transform="translate(6, -9) translate(9.078125, 14)" style="cursor:default;font-size:12px;perspective-origin:0.1875px 0px;fill:rgb(48, 48, 48);text-anchor:middle;">WR</text></g><g id="sprotty_ArchitectureBlockImpl$MEMSyncTop/GenerateStatementBlockImpl$BG/GenerateStatementBlockImpl$B/InstantiationBlockImpl$Mi/BPortImpl$RowId" class="triangle" transform="translate(0, 122)"><path d="M 0,0 L 5,2.5 L 0,5 Z" transform="translate(-1.67, -2.5)" class="sprotty-port" style="fill:rgb(48, 48, 48);stroke:rgb(48, 48, 48);"/><text class="clickable sprotty-label port" id="sprotty_ArchitectureBlockImpl$MEMSyncTop/GenerateStatementBlockImpl$BG/GenerateStatementBlockImpl$B/InstantiationBlockImpl$Mi/BPortImpl$RowId/label" transform="translate(6, -9) translate(17.65625, 14)" style="cursor:default;font-size:12px;perspective-origin:0px 0px;fill:rgb(48, 48, 48);text-anchor:middle;">RowId</text></g><g id="sprotty_ArchitectureBlockImpl$MEMSyncTop/GenerateStatementBlockImpl$BG/GenerateStatementBlockImpl$B/InstantiationBlockImpl$Mi/BPortImpl$RD" class="triangle" transform="translate(0, 94)"><path d="M 0,0 L 5,2.5 L 0,5 Z" transform="translate(-1.67, -2.5)" class="sprotty-port" style="fill:rgb(48, 48, 48);stroke:rgb(48, 48, 48);"/><text class="clickable sprotty-label port" id="sprotty_ArchitectureBlockImpl$MEMSyncTop/GenerateStatementBlockImpl$BG/GenerateStatementBlockImpl$B/InstantiationBlockImpl$Mi/BPortImpl$RD/label" transform="translate(6, -9) translate(7.9375, 14)" style="cursor:default;font-size:12px;perspective-origin:0px 0px;fill:rgb(48, 48, 48);text-anchor:middle;">RD</text></g><g id="sprotty_ArchitectureBlockImpl$MEMSyncTop/GenerateStatementBlockImpl$BG/GenerateStatementBlockImpl$B/InstantiationBlockImpl$Mi/BPortImpl$PR" class="triangle" transform="translate(0, 66)"><path d="M 0,0 L 5,2.5 L 0,5 Z" transform="translate(-1.67, -2.5)" class="sprotty-port" style="fill:rgb(48, 48, 48);stroke:rgb(48, 48, 48);"/><text class="clickable sprotty-label port" id="sprotty_ArchitectureBlockImpl$MEMSyncTop/GenerateStatementBlockImpl$BG/GenerateStatementBlockImpl$B/InstantiationBlockImpl$Mi/BPortImpl$PR/label" transform="translate(6, -9) translate(7.609375, 14)" style="cursor:default;font-size:12px;perspective-origin:0.1875px 0px;fill:rgb(48, 48, 48);text-anchor:middle;">PR</text></g><g id="sprotty_ArchitectureBlockImpl$MEMSyncTop/GenerateStatementBlockImpl$BG/GenerateStatementBlockImpl$B/InstantiationBlockImpl$Mi/BPortImpl$ACT" class="triangle" transform="translate(0, 38)"><path d="M 0,0 L 5,2.5 L 0,5 Z" transform="translate(-1.67, -2.5)" class="sprotty-port" style="fill:rgb(48, 48, 48);stroke:rgb(48, 48, 48);"/><text class="clickable sprotty-label port" id="sprotty_ArchitectureBlockImpl$MEMSyncTop/GenerateStatementBlockImpl$BG/GenerateStatementBlockImpl$B/InstantiationBlockImpl$Mi/BPortImpl$ACT/label" transform="translate(6, -9) translate(10.890625, 14)" style="cursor:default;font-size:12px;perspective-origin:0px 0px;fill:rgb(48, 48, 48);text-anchor:middle;">ACT</text></g><g id="sprotty_ArchitectureBlockImpl$MEMSyncTop/GenerateStatementBlockImpl$BG/GenerateStatementBlockImpl$B/InstantiationBlockImpl$Mi/BPortImpl$cRowId" class="triangle" transform="translate(114.03125, 38)"><path d="M 0,0 L 5,2.5 L 0,5 Z" transform="translate(-1.67, -2.5)" class="sprotty-port" style="fill:rgb(48, 48, 48);stroke:rgb(48, 48, 48);"/><text class="clickable sprotty-label port" id="sprotty_ArchitectureBlockImpl$MEMSyncTop/GenerateStatementBlockImpl$BG/GenerateStatementBlockImpl$B/InstantiationBlockImpl$Mi/BPortImpl$cRowId/label" transform="translate(-47.40625, -9) translate(20.703125, 14)" style="cursor:default;font-size:12px;perspective-origin:0px 0px;fill:rgb(48, 48, 48);text-anchor:middle;">cRowId</text></g><g id="sprotty_ArchitectureBlockImpl$MEMSyncTop/GenerateStatementBlockImpl$BG/GenerateStatementBlockImpl$B/InstantiationBlockImpl$Mi/BPortImpl$dirty" class="triangle" transform="translate(114.03125, 77.2)"><path d="M 0,0 L 5,2.5 L 0,5 Z" transform="translate(-1.67, -2.5)" class="sprotty-port" style="fill:rgb(48, 48, 48);stroke:rgb(48, 48, 48);"/><text class="clickable sprotty-label port" id="sprotty_ArchitectureBlockImpl$MEMSyncTop/GenerateStatementBlockImpl$BG/GenerateStatementBlockImpl$B/InstantiationBlockImpl$Mi/BPortImpl$dirty/label" transform="translate(-32.9375, -9) translate(13.09375, 14)" style="cursor:default;font-size:12px;perspective-origin:0.375px 0px;fill:rgb(48, 48, 48);text-anchor:middle;">dirty</text></g><g id="sprotty_ArchitectureBlockImpl$MEMSyncTop/GenerateStatementBlockImpl$BG/GenerateStatementBlockImpl$B/InstantiationBlockImpl$Mi/BPortImpl$hit" class="triangle" transform="translate(114.03125, 116.4)"><path d="M 0,0 L 5,2.5 L 0,5 Z" transform="translate(-1.67, -2.5)" class="sprotty-port" style="fill:rgb(48, 48, 48);stroke:rgb(48, 48, 48);"/><text class="clickable sprotty-label port" id="sprotty_ArchitectureBlockImpl$MEMSyncTop/GenerateStatementBlockImpl$BG/GenerateStatementBlockImpl$B/InstantiationBlockImpl$Mi/BPortImpl$hit/label" transform="translate(-21.59375, -9) translate(7.5625, 14)" style="cursor:default;font-size:12px;perspective-origin:0.234375px 0px;fill:rgb(48, 48, 48);text-anchor:middle;">hit</text></g><g id="sprotty_ArchitectureBlockImpl$MEMSyncTop/GenerateStatementBlockImpl$BG/GenerateStatementBlockImpl$B/InstantiationBlockImpl$Mi/BPortImpl$nRowId" class="triangle" transform="translate(114.03125, 155.60000000000002)"><path d="M 0,0 L 5,2.5 L 0,5 Z" transform="translate(-1.67, -2.5)" class="sprotty-port" style="fill:rgb(48, 48, 48);stroke:rgb(48, 48, 48);"/><text class="clickable sprotty-label port" id="sprotty_ArchitectureBlockImpl$MEMSyncTop/GenerateStatementBlockImpl$BG/GenerateStatementBlockImpl$B/InstantiationBlockImpl$Mi/BPortImpl$nRowId/label" transform="translate(-48.625, -9) translate(21.3125, 14)" style="cursor:default;font-size:12px;perspective-origin:0px 0px;fill:rgb(48, 48, 48);text-anchor:middle;">nRowId</text></g><g id="sprotty_ArchitectureBlockImpl$MEMSyncTop/GenerateStatementBlockImpl$BG/GenerateStatementBlockImpl$B/InstantiationBlockImpl$Mi/BPortImpl$ready" class="triangle" transform="translate(114.03125, 194.8)"><path d="M 0,0 L 5,2.5 L 0,5 Z" transform="translate(-1.67, -2.5)" class="sprotty-port" style="fill:rgb(48, 48, 48);stroke:rgb(48, 48, 48);"/><text class="clickable sprotty-label port" id="sprotty_ArchitectureBlockImpl$MEMSyncTop/GenerateStatementBlockImpl$BG/GenerateStatementBlockImpl$B/InstantiationBlockImpl$Mi/BPortImpl$ready/label" transform="translate(-38.203125, -9) translate(15.734375, 14)" style="cursor:default;font-size:12px;perspective-origin:0.359375px 0px;fill:rgb(48, 48, 48);text-anchor:middle;">ready</text></g><g id="sprotty_ArchitectureBlockImpl$MEMSyncTop/GenerateStatementBlockImpl$BG/GenerateStatementBlockImpl$B/InstantiationBlockImpl$Mi/BPortImpl$stall" class="triangle" transform="translate(114.03125, 234)"><path d="M 0,0 L 5,2.5 L 0,5 Z" transform="translate(-1.67, -2.5)" class="sprotty-port" style="fill:rgb(48, 48, 48);stroke:rgb(48, 48, 48);"/><text class="clickable sprotty-label port" id="sprotty_ArchitectureBlockImpl$MEMSyncTop/GenerateStatementBlockImpl$BG/GenerateStatementBlockImpl$B/InstantiationBlockImpl$Mi/BPortImpl$stall/label" transform="translate(-29.21875, -9) translate(11.609375, 14)" style="cursor:default;font-size:12px;perspective-origin:0px 0px;fill:rgb(48, 48, 48);text-anchor:middle;">stall</text></g></g><g id="sprotty_ArchitectureBlockImpl$MEMSyncTop/GenerateStatementBlockImpl$BG/GenerateStatementBlockImpl$B/GPortImpl$sync" class="triangle" transform="translate(0, 269)"><path d="M 0,0 L 5,2.5 L 0,5 Z" transform="translate(-1.67, -2.5)" class="sprotty-port" style="fill:rgb(48, 48, 48);stroke:rgb(48, 48, 48);"/></g><g id="sprotty_ArchitectureBlockImpl$MEMSyncTop/GenerateStatementBlockImpl$BG/GenerateStatementBlockImpl$B/GPortImpl$reset_n" class="triangle" transform="translate(0, 241)"><path d="M 0,0 L 5,2.5 L 0,5 Z" transform="translate(-1.67, -2.5)" class="sprotty-port" style="fill:rgb(48, 48, 48);stroke:rgb(48, 48, 48);"/></g><g id="sprotty_ArchitectureBlockImpl$MEMSyncTop/GenerateStatementBlockImpl$BG/GenerateStatementBlockImpl$B/GPortImpl$clk" class="triangle" transform="translate(0, 213)"><path d="M 0,0 L 5,2.5 L 0,5 Z" transform="translate(-1.67, -2.5)" class="sprotty-port" style="fill:rgb(48, 48, 48);stroke:rgb(48, 48, 48);"/></g><g id="sprotty_ArchitectureBlockImpl$MEMSyncTop/GenerateStatementBlockImpl$BG/GenerateStatementBlockImpl$B/GPortImpl$RowId" class="triangle" transform="translate(0, 157)"><path d="M 0,0 L 5,2.5 L 0,5 Z" transform="translate(-1.67, -2.5)" class="sprotty-port" style="fill:rgb(48, 48, 48);stroke:rgb(48, 48, 48);"/></g><g id="sprotty_ArchitectureBlockImpl$MEMSyncTop/GenerateStatementBlockImpl$BG/GenerateStatementBlockImpl$B/GPortImpl$BankFSM" class="triangle" transform="translate(0, 73)"><path d="M 0,0 L 5,2.5 L 0,5 Z" transform="translate(-1.67, -2.5)" class="sprotty-port" style="fill:rgb(48, 48, 48);stroke:rgb(48, 48, 48);"/></g><g id="sprotty_ArchitectureBlockImpl$MEMSyncTop/GenerateStatementBlockImpl$BG/GenerateStatementBlockImpl$B/GPortImpl$cRowId" class="triangle" transform="translate(164.03125, 73)"><path d="M 0,0 L 5,2.5 L 0,5 Z" transform="translate(-1.67, -2.5)" class="sprotty-port" style="fill:rgb(48, 48, 48);stroke:rgb(48, 48, 48);"/></g><g id="sprotty_ArchitectureBlockImpl$MEMSyncTop/GenerateStatementBlockImpl$BG/GenerateStatementBlockImpl$B/GPortImpl$stalls" class="triangle" transform="translate(164.03125, 269)"><path d="M 0,0 L 5,2.5 L 0,5 Z" transform="translate(-1.67, -2.5)" class="sprotty-port" style="fill:rgb(48, 48, 48);stroke:rgb(48, 48, 48);"/></g></g><g id="sprotty_ArchitectureBlockImpl$MEMSyncTop/GenerateStatementBlockImpl$BG/GPortImpl$sync" class="triangle" transform="translate(0, 304)"><path d="M 0,0 L 5,2.5 L 0,5 Z" transform="translate(-1.67, -2.5)" class="sprotty-port" style="fill:rgb(48, 48, 48);stroke:rgb(48, 48, 48);"/></g><g id="sprotty_ArchitectureBlockImpl$MEMSyncTop/GenerateStatementBlockImpl$BG/GPortImpl$reset_n" class="triangle" transform="translate(0, 276)"><path d="M 0,0 L 5,2.5 L 0,5 Z" transform="translate(-1.67, -2.5)" class="sprotty-port" style="fill:rgb(48, 48, 48);stroke:rgb(48, 48, 48);"/></g><g id="sprotty_ArchitectureBlockImpl$MEMSyncTop/GenerateStatementBlockImpl$BG/GPortImpl$clk" class="triangle" transform="translate(0, 248)"><path d="M 0,0 L 5,2.5 L 0,5 Z" transform="translate(-1.67, -2.5)" class="sprotty-port" style="fill:rgb(48, 48, 48);stroke:rgb(48, 48, 48);"/></g><g id="sprotty_ArchitectureBlockImpl$MEMSyncTop/GenerateStatementBlockImpl$BG/GPortImpl$RowId" class="triangle" transform="translate(0, 192)"><path d="M 0,0 L 5,2.5 L 0,5 Z" transform="translate(-1.67, -2.5)" class="sprotty-port" style="fill:rgb(48, 48, 48);stroke:rgb(48, 48, 48);"/></g><g id="sprotty_ArchitectureBlockImpl$MEMSyncTop/GenerateStatementBlockImpl$BG/GPortImpl$BankFSM" class="triangle" transform="translate(0, 108)"><path d="M 0,0 L 5,2.5 L 0,5 Z" transform="translate(-1.67, -2.5)" class="sprotty-port" style="fill:rgb(48, 48, 48);stroke:rgb(48, 48, 48);"/></g><g id="sprotty_ArchitectureBlockImpl$MEMSyncTop/GenerateStatementBlockImpl$BG/GPortImpl$cRowId" class="triangle" transform="translate(194.03125, 108)"><path d="M 0,0 L 5,2.5 L 0,5 Z" transform="translate(-1.67, -2.5)" class="sprotty-port" style="fill:rgb(48, 48, 48);stroke:rgb(48, 48, 48);"/></g><g id="sprotty_ArchitectureBlockImpl$MEMSyncTop/GenerateStatementBlockImpl$BG/GPortImpl$stalls" class="triangle" transform="translate(194.03125, 304)"><path d="M 0,0 L 5,2.5 L 0,5 Z" transform="translate(-1.67, -2.5)" class="sprotty-port" style="fill:rgb(48, 48, 48);stroke:rgb(48, 48, 48);"/></g></g><g id="sprotty_ArchitectureBlockImpl$MEMSyncTop/AssignmentBlockImpl$stall" class="statement" transform="translate(306.9375, 328)"><rect x="0" y="0" rx="10" ry="5" width="19.71875" height="22" class="sprotty-node" style="fill:rgb(245, 245, 245);stroke:rgb(112, 112, 112);"/><text class="clickable sprotty-label statementtype" id="sprotty_ArchitectureBlockImpl$MEMSyncTop/AssignmentBlockImpl$stall/labeltype" transform="translate(5, 5) translate(4.71875, 9)" style="cursor:default;font-size:8px;font-weight:700;perspective-origin:0.140625px 0px;fill:rgb(112, 112, 112);text-anchor:middle;">&lt;=</text><g id="sprotty_ArchitectureBlockImpl$MEMSyncTop/AssignmentBlockImpl$stall/GPortImpl$stallsIN" class="sprotty-hidden hidden" transform="translate(0, 11)" style="display:block;height:0px;width:0px;"/><g id="sprotty_ArchitectureBlockImpl$MEMSyncTop/AssignmentBlockImpl$stall/GPortImpl$stallOUT" class="sprotty-hidden hidden" transform="translate(19.71875, 11)" style="display:block;height:0px;width:0px;"/></g><g id="sprotty_ArchitectureBlockImpl$MEMSyncTop/BPortImpl$sync" class="triangle" transform="translate(0, 351)"><path d="M 0,0 L 5,2.5 L 0,5 Z" transform="translate(-1.67, -2.5)" class="sprotty-port" style="fill:rgb(48, 48, 48);stroke:rgb(48, 48, 48);"/><text class="clickable sprotty-label port" id="sprotty_ArchitectureBlockImpl$MEMSyncTop/BPortImpl$sync/label" transform="translate(6, 6) translate(12.65625, 14)" style="cursor:default;font-size:12px;perspective-origin:0px 0px;fill:rgb(48, 48, 48);text-anchor:middle;">sync</text></g><g id="sprotty_ArchitectureBlockImpl$MEMSyncTop/BPortImpl$BankFSM" class="triangle" transform="translate(0, 143)"><path d="M 0,0 L 5,2.5 L 0,5 Z" transform="translate(-1.67, -2.5)" class="sprotty-port" style="fill:rgb(48, 48, 48);stroke:rgb(48, 48, 48);"/><text class="clickable sprotty-label port" id="sprotty_ArchitectureBlockImpl$MEMSyncTop/BPortImpl$BankFSM/label" transform="translate(6, 6) translate(25.953125, 14)" style="cursor:default;font-size:12px;perspective-origin:0px 0px;fill:rgb(48, 48, 48);text-anchor:middle;">BankFSM</text></g><g id="sprotty_ArchitectureBlockImpl$MEMSyncTop/BPortImpl$RowId" class="triangle" transform="translate(0, 227)"><path d="M 0,0 L 5,2.5 L 0,5 Z" transform="translate(-1.67, -2.5)" class="sprotty-port" style="fill:rgb(48, 48, 48);stroke:rgb(48, 48, 48);"/><text class="clickable sprotty-label port" id="sprotty_ArchitectureBlockImpl$MEMSyncTop/BPortImpl$RowId/label" transform="translate(6, 6) translate(17.65625, 14)" style="cursor:default;font-size:12px;perspective-origin:0px 0px;fill:rgb(48, 48, 48);text-anchor:middle;">RowId</text></g><g id="sprotty_ArchitectureBlockImpl$MEMSyncTop/BPortImpl$reset_n" class="triangle" transform="translate(0, 317)"><path d="M 0,0 L 5,2.5 L 0,5 Z" transform="translate(-1.67, -2.5)" class="sprotty-port" style="fill:rgb(48, 48, 48);stroke:rgb(48, 48, 48);"/><text class="clickable sprotty-label port" id="sprotty_ArchitectureBlockImpl$MEMSyncTop/BPortImpl$reset_n/label" transform="translate(6, 6) translate(20.9375, 14)" style="cursor:default;font-size:12px;perspective-origin:0px 0px;fill:rgb(48, 48, 48);text-anchor:middle;">reset_n</text></g><g id="sprotty_ArchitectureBlockImpl$MEMSyncTop/BPortImpl$clk" class="triangle" transform="translate(0, 283)"><path d="M 0,0 L 5,2.5 L 0,5 Z" transform="translate(-1.67, -2.5)" class="sprotty-port" style="fill:rgb(48, 48, 48);stroke:rgb(48, 48, 48);"/><text class="clickable sprotty-label port" id="sprotty_ArchitectureBlockImpl$MEMSyncTop/BPortImpl$clk/label" transform="translate(6, 6) translate(8.078125, 14)" style="cursor:default;font-size:12px;perspective-origin:0.1875px 0px;fill:rgb(48, 48, 48);text-anchor:middle;">clk</text></g><g id="sprotty_ArchitectureBlockImpl$MEMSyncTop/BPortImpl$cRowId" class="triangle" transform="translate(389.0625, 143)"><path d="M 0,0 L 5,2.5 L 0,5 Z" transform="translate(-1.67, -2.5)" class="sprotty-port" style="fill:rgb(48, 48, 48);stroke:rgb(48, 48, 48);"/><text class="clickable sprotty-label port" id="sprotty_ArchitectureBlockImpl$MEMSyncTop/BPortImpl$cRowId/label" transform="translate(-47.40625, 6) translate(20.703125, 14)" style="cursor:default;font-size:12px;perspective-origin:0px 0px;fill:rgb(48, 48, 48);text-anchor:middle;">cRowId</text></g><g id="sprotty_ArchitectureBlockImpl$MEMSyncTop/BPortImpl$stall" class="triangle" transform="translate(389.0625, 339)"><path d="M 0,0 L 5,2.5 L 0,5 Z" transform="translate(-1.67, -2.5)" class="sprotty-port" style="fill:rgb(48, 48, 48);stroke:rgb(48, 48, 48);"/><text class="clickable sprotty-label port" id="sprotty_ArchitectureBlockImpl$MEMSyncTop/BPortImpl$stall/label" transform="translate(-29.21875, 6) translate(11.609375, 14)" style="cursor:default;font-size:12px;perspective-origin:0px 0px;fill:rgb(48, 48, 48);text-anchor:middle;">stall</text></g></g></g></svg>