<svg xmlns="http://www.w3.org/2000/svg" id="sprotty_s_pimulator.bank_array" class="sprotty-graph sprotty-block-diagram blockdiagram" style="font-family:&quot;Noto Sans&quot;, Helvetica, Arial, sans-serif;-webkit-locale:&quot;en&quot;;perspective-origin:0px 0px;transform-origin:0px 0px;" version="1.1" viewBox="7 7 225.703125 186" width="225.703125" height="186"><g transform="scale(1) translate(0,0)"><g id="sprotty_ArchitectureBlockImpl$bank_array" class="architecture" transform="translate(12, 12)"><g class="sprotty-block" style="fill:rgb(255, 255, 255);stroke:rgb(48, 48, 48);stroke-dasharray:0px;"><rect x="0" y="0" rx="1" ry="1" width="215.703125" height="176"/><text x="107.8515625" y="12" class="sprotty-block-name" style="cursor:pointer;font-weight:700;perspective-origin:107.844px 0px;fill:rgb(48, 48, 48);stroke:rgba(0, 0, 0, 0);dominant-baseline:middle;text-anchor:middle;">bank_array</text><line x1="0" y1="20" x2="215.703125" y2="20"/></g><g id="sprotty_ArchitectureBlockImpl$bank_array/AlwaysBlockImpl$null5/GPortImpl$addrOUT_to_ArchitectureBlockImpl$bank_array/BPortImpl$addr" class="sprotty-edge thick edge" style="fill:none;stroke:rgb(112, 112, 112);stroke-linejoin:round;stroke-width:3px;"><g><path d="M 135.671875 65.66666666666667 L 143.671875 65.66666666666667 C 144.671875 65.66666666666667 145.671875 64.66666666666667 145.671875 63.66666666666667 L 145.671875 37 C 145.671875 36 144.671875 35 143.671875 35 L 0 35 "/><path d="M 135.671875 65.66666666666667 L 143.671875 65.66666666666667 C 144.671875 65.66666666666667 145.671875 64.66666666666667 145.671875 63.66666666666667 L 145.671875 37 C 145.671875 36 144.671875 35 143.671875 35 L 0 35 " class="clickable"/></g></g><g id="sprotty_ArchitectureBlockImpl$bank_array/AlwaysBlockImpl$null5/GPortImpl$o_dataOUT_to_ArchitectureBlockImpl$bank_array/BPortImpl$o_data" class="sprotty-edge thick edge" style="fill:none;stroke:rgb(112, 112, 112);stroke-linejoin:round;stroke-width:3px;"><g><path d="M 135.671875 82.33333333333334 L 215.703125 82.33333333333334 "/><path d="M 135.671875 82.33333333333334 L 215.703125 82.33333333333334 " class="clickable"/></g></g><g id="sprotty_ArchitectureBlockImpl$bank_array/BPortImpl$clk_to_ArchitectureBlockImpl$bank_array/AlwaysBlockImpl$null5/GPortImpl$clkIN" class="sprotty-edge edge" style="fill:none;stroke:rgb(112, 112, 112);stroke-linejoin:round;"><g><path d="M 0 137 L 86.28125 137 C 87.28125 137 88.28125 136 88.28125 135 L 88.28125 91 C 88.28125 90 89.28125 89 90.28125 89 L 98.28125 89 "/><path d="M 0 137 L 86.28125 137 C 87.28125 137 88.28125 136 88.28125 135 L 88.28125 91 C 88.28125 90 89.28125 89 90.28125 89 L 98.28125 89 " class="clickable"/></g></g><g id="sprotty_ArchitectureBlockImpl$bank_array/BPortImpl$rd_o_wr_to_ArchitectureBlockImpl$bank_array/AlwaysBlockImpl$null5/GPortImpl$rd_o_wrIN" class="sprotty-edge edge" style="fill:none;stroke:rgb(112, 112, 112);stroke-linejoin:round;"><g><path d="M 0 69 L 98.28125 69 "/><path d="M 0 69 L 98.28125 69 " class="clickable"/></g></g><g id="sprotty_ArchitectureBlockImpl$bank_array/BPortImpl$i_data_to_ArchitectureBlockImpl$bank_array/AlwaysBlockImpl$null5/GPortImpl$i_dataIN" class="sprotty-edge thick edge" style="fill:none;stroke:rgb(112, 112, 112);stroke-linejoin:round;stroke-width:3px;"><g><path d="M 0 103 L 76.28125 103 C 77.28125 103 78.28125 102 78.28125 101 L 78.28125 81 C 78.28125 80 79.28125 79 80.28125 79 L 98.28125 79 "/><path d="M 0 103 L 76.28125 103 C 77.28125 103 78.28125 102 78.28125 101 L 78.28125 81 C 78.28125 80 79.28125 79 80.28125 79 L 98.28125 79 " class="clickable"/></g></g><g id="sprotty_ArchitectureBlockImpl$bank_array/BPortImpl$addr_to_ArchitectureBlockImpl$bank_array/AlwaysBlockImpl$null5/GPortImpl$addrIN" class="sprotty-edge thick edge" style="fill:none;stroke:rgb(112, 112, 112);stroke-linejoin:round;stroke-width:3px;"><g><path d="M 0 35 L 76.28125 35 C 77.28125 35 78.28125 36 78.28125 37 L 78.28125 57 C 78.28125 58 79.28125 59 80.28125 59 L 98.28125 59 "/><path d="M 0 35 L 76.28125 35 C 77.28125 35 78.28125 36 78.28125 37 L 78.28125 57 C 78.28125 58 79.28125 59 80.28125 59 L 98.28125 59 " class="clickable"/></g><circle r="3" id="sprotty_ArchitectureBlockImpl$bank_array/BPortImpl$addr_to_ArchitectureBlockImpl$bank_array/AlwaysBlockImpl$null5/GPortImpl$addrIN/junction0" transform="translate(78.28125, 35)" class="sprotty-junction thick" style="fill:rgb(112, 112, 112);stroke:none;"/></g><g id="sprotty_ArchitectureBlockImpl$bank_array/AlwaysBlockImpl$null5" class="statement" transform="translate(98.28125, 49)"><rect x="0" y="0" rx="10" ry="5" width="37.390625" height="50" class="sprotty-node" style="fill:rgb(245, 245, 245);stroke:rgb(112, 112, 112);"/><text class="clickable sprotty-label statementtype" id="sprotty_ArchitectureBlockImpl$bank_array/AlwaysBlockImpl$null5/labeltype" transform="translate(5, 19) translate(13.671875, 9)" style="cursor:default;font-size:8px;font-weight:700;perspective-origin:0.015625px 0px;fill:rgb(112, 112, 112);text-anchor:middle;">always</text><g id="sprotty_ArchitectureBlockImpl$bank_array/AlwaysBlockImpl$null5/GPortImpl$addrIN" class="sprotty-hidden hidden" transform="translate(0, 10)" style="display:block;height:0px;width:0px;"/><g id="sprotty_ArchitectureBlockImpl$bank_array/AlwaysBlockImpl$null5/GPortImpl$i_dataIN" class="sprotty-hidden hidden" transform="translate(0, 30)" style="display:block;height:0px;width:0px;"/><g id="sprotty_ArchitectureBlockImpl$bank_array/AlwaysBlockImpl$null5/GPortImpl$rd_o_wrIN" class="sprotty-hidden hidden" transform="translate(0, 20)" style="display:block;height:0px;width:0px;"/><g id="sprotty_ArchitectureBlockImpl$bank_array/AlwaysBlockImpl$null5/GPortImpl$clkIN" class="sprotty-hidden hidden" transform="translate(0, 40)" style="display:block;height:0px;width:0px;"/><g id="sprotty_ArchitectureBlockImpl$bank_array/AlwaysBlockImpl$null5/GPortImpl$addrOUT" class="sprotty-hidden hidden" transform="translate(37.390625, 16.666666666666668)" style="display:block;height:0px;width:0px;"/><g id="sprotty_ArchitectureBlockImpl$bank_array/AlwaysBlockImpl$null5/GPortImpl$o_dataOUT" class="sprotty-hidden hidden" transform="translate(37.390625, 33.333333333333336)" style="display:block;height:0px;width:0px;"/></g><g id="sprotty_ArchitectureBlockImpl$bank_array/BPortImpl$i_data" class="triangle" transform="translate(0, 103)"><path d="M 0,0 L 5,2.5 L 0,5 Z" transform="translate(-1.67, -2.5)" class="sprotty-port" style="fill:rgb(48, 48, 48);stroke:rgb(48, 48, 48);"/><text class="clickable sprotty-label port" id="sprotty_ArchitectureBlockImpl$bank_array/BPortImpl$i_data/label" transform="translate(6, 6) translate(17.53125, 14)" style="cursor:default;font-size:12px;perspective-origin:0px 0px;fill:rgb(48, 48, 48);text-anchor:middle;">i_data</text></g><g id="sprotty_ArchitectureBlockImpl$bank_array/BPortImpl$rd_o_wr" class="triangle" transform="translate(0, 69)"><path d="M 0,0 L 5,2.5 L 0,5 Z" transform="translate(-1.67, -2.5)" class="sprotty-port" style="fill:rgb(48, 48, 48);stroke:rgb(48, 48, 48);"/><text class="clickable sprotty-label port" id="sprotty_ArchitectureBlockImpl$bank_array/BPortImpl$rd_o_wr/label" transform="translate(6, 6) translate(23.46875, 14)" style="cursor:default;font-size:12px;perspective-origin:0.171875px 0px;fill:rgb(48, 48, 48);text-anchor:middle;">rd_o_wr</text></g><g id="sprotty_ArchitectureBlockImpl$bank_array/BPortImpl$addr" class="triangle" transform="translate(0, 35)"><path d="M 0,0 L 5,2.5 L 0,5 Z" transform="translate(-1.67, -2.5)" class="sprotty-port" style="fill:rgb(48, 48, 48);stroke:rgb(48, 48, 48);"/><text class="clickable sprotty-label port" id="sprotty_ArchitectureBlockImpl$bank_array/BPortImpl$addr/label" transform="translate(6, 6) translate(13.15625, 14)" style="cursor:default;font-size:12px;perspective-origin:0.171875px 0px;fill:rgb(48, 48, 48);text-anchor:middle;">addr</text></g><g id="sprotty_ArchitectureBlockImpl$bank_array/BPortImpl$clk" class="triangle" transform="translate(0, 137)"><path d="M 0,0 L 5,2.5 L 0,5 Z" transform="translate(-1.67, -2.5)" class="sprotty-port" style="fill:rgb(48, 48, 48);stroke:rgb(48, 48, 48);"/><text class="clickable sprotty-label port" id="sprotty_ArchitectureBlockImpl$bank_array/BPortImpl$clk/label" transform="translate(6, 6) translate(8.078125, 14)" style="cursor:default;font-size:12px;perspective-origin:0.1875px 0px;fill:rgb(48, 48, 48);text-anchor:middle;">clk</text></g><g id="sprotty_ArchitectureBlockImpl$bank_array/BPortImpl$o_data" class="triangle" transform="translate(215.703125, 82.33333333333334)"><path d="M 0,0 L 5,2.5 L 0,5 Z" transform="translate(-1.67, -2.5)" class="sprotty-port" style="fill:rgb(48, 48, 48);stroke:rgb(48, 48, 48);"/><text class="clickable sprotty-label port" id="sprotty_ArchitectureBlockImpl$bank_array/BPortImpl$o_data/label" transform="translate(-45.03125, 6) translate(19.515625, 14)" style="cursor:default;font-size:12px;perspective-origin:0px 0px;fill:rgb(48, 48, 48);text-anchor:middle;">o_data</text></g></g></g></svg>