<svg xmlns="http://www.w3.org/2000/svg" id="sprotty_s_pimulator.BankGroup" class="sprotty-graph sprotty-block-diagram blockdiagram" style="font-family:&quot;Noto Sans&quot;, Helvetica, Arial, sans-serif;-webkit-locale:&quot;en&quot;;perspective-origin:0px 0px;transform-origin:0px 0px;" version="1.1" viewBox="7 7 290.296875 278" width="290.296875" height="278"><g transform="scale(1) translate(0,0)"><g id="sprotty_ArchitectureBlockImpl$BankGroup" class="architecture" transform="translate(12, 12)"><g class="sprotty-block" style="fill:rgb(255, 255, 255);stroke:rgb(48, 48, 48);stroke-dasharray:0px;"><rect x="0" y="0" rx="1" ry="1" width="280.296875" height="268"/><text x="140.1484375" y="12" class="sprotty-block-name" style="cursor:pointer;font-weight:700;perspective-origin:140.141px 0px;fill:rgb(48, 48, 48);stroke:rgba(0, 0, 0, 0);dominant-baseline:middle;text-anchor:middle;">BankGroup</text><line x1="0" y1="20" x2="280.296875" y2="20"/></g><g id="sprotty_ArchitectureBlockImpl$BankGroup/GenerateStatementBlockImpl$B/GPortImpl$dqout_to_ArchitectureBlockImpl$BankGroup/BPortImpl$dqout" class="sprotty-edge thick edge" style="fill:none;stroke:rgb(112, 112, 112);stroke-linejoin:round;stroke-width:3px;"><g><path d="M 224.84375 164 L 280.296875 164 "/><path d="M 224.84375 164 L 280.296875 164 " class="clickable"/></g></g><g id="sprotty_ArchitectureBlockImpl$BankGroup/BPortImpl$clk_to_ArchitectureBlockImpl$BankGroup/GenerateStatementBlockImpl$B/GPortImpl$clk" class="sprotty-edge edge" style="fill:none;stroke:rgb(112, 112, 112);stroke-linejoin:round;"><g><path d="M 0 84 L 76.28125 84 C 77.28125 84 78.28125 85 78.28125 86 L 78.28125 106 C 78.28125 107 79.28125 108 80.28125 108 L 88.28125 108 "/><path d="M 0 84 L 76.28125 84 C 77.28125 84 78.28125 85 78.28125 86 L 78.28125 106 C 78.28125 107 79.28125 108 80.28125 108 L 88.28125 108 " class="clickable"/></g></g><g id="sprotty_ArchitectureBlockImpl$BankGroup/BPortImpl$rd_o_wr_to_ArchitectureBlockImpl$BankGroup/GenerateStatementBlockImpl$B/GPortImpl$rd_o_wr" class="sprotty-edge thick edge" style="fill:none;stroke:rgb(112, 112, 112);stroke-linejoin:round;stroke-width:3px;"><g><path d="M 0 118 L 76.28125 118 C 77.28125 118 78.28125 119 78.28125 120 L 78.28125 134 C 78.28125 135 79.28125 136 80.28125 136 L 88.28125 136 "/><path d="M 0 118 L 76.28125 118 C 77.28125 118 78.28125 119 78.28125 120 L 78.28125 134 C 78.28125 135 79.28125 136 80.28125 136 L 88.28125 136 " class="clickable"/></g></g><g id="sprotty_ArchitectureBlockImpl$BankGroup/BPortImpl$dqin_to_ArchitectureBlockImpl$BankGroup/GenerateStatementBlockImpl$B/GPortImpl$dqin" class="sprotty-edge thick edge" style="fill:none;stroke:rgb(112, 112, 112);stroke-linejoin:round;stroke-width:3px;"><g><path d="M 0 152 L 76.28125 152 C 77.28125 152 78.28125 153 78.28125 154 L 78.28125 162 C 78.28125 163 79.28125 164 80.28125 164 L 88.28125 164 "/><path d="M 0 152 L 76.28125 152 C 77.28125 152 78.28125 153 78.28125 154 L 78.28125 162 C 78.28125 163 79.28125 164 80.28125 164 L 88.28125 164 " class="clickable"/></g></g><g id="sprotty_ArchitectureBlockImpl$BankGroup/BPortImpl$row_to_ArchitectureBlockImpl$BankGroup/GenerateStatementBlockImpl$B/GPortImpl$row" class="sprotty-edge thick edge" style="fill:none;stroke:rgb(112, 112, 112);stroke-linejoin:round;stroke-width:3px;"><g><path d="M 0 186 L 76.28125 186 C 77.28125 186 78.28125 187 78.28125 188 L 78.28125 190 C 78.28125 191 79.28125 192 80.28125 192 L 88.28125 192 "/><path d="M 0 186 L 76.28125 186 C 77.28125 186 78.28125 187 78.28125 188 L 78.28125 190 C 78.28125 191 79.28125 192 80.28125 192 L 88.28125 192 " class="clickable"/></g></g><g id="sprotty_ArchitectureBlockImpl$BankGroup/BPortImpl$column_to_ArchitectureBlockImpl$BankGroup/GenerateStatementBlockImpl$B/GPortImpl$column" class="sprotty-edge thick edge" style="fill:none;stroke:rgb(112, 112, 112);stroke-linejoin:round;stroke-width:3px;"><g><path d="M 0 220 L 88.28125 220 "/><path d="M 0 220 L 88.28125 220 " class="clickable"/></g></g><g id="sprotty_ArchitectureBlockImpl$BankGroup/GenerateStatementBlockImpl$B" class="generate" transform="translate(88.28125, 35)"><g class="sprotty-block sprotty-block-generate" style="fill:rgb(255, 255, 255);stroke:rgb(48, 48, 48);stroke-dasharray:0px;"><rect x="0" y="0" rx="1" ry="1" width="136.5625" height="218" style="stroke-dasharray:3px, 1px;"/><text x="68.28125" y="12" class="sprotty-block-name" style="cursor:pointer;font-weight:700;perspective-origin:68.3281px 0px;fill:rgb(48, 48, 48);stroke:rgba(0, 0, 0, 0);dominant-baseline:middle;text-anchor:middle;">B</text><line x1="0" y1="20" x2="136.5625" y2="20" style="stroke-dasharray:3px, 1px;"/></g><g id="sprotty_ArchitectureBlockImpl$BankGroup/GenerateStatementBlockImpl$B/InstantiationBlockImpl$Bi/BPortImpl$dqout_to_ArchitectureBlockImpl$BankGroup/GenerateStatementBlockImpl$B/GPortImpl$dqout" class="sprotty-edge thick edge" style="fill:none;stroke:rgb(112, 112, 112);stroke-linejoin:round;stroke-width:3px;"><g><path d="M 121.5625 129 L 136.5625 129 "/><path d="M 121.5625 129 L 136.5625 129 " class="clickable"/></g></g><g id="sprotty_ArchitectureBlockImpl$BankGroup/GenerateStatementBlockImpl$B/GPortImpl$clk_to_ArchitectureBlockImpl$BankGroup/GenerateStatementBlockImpl$B/InstantiationBlockImpl$Bi/BPortImpl$clk" class="sprotty-edge edge" style="fill:none;stroke:rgb(112, 112, 112);stroke-linejoin:round;"><g><path d="M 0 73 L 15 73 "/><path d="M 0 73 L 15 73 " class="clickable"/></g></g><g id="sprotty_ArchitectureBlockImpl$BankGroup/GenerateStatementBlockImpl$B/GPortImpl$rd_o_wr_to_ArchitectureBlockImpl$BankGroup/GenerateStatementBlockImpl$B/InstantiationBlockImpl$Bi/BPortImpl$rd_o_wr" class="sprotty-edge thick edge" style="fill:none;stroke:rgb(112, 112, 112);stroke-linejoin:round;stroke-width:3px;"><g><path d="M 0 101 L 15 101 "/><path d="M 0 101 L 15 101 " class="clickable"/></g></g><g id="sprotty_ArchitectureBlockImpl$BankGroup/GenerateStatementBlockImpl$B/GPortImpl$dqin_to_ArchitectureBlockImpl$BankGroup/GenerateStatementBlockImpl$B/InstantiationBlockImpl$Bi/BPortImpl$dqin" class="sprotty-edge thick edge" style="fill:none;stroke:rgb(112, 112, 112);stroke-linejoin:round;stroke-width:3px;"><g><path d="M 0 129 L 15 129 "/><path d="M 0 129 L 15 129 " class="clickable"/></g></g><g id="sprotty_ArchitectureBlockImpl$BankGroup/GenerateStatementBlockImpl$B/GPortImpl$row_to_ArchitectureBlockImpl$BankGroup/GenerateStatementBlockImpl$B/InstantiationBlockImpl$Bi/BPortImpl$row" class="sprotty-edge thick edge" style="fill:none;stroke:rgb(112, 112, 112);stroke-linejoin:round;stroke-width:3px;"><g><path d="M 0 157 L 15 157 "/><path d="M 0 157 L 15 157 " class="clickable"/></g></g><g id="sprotty_ArchitectureBlockImpl$BankGroup/GenerateStatementBlockImpl$B/GPortImpl$column_to_ArchitectureBlockImpl$BankGroup/GenerateStatementBlockImpl$B/InstantiationBlockImpl$Bi/BPortImpl$column" class="sprotty-edge thick edge" style="fill:none;stroke:rgb(112, 112, 112);stroke-linejoin:round;stroke-width:3px;"><g><path d="M 0 185 L 15 185 "/><path d="M 0 185 L 15 185 " class="clickable"/></g></g><g id="sprotty_ArchitectureBlockImpl$BankGroup/GenerateStatementBlockImpl$B/InstantiationBlockImpl$Bi" class="instantiation" transform="translate(15, 35)"><g class="sprotty-block" style="fill:rgb(255, 255, 255);stroke:rgb(48, 48, 48);stroke-dasharray:0px;"><rect x="0" y="0" rx="1" ry="1" width="106.5625" height="168"/><text x="53.28125" y="12" class="sprotty-block-name" style="cursor:pointer;font-weight:700;perspective-origin:53.4375px 0px;fill:rgb(48, 48, 48);stroke:rgba(0, 0, 0, 0);dominant-baseline:middle;text-anchor:middle;">Bi : Bank</text><line x1="0" y1="20" x2="106.5625" y2="20"/></g><g id="sprotty_ArchitectureBlockImpl$BankGroup/GenerateStatementBlockImpl$B/InstantiationBlockImpl$Bi/BPortImpl$column" class="triangle" transform="translate(0, 150)"><path d="M 0,0 L 5,2.5 L 0,5 Z" transform="translate(-1.67, -2.5)" class="sprotty-port" style="fill:rgb(48, 48, 48);stroke:rgb(48, 48, 48);"/><text class="clickable sprotty-label port" id="sprotty_ArchitectureBlockImpl$BankGroup/GenerateStatementBlockImpl$B/InstantiationBlockImpl$Bi/BPortImpl$column/label" transform="translate(6, -9) translate(21.125, 14)" style="cursor:default;font-size:12px;perspective-origin:0px 0px;fill:rgb(48, 48, 48);text-anchor:middle;">column</text></g><g id="sprotty_ArchitectureBlockImpl$BankGroup/GenerateStatementBlockImpl$B/InstantiationBlockImpl$Bi/BPortImpl$row" class="triangle" transform="translate(0, 122)"><path d="M 0,0 L 5,2.5 L 0,5 Z" transform="translate(-1.67, -2.5)" class="sprotty-port" style="fill:rgb(48, 48, 48);stroke:rgb(48, 48, 48);"/><text class="clickable sprotty-label port" id="sprotty_ArchitectureBlockImpl$BankGroup/GenerateStatementBlockImpl$B/InstantiationBlockImpl$Bi/BPortImpl$row/label" transform="translate(6, -9) translate(10.6875, 14)" style="cursor:default;font-size:12px;perspective-origin:0.1875px 0px;fill:rgb(48, 48, 48);text-anchor:middle;">row</text></g><g id="sprotty_ArchitectureBlockImpl$BankGroup/GenerateStatementBlockImpl$B/InstantiationBlockImpl$Bi/BPortImpl$dqin" class="triangle" transform="translate(0, 94)"><path d="M 0,0 L 5,2.5 L 0,5 Z" transform="translate(-1.67, -2.5)" class="sprotty-port" style="fill:rgb(48, 48, 48);stroke:rgb(48, 48, 48);"/><text class="clickable sprotty-label port" id="sprotty_ArchitectureBlockImpl$BankGroup/GenerateStatementBlockImpl$B/InstantiationBlockImpl$Bi/BPortImpl$dqin/label" transform="translate(6, -9) translate(12.765625, 14)" style="cursor:default;font-size:12px;perspective-origin:0px 0px;fill:rgb(48, 48, 48);text-anchor:middle;">dqin</text></g><g id="sprotty_ArchitectureBlockImpl$BankGroup/GenerateStatementBlockImpl$B/InstantiationBlockImpl$Bi/BPortImpl$rd_o_wr" class="triangle" transform="translate(0, 66)"><path d="M 0,0 L 5,2.5 L 0,5 Z" transform="translate(-1.67, -2.5)" class="sprotty-port" style="fill:rgb(48, 48, 48);stroke:rgb(48, 48, 48);"/><text class="clickable sprotty-label port" id="sprotty_ArchitectureBlockImpl$BankGroup/GenerateStatementBlockImpl$B/InstantiationBlockImpl$Bi/BPortImpl$rd_o_wr/label" transform="translate(6, -9) translate(23.46875, 14)" style="cursor:default;font-size:12px;perspective-origin:0.171875px 0px;fill:rgb(48, 48, 48);text-anchor:middle;">rd_o_wr</text></g><g id="sprotty_ArchitectureBlockImpl$BankGroup/GenerateStatementBlockImpl$B/InstantiationBlockImpl$Bi/BPortImpl$clk" class="triangle" transform="translate(0, 38)"><path d="M 0,0 L 5,2.5 L 0,5 Z" transform="translate(-1.67, -2.5)" class="sprotty-port" style="fill:rgb(48, 48, 48);stroke:rgb(48, 48, 48);"/><text class="clickable sprotty-label port" id="sprotty_ArchitectureBlockImpl$BankGroup/GenerateStatementBlockImpl$B/InstantiationBlockImpl$Bi/BPortImpl$clk/label" transform="translate(6, -9) translate(8.078125, 14)" style="cursor:default;font-size:12px;perspective-origin:0.1875px 0px;fill:rgb(48, 48, 48);text-anchor:middle;">clk</text></g><g id="sprotty_ArchitectureBlockImpl$BankGroup/GenerateStatementBlockImpl$B/InstantiationBlockImpl$Bi/BPortImpl$dqout" class="triangle" transform="translate(106.5625, 94)"><path d="M 0,0 L 5,2.5 L 0,5 Z" transform="translate(-1.67, -2.5)" class="sprotty-port" style="fill:rgb(48, 48, 48);stroke:rgb(48, 48, 48);"/><text class="clickable sprotty-label port" id="sprotty_ArchitectureBlockImpl$BankGroup/GenerateStatementBlockImpl$B/InstantiationBlockImpl$Bi/BPortImpl$dqout/label" transform="translate(-40.453125, -9) translate(16.984375, 14)" style="cursor:default;font-size:12px;perspective-origin:0.234375px 0px;fill:rgb(48, 48, 48);text-anchor:middle;">dqout</text></g></g><g id="sprotty_ArchitectureBlockImpl$BankGroup/GenerateStatementBlockImpl$B/GPortImpl$column" class="triangle" transform="translate(0, 185)"><path d="M 0,0 L 5,2.5 L 0,5 Z" transform="translate(-1.67, -2.5)" class="sprotty-port" style="fill:rgb(48, 48, 48);stroke:rgb(48, 48, 48);"/></g><g id="sprotty_ArchitectureBlockImpl$BankGroup/GenerateStatementBlockImpl$B/GPortImpl$row" class="triangle" transform="translate(0, 157)"><path d="M 0,0 L 5,2.5 L 0,5 Z" transform="translate(-1.67, -2.5)" class="sprotty-port" style="fill:rgb(48, 48, 48);stroke:rgb(48, 48, 48);"/></g><g id="sprotty_ArchitectureBlockImpl$BankGroup/GenerateStatementBlockImpl$B/GPortImpl$dqin" class="triangle" transform="translate(0, 129)"><path d="M 0,0 L 5,2.5 L 0,5 Z" transform="translate(-1.67, -2.5)" class="sprotty-port" style="fill:rgb(48, 48, 48);stroke:rgb(48, 48, 48);"/></g><g id="sprotty_ArchitectureBlockImpl$BankGroup/GenerateStatementBlockImpl$B/GPortImpl$rd_o_wr" class="triangle" transform="translate(0, 101)"><path d="M 0,0 L 5,2.5 L 0,5 Z" transform="translate(-1.67, -2.5)" class="sprotty-port" style="fill:rgb(48, 48, 48);stroke:rgb(48, 48, 48);"/></g><g id="sprotty_ArchitectureBlockImpl$BankGroup/GenerateStatementBlockImpl$B/GPortImpl$clk" class="triangle" transform="translate(0, 73)"><path d="M 0,0 L 5,2.5 L 0,5 Z" transform="translate(-1.67, -2.5)" class="sprotty-port" style="fill:rgb(48, 48, 48);stroke:rgb(48, 48, 48);"/></g><g id="sprotty_ArchitectureBlockImpl$BankGroup/GenerateStatementBlockImpl$B/GPortImpl$dqout" class="triangle" transform="translate(136.5625, 129)"><path d="M 0,0 L 5,2.5 L 0,5 Z" transform="translate(-1.67, -2.5)" class="sprotty-port" style="fill:rgb(48, 48, 48);stroke:rgb(48, 48, 48);"/></g></g><g id="sprotty_ArchitectureBlockImpl$BankGroup/BPortImpl$column" class="triangle" transform="translate(0, 220)"><path d="M 0,0 L 5,2.5 L 0,5 Z" transform="translate(-1.67, -2.5)" class="sprotty-port" style="fill:rgb(48, 48, 48);stroke:rgb(48, 48, 48);"/><text class="clickable sprotty-label port" id="sprotty_ArchitectureBlockImpl$BankGroup/BPortImpl$column/label" transform="translate(6, 6) translate(21.125, 14)" style="cursor:default;font-size:12px;perspective-origin:0px 0px;fill:rgb(48, 48, 48);text-anchor:middle;">column</text></g><g id="sprotty_ArchitectureBlockImpl$BankGroup/BPortImpl$row" class="triangle" transform="translate(0, 186)"><path d="M 0,0 L 5,2.5 L 0,5 Z" transform="translate(-1.67, -2.5)" class="sprotty-port" style="fill:rgb(48, 48, 48);stroke:rgb(48, 48, 48);"/><text class="clickable sprotty-label port" id="sprotty_ArchitectureBlockImpl$BankGroup/BPortImpl$row/label" transform="translate(6, 6) translate(10.6875, 14)" style="cursor:default;font-size:12px;perspective-origin:0.1875px 0px;fill:rgb(48, 48, 48);text-anchor:middle;">row</text></g><g id="sprotty_ArchitectureBlockImpl$BankGroup/BPortImpl$dqin" class="triangle" transform="translate(0, 152)"><path d="M 0,0 L 5,2.5 L 0,5 Z" transform="translate(-1.67, -2.5)" class="sprotty-port" style="fill:rgb(48, 48, 48);stroke:rgb(48, 48, 48);"/><text class="clickable sprotty-label port" id="sprotty_ArchitectureBlockImpl$BankGroup/BPortImpl$dqin/label" transform="translate(6, 6) translate(12.765625, 14)" style="cursor:default;font-size:12px;perspective-origin:0px 0px;fill:rgb(48, 48, 48);text-anchor:middle;">dqin</text></g><g id="sprotty_ArchitectureBlockImpl$BankGroup/BPortImpl$rd_o_wr" class="triangle" transform="translate(0, 118)"><path d="M 0,0 L 5,2.5 L 0,5 Z" transform="translate(-1.67, -2.5)" class="sprotty-port" style="fill:rgb(48, 48, 48);stroke:rgb(48, 48, 48);"/><text class="clickable sprotty-label port" id="sprotty_ArchitectureBlockImpl$BankGroup/BPortImpl$rd_o_wr/label" transform="translate(6, 6) translate(23.46875, 14)" style="cursor:default;font-size:12px;perspective-origin:0.171875px 0px;fill:rgb(48, 48, 48);text-anchor:middle;">rd_o_wr</text></g><g id="sprotty_ArchitectureBlockImpl$BankGroup/BPortImpl$clk" class="triangle" transform="translate(0, 84)"><path d="M 0,0 L 5,2.5 L 0,5 Z" transform="translate(-1.67, -2.5)" class="sprotty-port" style="fill:rgb(48, 48, 48);stroke:rgb(48, 48, 48);"/><text class="clickable sprotty-label port" id="sprotty_ArchitectureBlockImpl$BankGroup/BPortImpl$clk/label" transform="translate(6, 6) translate(8.078125, 14)" style="cursor:default;font-size:12px;perspective-origin:0.1875px 0px;fill:rgb(48, 48, 48);text-anchor:middle;">clk</text></g><g id="sprotty_ArchitectureBlockImpl$BankGroup/BPortImpl$dqout" class="triangle" transform="translate(280.296875, 164)"><path d="M 0,0 L 5,2.5 L 0,5 Z" transform="translate(-1.67, -2.5)" class="sprotty-port" style="fill:rgb(48, 48, 48);stroke:rgb(48, 48, 48);"/><text class="clickable sprotty-label port" id="sprotty_ArchitectureBlockImpl$BankGroup/BPortImpl$dqout/label" transform="translate(-40.453125, 6) translate(16.984375, 14)" style="cursor:default;font-size:12px;perspective-origin:0.234375px 0px;fill:rgb(48, 48, 48);text-anchor:middle;">dqout</text></g></g></g></svg>