<svg xmlns="http://www.w3.org/2000/svg" id="sprotty_s_pimulator.MEMSync" class="sprotty-graph sprotty-block-diagram blockdiagram" style="font-family:&quot;Noto Sans&quot;, Helvetica, Arial, sans-serif;-webkit-locale:&quot;en&quot;;perspective-origin:0px 0px;transform-origin:0px 0px;" version="1.1" viewBox="7 7 481.46875 371" width="481.46875" height="371"><g transform="scale(1) translate(0,0)"><g id="sprotty_ArchitectureBlockImpl$MEMSync" class="architecture" transform="translate(12, 12)"><g class="sprotty-block" style="fill:rgb(255, 255, 255);stroke:rgb(48, 48, 48);stroke-dasharray:0px;"><rect x="0" y="0" rx="1" ry="1" width="471.46875" height="361"/><text x="235.734375" y="12" class="sprotty-block-name" style="cursor:pointer;font-weight:700;perspective-origin:235.734px 0px;fill:rgb(48, 48, 48);stroke:rgba(0, 0, 0, 0);dominant-baseline:middle;text-anchor:middle;">MEMSync</text><line x1="0" y1="20" x2="471.46875" y2="20"/></g><g id="sprotty_ArchitectureBlockImpl$MEMSync/AlwaysBlockImpl$null14/GPortImpl$cRowIdOUT_to_ArchitectureBlockImpl$MEMSync/BPortImpl$cRowId" class="sprotty-edge thick edge" style="fill:none;stroke:rgb(112, 112, 112);stroke-linejoin:round;stroke-width:3px;"><g><path d="M 357.84375 288 L 365.84375 288 C 366.84375 288 367.84375 289 367.84375 290 L 367.84375 320 C 367.84375 321 368.84375 322 369.84375 322 L 471.46875 322 "/><path d="M 357.84375 288 L 365.84375 288 C 366.84375 288 367.84375 289 367.84375 290 L 367.84375 320 C 367.84375 321 368.84375 322 369.84375 322 L 471.46875 322 " class="clickable"/></g><circle r="3" id="sprotty_ArchitectureBlockImpl$MEMSync/AlwaysBlockImpl$null14/GPortImpl$cRowIdOUT_to_ArchitectureBlockImpl$MEMSync/BPortImpl$cRowId/junction0" transform="translate(367.84375, 322)" class="sprotty-junction thick" style="fill:rgb(112, 112, 112);stroke:none;"/></g><g id="sprotty_ArchitectureBlockImpl$MEMSync/AlwaysBlockImpl$null14/GPortImpl$dirtyOUT_to_ArchitectureBlockImpl$MEMSync/BPortImpl$dirty" class="sprotty-edge edge" style="fill:none;stroke:rgb(112, 112, 112);stroke-linejoin:round;"><g><path d="M 357.84375 238 L 365.84375 238 C 366.84375 238 367.84375 237 367.84375 236 L 367.84375 38 C 367.84375 37 368.84375 36 369.84375 36 L 471.46875 36 "/><path d="M 357.84375 238 L 365.84375 238 C 366.84375 238 367.84375 237 367.84375 236 L 367.84375 38 C 367.84375 37 368.84375 36 369.84375 36 L 471.46875 36 " class="clickable"/></g><circle r="2" id="sprotty_ArchitectureBlockImpl$MEMSync/AlwaysBlockImpl$null14/GPortImpl$dirtyOUT_to_ArchitectureBlockImpl$MEMSync/BPortImpl$dirty/junction0" transform="translate(367.84375, 36)" class="sprotty-junction junction" style="fill:rgb(112, 112, 112);stroke:none;"/></g><g id="sprotty_ArchitectureBlockImpl$MEMSync/AlwaysBlockImpl$null14/GPortImpl$hitOUT_to_ArchitectureBlockImpl$MEMSync/BPortImpl$hit" class="sprotty-edge edge" style="fill:none;stroke:rgb(112, 112, 112);stroke-linejoin:round;"><g><path d="M 357.84375 248 L 375.84375 248 C 376.84375 248 377.84375 247 377.84375 246 L 377.84375 72 C 377.84375 71 378.84375 70 379.84375 70 L 471.46875 70 "/><path d="M 357.84375 248 L 375.84375 248 C 376.84375 248 377.84375 247 377.84375 246 L 377.84375 72 C 377.84375 71 378.84375 70 379.84375 70 L 471.46875 70 " class="clickable"/></g><circle r="2" id="sprotty_ArchitectureBlockImpl$MEMSync/AlwaysBlockImpl$null14/GPortImpl$hitOUT_to_ArchitectureBlockImpl$MEMSync/BPortImpl$hit/junction0" transform="translate(377.84375, 70)" class="sprotty-junction junction" style="fill:rgb(112, 112, 112);stroke:none;"/></g><g id="sprotty_ArchitectureBlockImpl$MEMSync/AlwaysBlockImpl$null14/GPortImpl$nRowIdOUT_to_ArchitectureBlockImpl$MEMSync/BPortImpl$nRowId" class="sprotty-edge thick edge" style="fill:none;stroke:rgb(112, 112, 112);stroke-linejoin:round;stroke-width:3px;"><g><path d="M 357.84375 258 L 385.84375 258 C 386.84375 258 387.84375 257 387.84375 256 L 387.84375 212 C 387.84375 211 388.84375 210 389.84375 210 L 471.46875 210 "/><path d="M 357.84375 258 L 385.84375 258 C 386.84375 258 387.84375 257 387.84375 256 L 387.84375 212 C 387.84375 211 388.84375 210 389.84375 210 L 471.46875 210 " class="clickable"/></g><circle r="3" id="sprotty_ArchitectureBlockImpl$MEMSync/AlwaysBlockImpl$null14/GPortImpl$nRowIdOUT_to_ArchitectureBlockImpl$MEMSync/BPortImpl$nRowId/junction0" transform="translate(387.84375, 210)" class="sprotty-junction thick" style="fill:rgb(112, 112, 112);stroke:none;"/></g><g id="sprotty_ArchitectureBlockImpl$MEMSync/AlwaysBlockImpl$null14/GPortImpl$readyOUT_to_ArchitectureBlockImpl$MEMSync/BPortImpl$ready" class="sprotty-edge edge" style="fill:none;stroke:rgb(112, 112, 112);stroke-linejoin:round;"><g><path d="M 357.84375 268 L 395.84375 268 C 396.84375 268 397.84375 267 397.84375 266 L 397.84375 246 C 397.84375 245 398.84375 244 399.84375 244 L 471.46875 244 "/><path d="M 357.84375 268 L 395.84375 268 C 396.84375 268 397.84375 267 397.84375 266 L 397.84375 246 C 397.84375 245 398.84375 244 399.84375 244 L 471.46875 244 " class="clickable"/></g></g><g id="sprotty_ArchitectureBlockImpl$MEMSync/AlwaysBlockImpl$null14/GPortImpl$stallOUT_to_ArchitectureBlockImpl$MEMSync/BPortImpl$stall" class="sprotty-edge edge" style="fill:none;stroke:rgb(112, 112, 112);stroke-linejoin:round;"><g><path d="M 357.84375 278 L 471.46875 278 "/><path d="M 357.84375 278 L 471.46875 278 " class="clickable"/></g></g><g id="sprotty_ArchitectureBlockImpl$MEMSync/BPortImpl$ACT_to_ArchitectureBlockImpl$MEMSync/AlwaysBlockImpl$null16/GPortImpl$ACTIN" class="sprotty-edge edge" style="fill:none;stroke:rgb(112, 112, 112);stroke-linejoin:round;"><g><path d="M 0 174 L 153.203125 174 C 154.203125 174 155.203125 173 155.203125 172 L 155.203125 152 C 155.203125 151 156.203125 150 157.203125 150 L 205.203125 150 "/><path d="M 0 174 L 153.203125 174 C 154.203125 174 155.203125 173 155.203125 172 L 155.203125 152 C 155.203125 151 156.203125 150 157.203125 150 L 205.203125 150 " class="clickable"/></g></g><g id="sprotty_ArchitectureBlockImpl$MEMSync/BPortImpl$RD_to_ArchitectureBlockImpl$MEMSync/AlwaysBlockImpl$null16/GPortImpl$RDIN" class="sprotty-edge edge" style="fill:none;stroke:rgb(112, 112, 112);stroke-linejoin:round;"><g><path d="M 0 106 L 153.203125 106 C 154.203125 106 155.203125 107 155.203125 108 L 155.203125 128 C 155.203125 129 156.203125 130 157.203125 130 L 205.203125 130 "/><path d="M 0 106 L 153.203125 106 C 154.203125 106 155.203125 107 155.203125 108 L 155.203125 128 C 155.203125 129 156.203125 130 157.203125 130 L 205.203125 130 " class="clickable"/></g></g><g id="sprotty_ArchitectureBlockImpl$MEMSync/BPortImpl$WR_to_ArchitectureBlockImpl$MEMSync/AlwaysBlockImpl$null16/GPortImpl$WRIN" class="sprotty-edge edge" style="fill:none;stroke:rgb(112, 112, 112);stroke-linejoin:round;"><g><path d="M 0 140 L 205.203125 140 "/><path d="M 0 140 L 205.203125 140 " class="clickable"/></g></g><g id="sprotty_ArchitectureBlockImpl$MEMSync/BPortImpl$sync_to_ArchitectureBlockImpl$MEMSync/AlwaysBlockImpl$null16/GPortImpl$syncIN" class="sprotty-edge edge" style="fill:none;stroke:rgb(112, 112, 112);stroke-linejoin:round;"><g><path d="M 0 38 L 173.203125 38 C 174.203125 38 175.203125 39 175.203125 40 L 175.203125 108 C 175.203125 109 176.203125 110 177.203125 110 L 205.203125 110 "/><path d="M 0 38 L 173.203125 38 C 174.203125 38 175.203125 39 175.203125 40 L 175.203125 108 C 175.203125 109 176.203125 110 177.203125 110 L 205.203125 110 " class="clickable"/></g></g><g id="sprotty_ArchitectureBlockImpl$MEMSync/BPortImpl$hit_to_ArchitectureBlockImpl$MEMSync/AlwaysBlockImpl$null16/GPortImpl$hitIN" class="sprotty-edge edge" style="fill:none;stroke:rgb(112, 112, 112);stroke-linejoin:round;"><g><path d="M 471.46875 70 L 197.203125 70 C 196.203125 70 195.203125 71 195.203125 72 L 195.203125 88 C 195.203125 89 196.203125 90 197.203125 90 L 205.203125 90 "/><path d="M 471.46875 70 L 197.203125 70 C 196.203125 70 195.203125 71 195.203125 72 L 195.203125 88 C 195.203125 89 196.203125 90 197.203125 90 L 205.203125 90 " class="clickable"/></g></g><g id="sprotty_ArchitectureBlockImpl$MEMSync/BPortImpl$PR_to_ArchitectureBlockImpl$MEMSync/AlwaysBlockImpl$null16/GPortImpl$PRIN" class="sprotty-edge edge" style="fill:none;stroke:rgb(112, 112, 112);stroke-linejoin:round;"><g><path d="M 0 72 L 163.203125 72 C 164.203125 72 165.203125 73 165.203125 74 L 165.203125 118 C 165.203125 119 166.203125 120 167.203125 120 L 205.203125 120 "/><path d="M 0 72 L 163.203125 72 C 164.203125 72 165.203125 73 165.203125 74 L 165.203125 118 C 165.203125 119 166.203125 120 167.203125 120 L 205.203125 120 " class="clickable"/></g></g><g id="sprotty_ArchitectureBlockImpl$MEMSync/BPortImpl$dirty_to_ArchitectureBlockImpl$MEMSync/AlwaysBlockImpl$null16/GPortImpl$dirtyIN" class="sprotty-edge edge" style="fill:none;stroke:rgb(112, 112, 112);stroke-linejoin:round;"><g><path d="M 471.46875 36 L 187.203125 36 C 186.203125 36 185.203125 37 185.203125 38 L 185.203125 98 C 185.203125 99 186.203125 100 187.203125 100 L 205.203125 100 "/><path d="M 471.46875 36 L 187.203125 36 C 186.203125 36 185.203125 37 185.203125 38 L 185.203125 98 C 185.203125 99 186.203125 100 187.203125 100 L 205.203125 100 " class="clickable"/></g></g><g id="sprotty_ArchitectureBlockImpl$MEMSync/BPortImpl$clk_to_ArchitectureBlockImpl$MEMSync/AlwaysBlockImpl$null15/GPortImpl$clkIN" class="sprotty-edge edge" style="fill:none;stroke:rgb(112, 112, 112);stroke-linejoin:round;"><g><path d="M 0 244 L 64.3125 244 C 65.3125 244 66.3125 243 66.3125 242 L 66.3125 198 C 66.3125 197 67.3125 196 68.3125 196 L 96.3125 196 "/><path d="M 0 244 L 64.3125 244 C 65.3125 244 66.3125 243 66.3125 242 L 66.3125 198 C 66.3125 197 67.3125 196 68.3125 196 L 96.3125 196 " class="clickable"/></g><circle r="2" id="sprotty_ArchitectureBlockImpl$MEMSync/BPortImpl$clk_to_ArchitectureBlockImpl$MEMSync/AlwaysBlockImpl$null15/GPortImpl$clkIN/junction0" transform="translate(66.3125, 244)" class="sprotty-junction junction" style="fill:rgb(112, 112, 112);stroke:none;"/></g><g id="sprotty_ArchitectureBlockImpl$MEMSync/BPortImpl$rst_to_ArchitectureBlockImpl$MEMSync/AlwaysBlockImpl$null15/GPortImpl$rstIN" class="sprotty-edge edge" style="fill:none;stroke:rgb(112, 112, 112);stroke-linejoin:round;"><g><path d="M 0 278 L 74.3125 278 C 75.3125 278 76.3125 277 76.3125 276 L 76.3125 208 C 76.3125 207 77.3125 206 78.3125 206 L 96.3125 206 "/><path d="M 0 278 L 74.3125 278 C 75.3125 278 76.3125 277 76.3125 276 L 76.3125 208 C 76.3125 207 77.3125 206 78.3125 206 L 96.3125 206 " class="clickable"/></g><circle r="2" id="sprotty_ArchitectureBlockImpl$MEMSync/BPortImpl$rst_to_ArchitectureBlockImpl$MEMSync/AlwaysBlockImpl$null15/GPortImpl$rstIN/junction0" transform="translate(76.3125, 278)" class="sprotty-junction junction" style="fill:rgb(112, 112, 112);stroke:none;"/></g><g id="sprotty_ArchitectureBlockImpl$MEMSync/BPortImpl$clk_to_ArchitectureBlockImpl$MEMSync/AlwaysBlockImpl$null14/GPortImpl$clkIN" class="sprotty-edge edge" style="fill:none;stroke:rgb(112, 112, 112);stroke-linejoin:round;"><g><path d="M 0 244 L 276.953125 244 C 277.953125 244 278.953125 245 278.953125 246 L 278.953125 256 C 278.953125 257 279.953125 258 280.953125 258 L 308.953125 258 "/><path d="M 0 244 L 276.953125 244 C 277.953125 244 278.953125 245 278.953125 246 L 278.953125 256 C 278.953125 257 279.953125 258 280.953125 258 L 308.953125 258 " class="clickable"/></g></g><g id="sprotty_ArchitectureBlockImpl$MEMSync/BPortImpl$rst_to_ArchitectureBlockImpl$MEMSync/AlwaysBlockImpl$null14/GPortImpl$rstIN" class="sprotty-edge edge" style="fill:none;stroke:rgb(112, 112, 112);stroke-linejoin:round;"><g><path d="M 0 278 L 308.953125 278 "/><path d="M 0 278 L 308.953125 278 " class="clickable"/></g></g><g id="sprotty_ArchitectureBlockImpl$MEMSync/BPortImpl$cRowId_to_ArchitectureBlockImpl$MEMSync/AlwaysBlockImpl$null14/GPortImpl$cRowIdIN" class="sprotty-edge thick edge" style="fill:none;stroke:rgb(112, 112, 112);stroke-linejoin:round;stroke-width:3px;"><g><path d="M 471.46875 322 L 300.953125 322 C 299.953125 322 298.953125 321 298.953125 320 L 298.953125 290 C 298.953125 289 299.953125 288 300.953125 288 L 308.953125 288 "/><path d="M 471.46875 322 L 300.953125 322 C 299.953125 322 298.953125 321 298.953125 320 L 298.953125 290 C 298.953125 289 299.953125 288 300.953125 288 L 308.953125 288 " class="clickable"/></g></g><g id="sprotty_ArchitectureBlockImpl$MEMSync/BPortImpl$nRowId_to_ArchitectureBlockImpl$MEMSync/AlwaysBlockImpl$null14/GPortImpl$nRowIdIN" class="sprotty-edge thick edge" style="fill:none;stroke:rgb(112, 112, 112);stroke-linejoin:round;stroke-width:3px;"><g><path d="M 471.46875 210 L 300.953125 210 C 299.953125 210 298.953125 211 298.953125 212 L 298.953125 236 C 298.953125 237 299.953125 238 300.953125 238 L 308.953125 238 "/><path d="M 471.46875 210 L 300.953125 210 C 299.953125 210 298.953125 211 298.953125 212 L 298.953125 236 C 298.953125 237 299.953125 238 300.953125 238 L 308.953125 238 " class="clickable"/></g></g><g id="sprotty_ArchitectureBlockImpl$MEMSync/BPortImpl$RowId_to_ArchitectureBlockImpl$MEMSync/AlwaysBlockImpl$null14/GPortImpl$RowIdIN" class="sprotty-edge thick edge" style="fill:none;stroke:rgb(112, 112, 112);stroke-linejoin:round;stroke-width:3px;"><g><path d="M 0 312 L 84.3125 312 C 85.3125 312 86.3125 311 86.3125 310 L 86.3125 270 C 86.3125 269 87.3125 268 88.3125 268 L 308.953125 268 "/><path d="M 0 312 L 84.3125 312 C 85.3125 312 86.3125 311 86.3125 310 L 86.3125 270 C 86.3125 269 87.3125 268 88.3125 268 L 308.953125 268 " class="clickable"/></g></g><g id="sprotty_ArchitectureBlockImpl$MEMSync/AlwaysBlockImpl$null15/GPortImpl$stateOUT_to_ArchitectureBlockImpl$MEMSync/AlwaysBlockImpl$null16/GPortImpl$stateIN" class="sprotty-edge thick edge" style="fill:none;stroke:rgb(112, 112, 112);stroke-linejoin:round;stroke-width:3px;"><g><path d="M 145.203125 206 L 163.203125 206 C 164.203125 206 165.203125 205 165.203125 204 L 165.203125 162 C 165.203125 161 166.203125 160 167.203125 160 L 205.203125 160 "/><path d="M 145.203125 206 L 163.203125 206 C 164.203125 206 165.203125 205 165.203125 204 L 165.203125 162 C 165.203125 161 166.203125 160 167.203125 160 L 205.203125 160 " class="clickable"/></g></g><g id="sprotty_ArchitectureBlockImpl$MEMSync/AlwaysBlockImpl$null16/GPortImpl$nextstateOUT_to_ArchitectureBlockImpl$MEMSync/AlwaysBlockImpl$null15/GPortImpl$nextstateIN" class="sprotty-edge thick edge" style="fill:none;stroke:rgb(112, 112, 112);stroke-linejoin:round;stroke-width:3px;"><g><path d="M 268.953125 125 L 286.953125 125 C 287.953125 125 288.953125 126 288.953125 127 L 288.953125 234 C 288.953125 235 287.953125 236 286.953125 236 L 88.3125 236 C 87.3125 236 86.3125 235 86.3125 234 L 86.3125 218 C 86.3125 217 87.3125 216 88.3125 216 L 96.3125 216 "/><path d="M 268.953125 125 L 286.953125 125 C 287.953125 125 288.953125 126 288.953125 127 L 288.953125 234 C 288.953125 235 287.953125 236 286.953125 236 L 88.3125 236 C 87.3125 236 86.3125 235 86.3125 234 L 86.3125 218 C 86.3125 217 87.3125 216 88.3125 216 L 96.3125 216 " class="clickable"/></g><circle r="3" id="sprotty_ArchitectureBlockImpl$MEMSync/AlwaysBlockImpl$null16/GPortImpl$nextstateOUT_to_ArchitectureBlockImpl$MEMSync/AlwaysBlockImpl$null15/GPortImpl$nextstateIN/junction0" transform="translate(288.953125, 236)" class="sprotty-junction thick" style="fill:rgb(112, 112, 112);stroke:none;"/></g><g id="sprotty_ArchitectureBlockImpl$MEMSync/AlwaysBlockImpl$null16/GPortImpl$nextstateOUT_to_ArchitectureBlockImpl$MEMSync/AlwaysBlockImpl$null14/GPortImpl$nextstateIN" class="sprotty-edge thick edge" style="fill:none;stroke:rgb(112, 112, 112);stroke-linejoin:round;stroke-width:3px;"><g><path d="M 268.953125 125 L 286.953125 125 C 287.953125 125 288.953125 126 288.953125 127 L 288.953125 246 C 288.953125 247 289.953125 248 290.953125 248 L 308.953125 248 "/><path d="M 268.953125 125 L 286.953125 125 C 287.953125 125 288.953125 126 288.953125 127 L 288.953125 246 C 288.953125 247 289.953125 248 290.953125 248 L 308.953125 248 " class="clickable"/></g></g><g id="sprotty_ArchitectureBlockImpl$MEMSync/AlwaysBlockImpl$null14" class="statement" transform="translate(308.953125, 228)"><rect x="0" y="0" rx="10" ry="5" width="48.890625" height="70" class="sprotty-node" style="fill:rgb(245, 245, 245);stroke:rgb(112, 112, 112);"/><text class="clickable sprotty-label statementtype" id="sprotty_ArchitectureBlockImpl$MEMSync/AlwaysBlockImpl$null14/labeltype" transform="translate(5, 29) translate(18.828125, 9)" style="cursor:default;font-size:8px;font-weight:700;perspective-origin:0.609375px 0px;fill:rgb(112, 112, 112);text-anchor:middle;">always_ff</text><g id="sprotty_ArchitectureBlockImpl$MEMSync/AlwaysBlockImpl$null14/GPortImpl$RowIdIN" class="sprotty-hidden hidden" transform="translate(0, 40)" style="display:block;height:0px;width:0px;"/><g id="sprotty_ArchitectureBlockImpl$MEMSync/AlwaysBlockImpl$null14/GPortImpl$nextstateIN" class="sprotty-hidden hidden" transform="translate(0, 20)" style="display:block;height:0px;width:0px;"/><g id="sprotty_ArchitectureBlockImpl$MEMSync/AlwaysBlockImpl$null14/GPortImpl$nRowIdIN" class="sprotty-hidden hidden" transform="translate(0, 10)" style="display:block;height:0px;width:0px;"/><g id="sprotty_ArchitectureBlockImpl$MEMSync/AlwaysBlockImpl$null14/GPortImpl$cRowIdIN" class="sprotty-hidden hidden" transform="translate(0, 60)" style="display:block;height:0px;width:0px;"/><g id="sprotty_ArchitectureBlockImpl$MEMSync/AlwaysBlockImpl$null14/GPortImpl$rstIN" class="sprotty-hidden hidden" transform="translate(0, 50)" style="display:block;height:0px;width:0px;"/><g id="sprotty_ArchitectureBlockImpl$MEMSync/AlwaysBlockImpl$null14/GPortImpl$clkIN" class="sprotty-hidden hidden" transform="translate(0, 30)" style="display:block;height:0px;width:0px;"/><g id="sprotty_ArchitectureBlockImpl$MEMSync/AlwaysBlockImpl$null14/GPortImpl$cRowIdOUT" class="sprotty-hidden hidden" transform="translate(48.890625, 60)" style="display:block;height:0px;width:0px;"/><g id="sprotty_ArchitectureBlockImpl$MEMSync/AlwaysBlockImpl$null14/GPortImpl$dirtyOUT" class="sprotty-hidden hidden" transform="translate(48.890625, 10)" style="display:block;height:0px;width:0px;"/><g id="sprotty_ArchitectureBlockImpl$MEMSync/AlwaysBlockImpl$null14/GPortImpl$hitOUT" class="sprotty-hidden hidden" transform="translate(48.890625, 20)" style="display:block;height:0px;width:0px;"/><g id="sprotty_ArchitectureBlockImpl$MEMSync/AlwaysBlockImpl$null14/GPortImpl$nRowIdOUT" class="sprotty-hidden hidden" transform="translate(48.890625, 30)" style="display:block;height:0px;width:0px;"/><g id="sprotty_ArchitectureBlockImpl$MEMSync/AlwaysBlockImpl$null14/GPortImpl$readyOUT" class="sprotty-hidden hidden" transform="translate(48.890625, 40)" style="display:block;height:0px;width:0px;"/><g id="sprotty_ArchitectureBlockImpl$MEMSync/AlwaysBlockImpl$null14/GPortImpl$stallOUT" class="sprotty-hidden hidden" transform="translate(48.890625, 50)" style="display:block;height:0px;width:0px;"/></g><g id="sprotty_ArchitectureBlockImpl$MEMSync/AlwaysBlockImpl$null15" class="statement" transform="translate(96.3125, 186)"><rect x="0" y="0" rx="10" ry="5" width="48.890625" height="40" class="sprotty-node" style="fill:rgb(245, 245, 245);stroke:rgb(112, 112, 112);"/><text class="clickable sprotty-label statementtype" id="sprotty_ArchitectureBlockImpl$MEMSync/AlwaysBlockImpl$null15/labeltype" transform="translate(5, 14) translate(18.828125, 9)" style="cursor:default;font-size:8px;font-weight:700;perspective-origin:0.609375px 0px;fill:rgb(112, 112, 112);text-anchor:middle;">always_ff</text><g id="sprotty_ArchitectureBlockImpl$MEMSync/AlwaysBlockImpl$null15/GPortImpl$nextstateIN" class="sprotty-hidden hidden" transform="translate(0, 30)" style="display:block;height:0px;width:0px;"/><g id="sprotty_ArchitectureBlockImpl$MEMSync/AlwaysBlockImpl$null15/GPortImpl$rstIN" class="sprotty-hidden hidden" transform="translate(0, 20)" style="display:block;height:0px;width:0px;"/><g id="sprotty_ArchitectureBlockImpl$MEMSync/AlwaysBlockImpl$null15/GPortImpl$clkIN" class="sprotty-hidden hidden" transform="translate(0, 10)" style="display:block;height:0px;width:0px;"/><g id="sprotty_ArchitectureBlockImpl$MEMSync/AlwaysBlockImpl$null15/GPortImpl$stateOUT" class="sprotty-hidden hidden" transform="translate(48.890625, 20)" style="display:block;height:0px;width:0px;"/></g><g id="sprotty_ArchitectureBlockImpl$MEMSync/AlwaysBlockImpl$null16" class="statement" transform="translate(205.203125, 80)"><rect x="0" y="0" rx="10" ry="5" width="63.75" height="90" class="sprotty-node" style="fill:rgb(245, 245, 245);stroke:rgb(112, 112, 112);"/><text class="clickable sprotty-label statementtype" id="sprotty_ArchitectureBlockImpl$MEMSync/AlwaysBlockImpl$null16/labeltype" transform="translate(5, 39) translate(26.875, 9)" style="cursor:default;font-size:8px;font-weight:700;perspective-origin:0px 0px;fill:rgb(112, 112, 112);text-anchor:middle;">always_comb</text><g id="sprotty_ArchitectureBlockImpl$MEMSync/AlwaysBlockImpl$null16/GPortImpl$dirtyIN" class="sprotty-hidden hidden" transform="translate(0, 20)" style="display:block;height:0px;width:0px;"/><g id="sprotty_ArchitectureBlockImpl$MEMSync/AlwaysBlockImpl$null16/GPortImpl$PRIN" class="sprotty-hidden hidden" transform="translate(0, 40)" style="display:block;height:0px;width:0px;"/><g id="sprotty_ArchitectureBlockImpl$MEMSync/AlwaysBlockImpl$null16/GPortImpl$hitIN" class="sprotty-hidden hidden" transform="translate(0, 10)" style="display:block;height:0px;width:0px;"/><g id="sprotty_ArchitectureBlockImpl$MEMSync/AlwaysBlockImpl$null16/GPortImpl$syncIN" class="sprotty-hidden hidden" transform="translate(0, 30)" style="display:block;height:0px;width:0px;"/><g id="sprotty_ArchitectureBlockImpl$MEMSync/AlwaysBlockImpl$null16/GPortImpl$WRIN" class="sprotty-hidden hidden" transform="translate(0, 60)" style="display:block;height:0px;width:0px;"/><g id="sprotty_ArchitectureBlockImpl$MEMSync/AlwaysBlockImpl$null16/GPortImpl$RDIN" class="sprotty-hidden hidden" transform="translate(0, 50)" style="display:block;height:0px;width:0px;"/><g id="sprotty_ArchitectureBlockImpl$MEMSync/AlwaysBlockImpl$null16/GPortImpl$ACTIN" class="sprotty-hidden hidden" transform="translate(0, 70)" style="display:block;height:0px;width:0px;"/><g id="sprotty_ArchitectureBlockImpl$MEMSync/AlwaysBlockImpl$null16/GPortImpl$stateIN" class="sprotty-hidden hidden" transform="translate(0, 80)" style="display:block;height:0px;width:0px;"/><g id="sprotty_ArchitectureBlockImpl$MEMSync/AlwaysBlockImpl$null16/GPortImpl$nextstateOUT" class="sprotty-hidden hidden" transform="translate(63.75, 45)" style="display:block;height:0px;width:0px;"/></g><g id="sprotty_ArchitectureBlockImpl$MEMSync/BPortImpl$sync" class="triangle" transform="translate(0, 38)"><path d="M 0,0 L 5,2.5 L 0,5 Z" transform="translate(-1.67, -2.5)" class="sprotty-port" style="fill:rgb(48, 48, 48);stroke:rgb(48, 48, 48);"/><text class="clickable sprotty-label port" id="sprotty_ArchitectureBlockImpl$MEMSync/BPortImpl$sync/label" transform="translate(6, 6) translate(12.65625, 14)" style="cursor:default;font-size:12px;perspective-origin:0px 0px;fill:rgb(48, 48, 48);text-anchor:middle;">sync</text></g><g id="sprotty_ArchitectureBlockImpl$MEMSync/BPortImpl$rst" class="triangle" transform="translate(0, 278)"><path d="M 0,0 L 5,2.5 L 0,5 Z" transform="translate(-1.67, -2.5)" class="sprotty-port" style="fill:rgb(48, 48, 48);stroke:rgb(48, 48, 48);"/><text class="clickable sprotty-label port" id="sprotty_ArchitectureBlockImpl$MEMSync/BPortImpl$rst/label" transform="translate(6, 6) translate(7.25, 14)" style="cursor:default;font-size:12px;perspective-origin:0.234375px 0px;fill:rgb(48, 48, 48);text-anchor:middle;">rst</text></g><g id="sprotty_ArchitectureBlockImpl$MEMSync/BPortImpl$clk" class="triangle" transform="translate(0, 244)"><path d="M 0,0 L 5,2.5 L 0,5 Z" transform="translate(-1.67, -2.5)" class="sprotty-port" style="fill:rgb(48, 48, 48);stroke:rgb(48, 48, 48);"/><text class="clickable sprotty-label port" id="sprotty_ArchitectureBlockImpl$MEMSync/BPortImpl$clk/label" transform="translate(6, 6) translate(8.078125, 14)" style="cursor:default;font-size:12px;perspective-origin:0.1875px 0px;fill:rgb(48, 48, 48);text-anchor:middle;">clk</text></g><g id="sprotty_ArchitectureBlockImpl$MEMSync/BPortImpl$WR" class="triangle" transform="translate(0, 140)"><path d="M 0,0 L 5,2.5 L 0,5 Z" transform="translate(-1.67, -2.5)" class="sprotty-port" style="fill:rgb(48, 48, 48);stroke:rgb(48, 48, 48);"/><text class="clickable sprotty-label port" id="sprotty_ArchitectureBlockImpl$MEMSync/BPortImpl$WR/label" transform="translate(6, 6) translate(9.078125, 14)" style="cursor:default;font-size:12px;perspective-origin:0.1875px 0px;fill:rgb(48, 48, 48);text-anchor:middle;">WR</text></g><g id="sprotty_ArchitectureBlockImpl$MEMSync/BPortImpl$RowId" class="triangle" transform="translate(0, 312)"><path d="M 0,0 L 5,2.5 L 0,5 Z" transform="translate(-1.67, -2.5)" class="sprotty-port" style="fill:rgb(48, 48, 48);stroke:rgb(48, 48, 48);"/><text class="clickable sprotty-label port" id="sprotty_ArchitectureBlockImpl$MEMSync/BPortImpl$RowId/label" transform="translate(6, 6) translate(17.65625, 14)" style="cursor:default;font-size:12px;perspective-origin:0px 0px;fill:rgb(48, 48, 48);text-anchor:middle;">RowId</text></g><g id="sprotty_ArchitectureBlockImpl$MEMSync/BPortImpl$RD" class="triangle" transform="translate(0, 106)"><path d="M 0,0 L 5,2.5 L 0,5 Z" transform="translate(-1.67, -2.5)" class="sprotty-port" style="fill:rgb(48, 48, 48);stroke:rgb(48, 48, 48);"/><text class="clickable sprotty-label port" id="sprotty_ArchitectureBlockImpl$MEMSync/BPortImpl$RD/label" transform="translate(6, 6) translate(7.9375, 14)" style="cursor:default;font-size:12px;perspective-origin:0px 0px;fill:rgb(48, 48, 48);text-anchor:middle;">RD</text></g><g id="sprotty_ArchitectureBlockImpl$MEMSync/BPortImpl$PR" class="triangle" transform="translate(0, 72)"><path d="M 0,0 L 5,2.5 L 0,5 Z" transform="translate(-1.67, -2.5)" class="sprotty-port" style="fill:rgb(48, 48, 48);stroke:rgb(48, 48, 48);"/><text class="clickable sprotty-label port" id="sprotty_ArchitectureBlockImpl$MEMSync/BPortImpl$PR/label" transform="translate(6, 6) translate(7.609375, 14)" style="cursor:default;font-size:12px;perspective-origin:0.1875px 0px;fill:rgb(48, 48, 48);text-anchor:middle;">PR</text></g><g id="sprotty_ArchitectureBlockImpl$MEMSync/BPortImpl$ACT" class="triangle" transform="translate(0, 174)"><path d="M 0,0 L 5,2.5 L 0,5 Z" transform="translate(-1.67, -2.5)" class="sprotty-port" style="fill:rgb(48, 48, 48);stroke:rgb(48, 48, 48);"/><text class="clickable sprotty-label port" id="sprotty_ArchitectureBlockImpl$MEMSync/BPortImpl$ACT/label" transform="translate(6, 6) translate(10.890625, 14)" style="cursor:default;font-size:12px;perspective-origin:0px 0px;fill:rgb(48, 48, 48);text-anchor:middle;">ACT</text></g><g id="sprotty_ArchitectureBlockImpl$MEMSync/BPortImpl$cRowId" class="triangle" transform="translate(471.46875, 322)"><path d="M 0,0 L 5,2.5 L 0,5 Z" transform="translate(-1.67, -2.5)" class="sprotty-port" style="fill:rgb(48, 48, 48);stroke:rgb(48, 48, 48);"/><text class="clickable sprotty-label port" id="sprotty_ArchitectureBlockImpl$MEMSync/BPortImpl$cRowId/label" transform="translate(-47.40625, 6) translate(20.703125, 14)" style="cursor:default;font-size:12px;perspective-origin:0px 0px;fill:rgb(48, 48, 48);text-anchor:middle;">cRowId</text></g><g id="sprotty_ArchitectureBlockImpl$MEMSync/BPortImpl$dirty" class="triangle" transform="translate(471.46875, 36)"><path d="M 0,0 L 5,2.5 L 0,5 Z" transform="translate(-1.67, -2.5)" class="sprotty-port" style="fill:rgb(48, 48, 48);stroke:rgb(48, 48, 48);"/><text class="clickable sprotty-label port" id="sprotty_ArchitectureBlockImpl$MEMSync/BPortImpl$dirty/label" transform="translate(-32.9375, 6) translate(13.09375, 14)" style="cursor:default;font-size:12px;perspective-origin:0.375px 0px;fill:rgb(48, 48, 48);text-anchor:middle;">dirty</text></g><g id="sprotty_ArchitectureBlockImpl$MEMSync/BPortImpl$hit" class="triangle" transform="translate(471.46875, 70)"><path d="M 0,0 L 5,2.5 L 0,5 Z" transform="translate(-1.67, -2.5)" class="sprotty-port" style="fill:rgb(48, 48, 48);stroke:rgb(48, 48, 48);"/><text class="clickable sprotty-label port" id="sprotty_ArchitectureBlockImpl$MEMSync/BPortImpl$hit/label" transform="translate(-21.59375, 6) translate(7.5625, 14)" style="cursor:default;font-size:12px;perspective-origin:0.234375px 0px;fill:rgb(48, 48, 48);text-anchor:middle;">hit</text></g><g id="sprotty_ArchitectureBlockImpl$MEMSync/BPortImpl$nRowId" class="triangle" transform="translate(471.46875, 210)"><path d="M 0,0 L 5,2.5 L 0,5 Z" transform="translate(-1.67, -2.5)" class="sprotty-port" style="fill:rgb(48, 48, 48);stroke:rgb(48, 48, 48);"/><text class="clickable sprotty-label port" id="sprotty_ArchitectureBlockImpl$MEMSync/BPortImpl$nRowId/label" transform="translate(-48.625, 6) translate(21.3125, 14)" style="cursor:default;font-size:12px;perspective-origin:0px 0px;fill:rgb(48, 48, 48);text-anchor:middle;">nRowId</text></g><g id="sprotty_ArchitectureBlockImpl$MEMSync/BPortImpl$ready" class="triangle" transform="translate(471.46875, 244)"><path d="M 0,0 L 5,2.5 L 0,5 Z" transform="translate(-1.67, -2.5)" class="sprotty-port" style="fill:rgb(48, 48, 48);stroke:rgb(48, 48, 48);"/><text class="clickable sprotty-label port" id="sprotty_ArchitectureBlockImpl$MEMSync/BPortImpl$ready/label" transform="translate(-38.203125, 6) translate(15.734375, 14)" style="cursor:default;font-size:12px;perspective-origin:0.359375px 0px;fill:rgb(48, 48, 48);text-anchor:middle;">ready</text></g><g id="sprotty_ArchitectureBlockImpl$MEMSync/BPortImpl$stall" class="triangle" transform="translate(471.46875, 278)"><path d="M 0,0 L 5,2.5 L 0,5 Z" transform="translate(-1.67, -2.5)" class="sprotty-port" style="fill:rgb(48, 48, 48);stroke:rgb(48, 48, 48);"/><text class="clickable sprotty-label port" id="sprotty_ArchitectureBlockImpl$MEMSync/BPortImpl$stall/label" transform="translate(-29.21875, 6) translate(11.609375, 14)" style="cursor:default;font-size:12px;perspective-origin:0px 0px;fill:rgb(48, 48, 48);text-anchor:middle;">stall</text></g></g></g></svg>