<svg xmlns="http://www.w3.org/2000/svg" id="sprotty_s_pimulator.tristate" class="sprotty-graph sprotty-block-diagram blockdiagram" style="font-family:&quot;Noto Sans&quot;, Helvetica, Arial, sans-serif;-webkit-locale:&quot;en&quot;;perspective-origin:0px 0px;transform-origin:0px 0px;" version="1.1" viewBox="7 7 182.46875 168" width="182.46875" height="168"><g transform="scale(1) translate(0,0)"><g id="sprotty_ArchitectureBlockImpl$tristate" class="architecture" transform="translate(12, 12)"><g class="sprotty-block" style="fill:rgb(255, 255, 255);stroke:rgb(48, 48, 48);stroke-dasharray:0px;"><rect x="0" y="0" rx="1" ry="1" width="172.46875" height="158"/><text x="86.234375" y="12" class="sprotty-block-name" style="cursor:pointer;font-weight:700;perspective-origin:86.2344px 0px;fill:rgb(48, 48, 48);stroke:rgba(0, 0, 0, 0);dominant-baseline:middle;text-anchor:middle;">tristate</text><line x1="0" y1="20" x2="172.46875" y2="20"/></g><g id="sprotty_ArchitectureBlockImpl$tristate/AssignmentBlockImpl$dqo/GPortImpl$dqoOUT_to_ArchitectureBlockImpl$tristate/BPortImpl$dqo" class="sprotty-edge thick edge" style="fill:none;stroke:rgb(112, 112, 112);stroke-linejoin:round;stroke-width:3px;"><g><path d="M 109.3125 114 L 172.46875 114 "/><path d="M 109.3125 114 L 172.46875 114 " class="clickable"/></g></g><g id="sprotty_ArchitectureBlockImpl$tristate/AssignmentBlockImpl$dq/GPortImpl$dqOUT_to_ArchitectureBlockImpl$tristate/BPortImpl$dq" class="sprotty-edge thick edge" style="fill:none;stroke:rgb(112, 112, 112);stroke-linejoin:round;stroke-width:3px;"><g><path d="M 109.3125 64 L 117.3125 64 C 118.3125 64 119.3125 65 119.3125 66 L 119.3125 87 C 119.3125 88 118.3125 89 117.3125 89 L 71.59375 89 C 70.59375 89 69.59375 90 69.59375 91 L 69.59375 117 C 69.59375 118 68.59375 119 67.59375 119 L 0 119 "/><path d="M 109.3125 64 L 117.3125 64 C 118.3125 64 119.3125 65 119.3125 66 L 119.3125 87 C 119.3125 88 118.3125 89 117.3125 89 L 71.59375 89 C 70.59375 89 69.59375 90 69.59375 91 L 69.59375 117 C 69.59375 118 68.59375 119 67.59375 119 L 0 119 " class="clickable"/></g><circle r="3" id="sprotty_ArchitectureBlockImpl$tristate/AssignmentBlockImpl$dq/GPortImpl$dqOUT_to_ArchitectureBlockImpl$tristate/BPortImpl$dq/junction0" transform="translate(69.59375, 119)" class="sprotty-junction thick" style="fill:rgb(112, 112, 112);stroke:none;"/></g><g id="sprotty_ArchitectureBlockImpl$tristate/BPortImpl$enable_to_ArchitectureBlockImpl$tristate/AssignmentBlockImpl$dq/GPortImpl$enableIN" class="sprotty-edge edge" style="fill:none;stroke:rgb(112, 112, 112);stroke-linejoin:round;"><g><path d="M 0 69 L 89.59375 69 "/><path d="M 0 69 L 89.59375 69 " class="clickable"/></g></g><g id="sprotty_ArchitectureBlockImpl$tristate/BPortImpl$dqi_to_ArchitectureBlockImpl$tristate/AssignmentBlockImpl$dq/GPortImpl$dqiIN" class="sprotty-edge thick edge" style="fill:none;stroke:rgb(112, 112, 112);stroke-linejoin:round;stroke-width:3px;"><g><path d="M 0 35 L 67.59375 35 C 68.59375 35 69.59375 36 69.59375 37 L 69.59375 57 C 69.59375 58 70.59375 59 71.59375 59 L 89.59375 59 "/><path d="M 0 35 L 67.59375 35 C 68.59375 35 69.59375 36 69.59375 37 L 69.59375 57 C 69.59375 58 70.59375 59 71.59375 59 L 89.59375 59 " class="clickable"/></g></g><g id="sprotty_ArchitectureBlockImpl$tristate/BPortImpl$enable_to_ArchitectureBlockImpl$tristate/AssignmentBlockImpl$dqo/GPortImpl$enableIN" class="sprotty-edge edge" style="fill:none;stroke:rgb(112, 112, 112);stroke-linejoin:round;"><g><path d="M 0 69 L 77.59375 69 C 78.59375 69 79.59375 70 79.59375 71 L 79.59375 107 C 79.59375 108 80.59375 109 81.59375 109 L 89.59375 109 "/><path d="M 0 69 L 77.59375 69 C 78.59375 69 79.59375 70 79.59375 71 L 79.59375 107 C 79.59375 108 80.59375 109 81.59375 109 L 89.59375 109 " class="clickable"/></g><circle r="2" id="sprotty_ArchitectureBlockImpl$tristate/BPortImpl$enable_to_ArchitectureBlockImpl$tristate/AssignmentBlockImpl$dqo/GPortImpl$enableIN/junction0" transform="translate(79.59375, 69)" class="sprotty-junction junction" style="fill:rgb(112, 112, 112);stroke:none;"/></g><g id="sprotty_ArchitectureBlockImpl$tristate/BPortImpl$dq_to_ArchitectureBlockImpl$tristate/AssignmentBlockImpl$dqo/GPortImpl$dqIN" class="sprotty-edge thick edge" style="fill:none;stroke:rgb(112, 112, 112);stroke-linejoin:round;stroke-width:3px;"><g><path d="M 0 119 L 89.59375 119 "/><path d="M 0 119 L 89.59375 119 " class="clickable"/></g></g><g id="sprotty_ArchitectureBlockImpl$tristate/AssignmentBlockImpl$dqo" class="statement" transform="translate(89.59375, 99)"><rect x="0" y="0" rx="10" ry="5" width="19.71875" height="30" class="sprotty-node" style="fill:rgb(245, 245, 245);stroke:rgb(112, 112, 112);"/><text class="clickable sprotty-label statementtype" id="sprotty_ArchitectureBlockImpl$tristate/AssignmentBlockImpl$dqo/labeltype" transform="translate(5, 9) translate(4.71875, 9)" style="cursor:default;font-size:8px;font-weight:700;perspective-origin:0.140625px 0px;fill:rgb(112, 112, 112);text-anchor:middle;">&lt;=</text><g id="sprotty_ArchitectureBlockImpl$tristate/AssignmentBlockImpl$dqo/GPortImpl$dqIN" class="sprotty-hidden hidden" transform="translate(0, 20)" style="display:block;height:0px;width:0px;"/><g id="sprotty_ArchitectureBlockImpl$tristate/AssignmentBlockImpl$dqo/GPortImpl$enableIN" class="sprotty-hidden hidden" transform="translate(0, 10)" style="display:block;height:0px;width:0px;"/><g id="sprotty_ArchitectureBlockImpl$tristate/AssignmentBlockImpl$dqo/GPortImpl$dqoOUT" class="sprotty-hidden hidden" transform="translate(19.71875, 15)" style="display:block;height:0px;width:0px;"/></g><g id="sprotty_ArchitectureBlockImpl$tristate/AssignmentBlockImpl$dq" class="statement" transform="translate(89.59375, 49)"><rect x="0" y="0" rx="10" ry="5" width="19.71875" height="30" class="sprotty-node" style="fill:rgb(245, 245, 245);stroke:rgb(112, 112, 112);"/><text class="clickable sprotty-label statementtype" id="sprotty_ArchitectureBlockImpl$tristate/AssignmentBlockImpl$dq/labeltype" transform="translate(5, 9) translate(4.71875, 9)" style="cursor:default;font-size:8px;font-weight:700;perspective-origin:0.140625px 0px;fill:rgb(112, 112, 112);text-anchor:middle;">&lt;=</text><g id="sprotty_ArchitectureBlockImpl$tristate/AssignmentBlockImpl$dq/GPortImpl$dqiIN" class="sprotty-hidden hidden" transform="translate(0, 10)" style="display:block;height:0px;width:0px;"/><g id="sprotty_ArchitectureBlockImpl$tristate/AssignmentBlockImpl$dq/GPortImpl$enableIN" class="sprotty-hidden hidden" transform="translate(0, 20)" style="display:block;height:0px;width:0px;"/><g id="sprotty_ArchitectureBlockImpl$tristate/AssignmentBlockImpl$dq/GPortImpl$dqOUT" class="sprotty-hidden hidden" transform="translate(19.71875, 15)" style="display:block;height:0px;width:0px;"/></g><g id="sprotty_ArchitectureBlockImpl$tristate/BPortImpl$enable" class="triangle" transform="translate(0, 69)"><path d="M 0,0 L 5,2.5 L 0,5 Z" transform="translate(-1.67, -2.5)" class="sprotty-port" style="fill:rgb(48, 48, 48);stroke:rgb(48, 48, 48);"/><text class="clickable sprotty-label port" id="sprotty_ArchitectureBlockImpl$tristate/BPortImpl$enable/label" transform="translate(6, 6) translate(19.125, 14)" style="cursor:default;font-size:12px;perspective-origin:0.171875px 0px;fill:rgb(48, 48, 48);text-anchor:middle;">enable</text></g><g id="sprotty_ArchitectureBlockImpl$tristate/BPortImpl$dq" class="square" transform="translate(0, 119)"><path d="M 0,0 L 5,0 L 5,5 L 0,5 Z" transform="translate(-2.5, -2.5)" class="sprotty-port" style="fill:rgb(48, 48, 48);stroke:rgb(48, 48, 48);"/><text class="clickable sprotty-label port" id="sprotty_ArchitectureBlockImpl$tristate/BPortImpl$dq/label" transform="translate(6, 6) translate(7.453125, 14)" style="cursor:default;font-size:12px;perspective-origin:0px 0px;fill:rgb(48, 48, 48);text-anchor:middle;">dq</text></g><g id="sprotty_ArchitectureBlockImpl$tristate/BPortImpl$dqi" class="triangle" transform="translate(0, 35)"><path d="M 0,0 L 5,2.5 L 0,5 Z" transform="translate(-1.67, -2.5)" class="sprotty-port" style="fill:rgb(48, 48, 48);stroke:rgb(48, 48, 48);"/><text class="clickable sprotty-label port" id="sprotty_ArchitectureBlockImpl$tristate/BPortImpl$dqi/label" transform="translate(6, 6) translate(9.09375, 14)" style="cursor:default;font-size:12px;perspective-origin:0px 0px;fill:rgb(48, 48, 48);text-anchor:middle;">dqi</text></g><g id="sprotty_ArchitectureBlockImpl$tristate/BPortImpl$dqo" class="triangle" transform="translate(172.46875, 114)"><path d="M 0,0 L 5,2.5 L 0,5 Z" transform="translate(-1.67, -2.5)" class="sprotty-port" style="fill:rgb(48, 48, 48);stroke:rgb(48, 48, 48);"/><text class="clickable sprotty-label port" id="sprotty_ArchitectureBlockImpl$tristate/BPortImpl$dqo/label" transform="translate(-28.15625, 6) translate(11.078125, 14)" style="cursor:default;font-size:12px;perspective-origin:0px 0px;fill:rgb(48, 48, 48);text-anchor:middle;">dqo</text></g></g></g></svg>