<svg xmlns="http://www.w3.org/2000/svg" id="sprotty_root" class="sprotty-graph sprotty-state-machine statemachine" style="font-family:&quot;Noto Sans&quot;, Helvetica, Arial, sans-serif;-webkit-locale:&quot;en&quot;;perspective-origin:0px 0px;transform-origin:0px 0px;" version="1.1" viewBox="10 10 386.42578125 371.023046875" width="386.42578125" height="371.023046875"><g transform="scale(1) translate(0,0)"><g id="sprotty_fsm$state" class="statemachine" transform="translate(15, 15)"><g class="sprotty-block" style="fill:rgb(255, 255, 255);stroke:rgb(48, 48, 48);stroke-dasharray:0px;"><rect x="0" y="0" rx="1" ry="1" width="376.42578125" height="361.023046875"/><text x="188.212890625" y="12" class="sprotty-block-name" style="cursor:pointer;font-weight:700;perspective-origin:188.219px 0px;fill:rgb(48, 48, 48);stroke:rgba(0, 0, 0, 0);dominant-baseline:middle;text-anchor:middle;">state</text><line x1="0" y1="20" x2="376.42578125" y2="20"/></g><g id="sprotty_fsm$state/state$WriteBack" class="state" transform="translate(12, 99.023046875)"><ellipse cx="44.0078125" cy="20" rx="44.0078125" ry="20" class="sprotty-node clickable" style="fill:rgb(255, 255, 255);stroke:rgb(48, 48, 48);"/><text class="clickable sprotty-label state" id="sprotty_fsm$state/state$WriteBack/label" transform="translate(6, 8) translate(37.921875, 19)" style="cursor:default;perspective-origin:0.078125px 0px;fill:rgb(48, 48, 48);text-anchor:middle;">WriteBack</text></g><g id="sprotty_fsm$state/state$UpdateTag" class="state" transform="translate(63.65625, 36)"><ellipse cx="46.359375" cy="20" rx="46.359375" ry="20" class="sprotty-node clickable" style="fill:rgb(255, 255, 255);stroke:rgb(48, 48, 48);"/><text class="clickable sprotty-label state" id="sprotty_fsm$state/state$UpdateTag/label" transform="translate(6, 8) translate(40.359375, 19)" style="cursor:default;perspective-origin:0px 0px;fill:rgb(48, 48, 48);text-anchor:middle;">UpdateTag</text></g><g id="sprotty_fsm$state/state$hitWR" class="state" transform="translate(144.05078125, 169.023046875)"><ellipse cx="28.1875" cy="20" rx="28.1875" ry="20" class="sprotty-node clickable" style="fill:rgb(255, 255, 255);stroke:rgb(48, 48, 48);"/><text class="clickable sprotty-label state" id="sprotty_fsm$state/state$hitWR/label" transform="translate(6, 8) translate(22.1875, 19)" style="cursor:default;perspective-origin:0px 0px;fill:rgb(48, 48, 48);text-anchor:middle;">hitWR</text></g><g id="sprotty_fsm$state/state$Idle" class="state" transform="translate(163.75334821428575, 309.023046875)"><ellipse cx="25" cy="20" rx="25" ry="20" class="sprotty-node clickable" style="fill:rgb(255, 255, 255);stroke:rgb(48, 48, 48);"/><text class="clickable sprotty-label state" id="sprotty_fsm$state/state$Idle/label" transform="translate(10.90625, 8) translate(14.03125, 19)" style="cursor:default;perspective-origin:0.0625px 0px;fill:rgb(48, 48, 48);text-anchor:middle;">Idle</text></g><g id="sprotty_fsm$state/state$Allocate" class="state" transform="translate(46.97265625000001, 169.023046875)"><ellipse cx="36.0390625" cy="20" rx="36.0390625" ry="20" class="sprotty-node clickable" style="fill:rgb(255, 255, 255);stroke:rgb(48, 48, 48);"/><text class="clickable sprotty-label state" id="sprotty_fsm$state/state$Allocate/label" transform="translate(6, 8) translate(29.96875, 19)" style="cursor:default;perspective-origin:0.0625px 0px;fill:rgb(48, 48, 48);text-anchor:middle;">Allocate</text></g><g id="sprotty_fsm$state/state$hitRD" class="state" transform="translate(180.42578125, 99.023046875)"><ellipse cx="30" cy="20" rx="30" ry="20" class="sprotty-node clickable" style="fill:rgb(255, 255, 255);stroke:rgb(48, 48, 48);"/><text class="clickable sprotty-label state" id="sprotty_fsm$state/state$hitRD/label" transform="translate(9.34375, 8) translate(20.65625, 19)" style="cursor:default;perspective-origin:0px 0px;fill:rgb(48, 48, 48);text-anchor:middle;">hitRD</text></g><g id="sprotty_fsm$state/state$CompareTag" class="state" transform="translate(148.34709821428575, 239.023046875)"><ellipse cx="53.109375" cy="20" rx="53.109375" ry="20" class="sprotty-node clickable" style="fill:rgb(255, 255, 255);stroke:rgb(48, 48, 48);"/><text class="clickable sprotty-label state" id="sprotty_fsm$state/state$CompareTag/label" transform="translate(6, 8) translate(47.109375, 19)" style="cursor:default;perspective-origin:0px 0px;fill:rgb(48, 48, 48);text-anchor:middle;">CompareTag</text></g><g id="sprotty_fsm$state/state$Idle_to_fsm$state/state$CompareTag" class="sprotty-edge transition" style="fill:none;stroke:rgb(48, 48, 48);stroke-linejoin:round;"><g><path d=" M183.75334821428575,309.023046875 C183.75334821428575,294.023046875 183.75334821428575,279.023046875 183.75334821428575,279.023046875"/><path d=" M183.75334821428575,309.023046875 C183.75334821428575,294.023046875 183.75334821428575,279.023046875 183.75334821428575,279.023046875" class="clickable"/></g><path d="M 183.75334821428575,279.023046875 L 190.75334821428575,276.523046875 L 190.75334821428575,281.523046875 Z" transform="rotate(90 183.75334821428575 279.023046875)" class="arrow" style="fill:rgb(48, 48, 48);stroke-linejoin:miter;stroke-miterlimit:2;"/></g><g id="sprotty_fsm$state/state$Allocate_to_fsm$state/state$CompareTag" class="sprotty-edge transition" style="fill:none;stroke:rgb(48, 48, 48);stroke-linejoin:round;"><g><path d=" M83.01171875,209.023046875 C83.01171875,209.023046875 91.06266741071428,224.023046875 163.5212053571429,239.023046875"/><path d=" M83.01171875,209.023046875 C83.01171875,209.023046875 91.06266741071428,224.023046875 163.5212053571429,239.023046875" class="clickable"/></g><path d="M 163.5212053571429,239.023046875 L 170.5212053571429,236.523046875 L 170.5212053571429,241.523046875 Z" transform="rotate(-168.30412618365153 163.5212053571429 239.023046875)" class="arrow" style="fill:rgb(48, 48, 48);stroke-linejoin:miter;stroke-miterlimit:2;"/></g><g id="sprotty_fsm$state/state$CompareTag_to_fsm$state/state$hitRD" class="sprotty-edge transition" style="fill:none;stroke:rgb(48, 48, 48);stroke-linejoin:round;"><g><path d=" M209.04352678571433,239.023046875 C210.42578125,224.023046875 210.42578124999997,216.523046875 210.42578124999997,208.18971354166663 C210.42578124999997,199.85638020833332 210.42578125,190.6897135416667 210.42578125,179.23138020833335 C210.42578125,167.773046875 210.42578125,154.023046875 210.42578125,139.023046875"/><path d=" M209.04352678571433,239.023046875 C210.42578125,224.023046875 210.42578124999997,216.523046875 210.42578124999997,208.18971354166663 C210.42578124999997,199.85638020833332 210.42578125,190.6897135416667 210.42578125,179.23138020833335 C210.42578125,167.773046875 210.42578125,154.023046875 210.42578125,139.023046875" class="clickable"/></g><path d="M 210.42578125,139.023046875 L 217.42578125,136.523046875 L 217.42578125,141.523046875 Z" transform="rotate(90 210.42578125 139.023046875)" class="arrow" style="fill:rgb(48, 48, 48);stroke-linejoin:miter;stroke-miterlimit:2;"/></g><g id="sprotty_fsm$state/state$CompareTag_to_fsm$state/state$hitWR" class="sprotty-edge transition" style="fill:none;stroke:rgb(48, 48, 48);stroke-linejoin:round;"><g><path d=" M193.86941964285717,239.023046875 C187.08577008928572,224.023046875 186.33203125,209.023046875 186.33203125,209.023046875"/><path d=" M193.86941964285717,239.023046875 C187.08577008928572,224.023046875 186.33203125,209.023046875 186.33203125,209.023046875" class="clickable"/></g><path d="M 186.33203125,209.023046875 L 193.33203125,206.523046875 L 193.33203125,211.523046875 Z" transform="rotate(87.12334925143776 186.33203125 209.023046875)" class="arrow" style="fill:rgb(48, 48, 48);stroke-linejoin:miter;stroke-miterlimit:2;"/></g><g id="sprotty_fsm$state/state$CompareTag_to_fsm$state/state$UpdateTag" class="sprotty-edge transition" style="fill:none;stroke:rgb(48, 48, 48);stroke-linejoin:round;"><g><path d=" M239.3917410714286,239.023046875 C363.42578125,224.023046875 363.42578125,216.52304687500003 363.42578125,203.60638020833338 C363.42578125,190.6897135416667 363.42578125,172.35638020833335 363.42578125,158.60638020833335 C363.42578125,144.85638020833335 363.42578125,135.68971354166666 363.42578125,126.523046875 C363.42578125,117.35638020833333 363.42578125,108.18971354166668 363.42578125,100.72849934895835 C363.42578125,93.26728515625001 363.42578125,87.5115234375 133.1953125,76"/><path d=" M239.3917410714286,239.023046875 C363.42578125,224.023046875 363.42578125,216.52304687500003 363.42578125,203.60638020833338 C363.42578125,190.6897135416667 363.42578125,172.35638020833335 363.42578125,158.60638020833335 C363.42578125,144.85638020833335 363.42578125,135.68971354166666 363.42578125,126.523046875 C363.42578125,117.35638020833333 363.42578125,108.18971354166668 363.42578125,100.72849934895835 C363.42578125,93.26728515625001 363.42578125,87.5115234375 133.1953125,76" class="clickable"/></g><path d="M 133.1953125,76 L 140.1953125,73.5 L 140.1953125,78.5 Z" transform="rotate(2.8624052261117483 133.1953125 76)" class="arrow" style="fill:rgb(48, 48, 48);stroke-linejoin:miter;stroke-miterlimit:2;"/></g><g id="sprotty_fsm$state/state$CompareTag_to_fsm$state/state$Idle" class="sprotty-edge transition" style="fill:none;stroke:rgb(48, 48, 48);stroke-linejoin:round;"><g><path d=" M219.15959821428575,279.023046875 C219.15959821428575,279.023046875 216.61897321428575,294.023046875 193.75334821428575,309.023046875"/><path d=" M219.15959821428575,279.023046875 C219.15959821428575,279.023046875 216.61897321428575,294.023046875 193.75334821428575,309.023046875" class="clickable"/></g><path d="M 193.75334821428575,309.023046875 L 200.75334821428575,306.523046875 L 200.75334821428575,311.523046875 Z" transform="rotate(-33.26513752087463 193.75334821428575 309.023046875)" class="arrow" style="fill:rgb(48, 48, 48);stroke-linejoin:miter;stroke-miterlimit:2;"/></g><g id="sprotty_fsm$state/state$UpdateTag_to_fsm$state/state$WriteBack" class="sprotty-edge transition" style="fill:none;stroke:rgb(48, 48, 48);stroke-linejoin:round;"><g><path d=" M86.8359375,76 C86.8359375,76 59.090625,87.5115234375 56.0078125,99.023046875"/><path d=" M86.8359375,76 C86.8359375,76 59.090625,87.5115234375 56.0078125,99.023046875" class="clickable"/></g><path d="M 56.0078125,99.023046875 L 63.0078125,96.523046875 L 63.0078125,101.523046875 Z" transform="rotate(-75.00785260041627 56.0078125 99.023046875)" class="arrow" style="fill:rgb(48, 48, 48);stroke-linejoin:miter;stroke-miterlimit:2;"/></g><g id="sprotty_fsm$state/state$UpdateTag_to_fsm$state/state$Allocate" class="sprotty-edge transition" style="fill:none;stroke:rgb(48, 48, 48);stroke-linejoin:round;"><g><path d=" M110.015625,76 C110.015625,87.5115234375 110.015625,100.389404296875 110.015625,111.1209716796875 C110.015625,121.8525390625 110.01562499999999,130.43779296875 110.01562499999999,138.48041992187495 C110.01562499999999,146.52304687499998 110.015625,154.023046875 95.02473958333334,169.023046875"/><path d=" M110.015625,76 C110.015625,87.5115234375 110.015625,100.389404296875 110.015625,111.1209716796875 C110.015625,121.8525390625 110.01562499999999,130.43779296875 110.01562499999999,138.48041992187495 C110.01562499999999,146.52304687499998 110.015625,154.023046875 95.02473958333334,169.023046875" class="clickable"/></g><path d="M 95.02473958333334,169.023046875 L 102.02473958333334,166.523046875 L 102.02473958333334,171.523046875 Z" transform="rotate(-45.01741286173074 95.02473958333334 169.023046875)" class="arrow" style="fill:rgb(48, 48, 48);stroke-linejoin:miter;stroke-miterlimit:2;"/></g><g id="sprotty_fsm$state/state$WriteBack_to_fsm$state/state$Allocate" class="sprotty-edge transition" style="fill:none;stroke:rgb(48, 48, 48);stroke-linejoin:round;"><g><path d=" M56.0078125,139.023046875 C56.0078125,139.023046875 57.506901041666666,154.023046875 70.99869791666667,169.023046875"/><path d=" M56.0078125,139.023046875 C56.0078125,139.023046875 57.506901041666666,154.023046875 70.99869791666667,169.023046875" class="clickable"/></g><path d="M 70.99869791666667,169.023046875 L 77.99869791666667,166.523046875 L 77.99869791666667,171.523046875 Z" transform="rotate(-131.96989639016033 70.99869791666667 169.023046875)" class="arrow" style="fill:rgb(48, 48, 48);stroke-linejoin:miter;stroke-miterlimit:2;"/></g><g id="sprotty_fsm$state/state$hitRD_to_fsm$state/state$Idle" class="sprotty-edge transition" style="fill:none;stroke:rgb(48, 48, 48);stroke-linejoin:round;"><g><path d=" M230.42578125,139.023046875 C312.42578125,154.023046875 312.42578125,161.523046875 312.42578125,169.85638020833335 C312.42578125,178.18971354166666 312.42578124999994,187.35638020833335 312.42578124999994,196.52304687499998 C312.42578125,205.68971354166666 312.42578125,214.85638020833335 312.42578125,228.60638020833335 C312.42578125,242.35638020833332 312.42578125,260.6897135416667 312.42578125,273.60638020833335 C312.42578125,286.523046875 312.42578125,294.023046875 203.75334821428575,309.023046875"/><path d=" M230.42578125,139.023046875 C312.42578125,154.023046875 312.42578125,161.523046875 312.42578125,169.85638020833335 C312.42578125,178.18971354166666 312.42578124999994,187.35638020833335 312.42578124999994,196.52304687499998 C312.42578125,205.68971354166666 312.42578125,214.85638020833335 312.42578125,228.60638020833335 C312.42578125,242.35638020833332 312.42578125,260.6897135416667 312.42578125,273.60638020833335 C312.42578125,286.523046875 312.42578125,294.023046875 203.75334821428575,309.023046875" class="clickable"/></g><path d="M 203.75334821428575,309.023046875 L 210.75334821428575,306.523046875 L 210.75334821428575,311.523046875 Z" transform="rotate(-7.85884873264569 203.75334821428575 309.023046875)" class="arrow" style="fill:rgb(48, 48, 48);stroke-linejoin:miter;stroke-miterlimit:2;"/></g><g id="sprotty_fsm$state/state$hitRD_to_fsm$state/state$hitWR" class="sprotty-edge transition" style="fill:none;stroke:rgb(48, 48, 48);stroke-linejoin:round;"><g><path d=" M200.42578125,139.023046875 C200.42578125,139.023046875 183.51328125000003,154.023046875 181.63411458333331,169.023046875"/><path d=" M200.42578125,139.023046875 C200.42578125,139.023046875 183.51328125000003,154.023046875 181.63411458333331,169.023046875" class="clickable"/></g><path d="M 181.63411458333331,169.023046875 L 188.63411458333331,166.523046875 L 188.63411458333331,171.523046875 Z" transform="rotate(-82.8593135466682 181.63411458333331 169.023046875)" class="arrow" style="fill:rgb(48, 48, 48);stroke-linejoin:miter;stroke-miterlimit:2;"/></g><g id="sprotty_fsm$state/state$hitRD_to_fsm$state/state$CompareTag" class="sprotty-edge transition" style="fill:none;stroke:rgb(48, 48, 48);stroke-linejoin:round;"><g><path d=" M220.42578125,139.023046875 C261.42578125,154.023046875 261.42578125,161.523046875 261.42578125,168.60638020833335 C261.42578125,175.68971354166666 261.42578125,182.35638020833335 261.42578125,189.023046875 C261.42578125,195.68971354166666 261.42578125,202.35638020833335 261.42578125,209.43971354166666 C261.42578125,216.523046875 261.42578125,224.023046875 224.21763392857144,239.023046875"/><path d=" M220.42578125,139.023046875 C261.42578125,154.023046875 261.42578125,161.523046875 261.42578125,168.60638020833335 C261.42578125,175.68971354166666 261.42578125,182.35638020833335 261.42578125,189.023046875 C261.42578125,195.68971354166666 261.42578125,202.35638020833335 261.42578125,209.43971354166666 C261.42578125,216.523046875 261.42578125,224.023046875 224.21763392857144,239.023046875" class="clickable"/></g><path d="M 224.21763392857144,239.023046875 L 231.21763392857144,236.523046875 L 231.21763392857144,241.523046875 Z" transform="rotate(-21.956212569280876 224.21763392857144 239.023046875)" class="arrow" style="fill:rgb(48, 48, 48);stroke-linejoin:miter;stroke-miterlimit:2;"/></g><g id="sprotty_fsm$state/state$hitWR_to_fsm$state/state$Idle" class="sprotty-edge transition" style="fill:none;stroke:rgb(48, 48, 48);stroke-linejoin:round;"><g><path d=" M158.14453125,209.023046875 C137.34709821428575,224.023046875 137.34709821428575,231.523046875 137.34709821428575,238.60638020833335 C137.34709821428572,245.68971354166666 137.34709821428575,252.35638020833335 137.34709821428575,259.023046875 C137.34709821428572,265.68971354166666 137.34709821428575,272.35638020833335 137.34709821428575,279.43971354166666 C137.34709821428575,286.523046875 137.34709821428575,294.023046875 173.75334821428575,309.023046875"/><path d=" M158.14453125,209.023046875 C137.34709821428575,224.023046875 137.34709821428575,231.523046875 137.34709821428575,238.60638020833335 C137.34709821428572,245.68971354166666 137.34709821428575,252.35638020833335 137.34709821428575,259.023046875 C137.34709821428572,265.68971354166666 137.34709821428575,272.35638020833335 137.34709821428575,279.43971354166666 C137.34709821428575,286.523046875 137.34709821428575,294.023046875 173.75334821428575,309.023046875" class="clickable"/></g><path d="M 173.75334821428575,309.023046875 L 180.75334821428575,306.523046875 L 180.75334821428575,311.523046875 Z" transform="rotate(-157.60749806295016 173.75334821428575 309.023046875)" class="arrow" style="fill:rgb(48, 48, 48);stroke-linejoin:miter;stroke-miterlimit:2;"/></g><g id="sprotty_fsm$state/state$hitWR_to_fsm$state/state$hitRD" class="sprotty-edge transition" style="fill:none;stroke:rgb(48, 48, 48);stroke-linejoin:round;"><g><path d=" M162.84244791666666,169.023046875 C165.60078125,154.023046875 190.42578125,139.023046875 190.42578125,139.023046875"/><path d=" M162.84244791666666,169.023046875 C165.60078125,154.023046875 190.42578125,139.023046875 190.42578125,139.023046875" class="clickable"/></g><path d="M 190.42578125,139.023046875 L 197.42578125,136.523046875 L 197.42578125,141.523046875 Z" transform="rotate(148.85838574360616 190.42578125 139.023046875)" class="arrow" style="fill:rgb(48, 48, 48);stroke-linejoin:miter;stroke-miterlimit:2;"/></g><g id="sprotty_fsm$state/state$hitWR_to_fsm$state/state$CompareTag" class="sprotty-edge transition" style="fill:none;stroke:rgb(48, 48, 48);stroke-linejoin:round;"><g><path d=" M172.23828125,209.023046875 C172.23828125,209.023046875 172.883984375,224.023046875 178.69531250000003,239.023046875"/><path d=" M172.23828125,209.023046875 C172.23828125,209.023046875 172.883984375,224.023046875 178.69531250000003,239.023046875" class="clickable"/></g><path d="M 178.69531250000003,239.023046875 L 185.69531250000003,236.523046875 L 185.69531250000003,241.523046875 Z" transform="rotate(-111.1774575502897 178.69531250000003 239.023046875)" class="arrow" style="fill:rgb(48, 48, 48);stroke-linejoin:miter;stroke-miterlimit:2;"/></g></g></g></svg>