<svg xmlns="http://www.w3.org/2000/svg" id="sprotty_root" class="sprotty-graph sprotty-state-machine statemachine" style="font-family:&quot;Noto Sans&quot;, Helvetica, Arial, sans-serif;-webkit-locale:&quot;en&quot;;perspective-origin:0px 0px;transform-origin:0px 0px;" version="1.1" viewBox="10 10 884.8229166666667 818" width="884.8229166666667" height="818"><g transform="scale(1) translate(0,0)"><g id="sprotty_fsm$state" class="statemachine" transform="translate(15, 15)"><g class="sprotty-block" style="fill:rgb(255, 255, 255);stroke:rgb(48, 48, 48);stroke-dasharray:0px;"><rect x="0" y="0" rx="1" ry="1" width="874.8229166666667" height="808"/><text x="437.41145833333337" y="12" class="sprotty-block-name" style="cursor:pointer;font-weight:700;perspective-origin:437.406px 0px;fill:rgb(48, 48, 48);stroke:rgba(0, 0, 0, 0);dominant-baseline:middle;text-anchor:middle;">state</text><line x1="0" y1="20" x2="874.8229166666667" y2="20"/></g><g id="sprotty_fsm$state/state$WritingAPR" class="state" transform="translate(391.08333333333337, 276)"><ellipse cx="47.9375" cy="20" rx="47.9375" ry="20" class="sprotty-node clickable" style="fill:rgb(255, 255, 255);stroke:rgb(48, 48, 48);"/><text class="clickable sprotty-label state" id="sprotty_fsm$state/state$WritingAPR/label" transform="translate(6, 8) translate(41.9375, 19)" style="cursor:default;perspective-origin:0px 0px;fill:rgb(48, 48, 48);text-anchor:middle;">WritingAPR</text></g><g id="sprotty_fsm$state/state$Refreshing" class="state" transform="translate(442.4166666666667, 526)"><ellipse cx="45.671875" cy="20" rx="45.671875" ry="20" class="sprotty-node clickable" style="fill:rgb(255, 255, 255);stroke:rgb(48, 48, 48);"/><text class="clickable sprotty-label state" id="sprotty_fsm$state/state$Refreshing/label" transform="translate(6, 8) translate(39.671875, 19)" style="cursor:default;perspective-origin:0px 0px;fill:rgb(48, 48, 48);text-anchor:middle;">Refreshing</text></g><g id="sprotty_fsm$state/state$Config" class="state" transform="translate(459.2875744047619, 756)"><ellipse cx="30.3125" cy="20" rx="30.3125" ry="20" class="sprotty-node clickable" style="fill:rgb(255, 255, 255);stroke:rgb(48, 48, 48);"/><text class="clickable sprotty-label state" id="sprotty_fsm$state/state$Config/label" transform="translate(6, 8) translate(24.3125, 19)" style="cursor:default;perspective-origin:0px 0px;fill:rgb(48, 48, 48);text-anchor:middle;">Config</text></g><g id="sprotty_fsm$state/state$ReadingAPR" class="state" transform="translate(546.6128472222222, 276)"><ellipse cx="51.359375" cy="20" rx="51.359375" ry="20" class="sprotty-node clickable" style="fill:rgb(255, 255, 255);stroke:rgb(48, 48, 48);"/><text class="clickable sprotty-label state" id="sprotty_fsm$state/state$ReadingAPR/label" transform="translate(6, 8) translate(45.359375, 19)" style="cursor:default;perspective-origin:0px 0px;fill:rgb(48, 48, 48);text-anchor:middle;">ReadingAPR</text></g><g id="sprotty_fsm$state/state$DeepPD" class="state" transform="translate(345.6510416666667, 526)"><ellipse cx="35.8828125" cy="20" rx="35.8828125" ry="20" class="sprotty-node clickable" style="fill:rgb(255, 255, 255);stroke:rgb(48, 48, 48);"/><text class="clickable sprotty-label state" id="sprotty_fsm$state/state$DeepPD/label" transform="translate(6, 8) translate(29.875, 19)" style="cursor:default;perspective-origin:0px 0px;fill:rgb(48, 48, 48);text-anchor:middle;">DeepPD</text></g><g id="sprotty_fsm$state/state$ZRowClone" class="state" transform="translate(23, 276)"><ellipse cx="48.6796875" cy="20" rx="48.6796875" ry="20" class="sprotty-node clickable" style="fill:rgb(255, 255, 255);stroke:rgb(48, 48, 48);"/><text class="clickable sprotty-label state" id="sprotty_fsm$state/state$ZRowClone/label" transform="translate(6, 8) translate(42.609375, 19)" style="cursor:default;perspective-origin:0.0625px 0px;fill:rgb(48, 48, 48);text-anchor:middle;">ZRowClone</text></g><g id="sprotty_fsm$state/state$Activating" class="state" transform="translate(101.65104166666669, 526)"><ellipse cx="43.0625" cy="20" rx="43.0625" ry="20" class="sprotty-node clickable" style="fill:rgb(255, 255, 255);stroke:rgb(48, 48, 48);"/><text class="clickable sprotty-label state" id="sprotty_fsm$state/state$Activating/label" transform="translate(6, 8) translate(37.0625, 19)" style="cursor:default;perspective-origin:0px 0px;fill:rgb(48, 48, 48);text-anchor:middle;">Activating</text></g><g id="sprotty_fsm$state/state$IdlePD" class="state" transform="translate(699.2916666666667, 526)"><ellipse cx="30.578125" cy="20" rx="30.578125" ry="20" class="sprotty-node clickable" style="fill:rgb(255, 255, 255);stroke:rgb(48, 48, 48);"/><text class="clickable sprotty-label state" id="sprotty_fsm$state/state$IdlePD/label" transform="translate(6, 8) translate(24.578125, 19)" style="cursor:default;perspective-origin:0px 0px;fill:rgb(48, 48, 48);text-anchor:middle;">IdlePD</text></g><g id="sprotty_fsm$state/state$BankActive" class="state" transform="translate(116.29427083333334, 186)"><ellipse cx="47.7734375" cy="20" rx="47.7734375" ry="20" class="sprotty-node clickable" style="fill:rgb(255, 255, 255);stroke:rgb(48, 48, 48);"/><text class="clickable sprotty-label state" id="sprotty_fsm$state/state$BankActive/label" transform="translate(6, 8) translate(41.703125, 19)" style="cursor:default;perspective-origin:0.0625px 0px;fill:rgb(48, 48, 48);text-anchor:middle;">BankActive</text></g><g id="sprotty_fsm$state/state$Precharging" class="state" transform="translate(472.47395833333337, 346)"><ellipse cx="51.0625" cy="20" rx="51.0625" ry="20" class="sprotty-node clickable" style="fill:rgb(255, 255, 255);stroke:rgb(48, 48, 48);"/><text class="clickable sprotty-label state" id="sprotty_fsm$state/state$Precharging/label" transform="translate(6, 8) translate(45.0625, 19)" style="cursor:default;perspective-origin:0px 0px;fill:rgb(48, 48, 48);text-anchor:middle;">Precharging</text></g><g id="sprotty_fsm$state/state$IdleMRW" class="state" transform="translate(785.4479166666667, 526)"><ellipse cx="38.6875" cy="20" rx="38.6875" ry="20" class="sprotty-node clickable" style="fill:rgb(255, 255, 255);stroke:rgb(48, 48, 48);"/><text class="clickable sprotty-label state" id="sprotty_fsm$state/state$IdleMRW/label" transform="translate(6, 8) translate(32.6875, 19)" style="cursor:default;perspective-origin:0px 0px;fill:rgb(48, 48, 48);text-anchor:middle;">IdleMRW</text></g><g id="sprotty_fsm$state/state$Reading" class="state" transform="translate(448.2378472222222, 116)"><ellipse cx="36.375" cy="20" rx="36.375" ry="20" class="sprotty-node clickable" style="fill:rgb(255, 255, 255);stroke:rgb(48, 48, 48);"/><text class="clickable sprotty-label state" id="sprotty_fsm$state/state$Reading/label" transform="translate(6, 8) translate(30.375, 19)" style="cursor:default;perspective-origin:0px 0px;fill:rgb(48, 48, 48);text-anchor:middle;">Reading</text></g><g id="sprotty_fsm$state/state$IdleMRR" class="state" transform="translate(247.27604166666669, 526)"><ellipse cx="36.6875" cy="20" rx="36.6875" ry="20" class="sprotty-node clickable" style="fill:rgb(255, 255, 255);stroke:rgb(48, 48, 48);"/><text class="clickable sprotty-label state" id="sprotty_fsm$state/state$IdleMRR/label" transform="translate(6, 8) translate(30.6875, 19)" style="cursor:default;perspective-origin:0px 0px;fill:rgb(48, 48, 48);text-anchor:middle;">IdleMRR</text></g><g id="sprotty_fsm$state/state$ResettingMRR" class="state" transform="translate(319.0375744047619, 756)"><ellipse cx="57.625" cy="20" rx="57.625" ry="20" class="sprotty-node clickable" style="fill:rgb(255, 255, 255);stroke:rgb(48, 48, 48);"/><text class="clickable sprotty-label state" id="sprotty_fsm$state/state$ResettingMRR/label" transform="translate(6, 8) translate(51.625, 19)" style="cursor:default;perspective-origin:0px 0px;fill:rgb(48, 48, 48);text-anchor:middle;">ResettingMRR</text></g><g id="sprotty_fsm$state/state$Idle" class="state" transform="translate(448.53645833333337, 406)"><ellipse cx="75" cy="20" rx="75" ry="20" class="sprotty-node clickable" style="fill:rgb(255, 255, 255);stroke:rgb(48, 48, 48);"/><text class="clickable sprotty-label state" id="sprotty_fsm$state/state$Idle/label" transform="translate(60.90625, 8) translate(14.03125, 19)" style="cursor:default;perspective-origin:0.0625px 0px;fill:rgb(48, 48, 48);text-anchor:middle;">Idle</text></g><g id="sprotty_fsm$state/state$Writing" class="state" transform="translate(438.6302083333333, 36)"><ellipse cx="40" cy="20" rx="40" ry="20" class="sprotty-node clickable" style="fill:rgb(255, 255, 255);stroke:rgb(48, 48, 48);"/><text class="clickable sprotty-label state" id="sprotty_fsm$state/state$Writing/label" transform="translate(13.0625, 8) translate(26.9375, 19)" style="cursor:default;perspective-origin:0px 0px;fill:rgb(48, 48, 48);text-anchor:middle;">Writing</text></g><g id="sprotty_fsm$state/state$ActivePD" class="state" transform="translate(75.8723958333334, 596)"><ellipse cx="39.1875" cy="20" rx="39.1875" ry="20" class="sprotty-node clickable" style="fill:rgb(255, 255, 255);stroke:rgb(48, 48, 48);"/><text class="clickable sprotty-label state" id="sprotty_fsm$state/state$ActivePD/label" transform="translate(6, 8) translate(33.1875, 19)" style="cursor:default;perspective-origin:0px 0px;fill:rgb(48, 48, 48);text-anchor:middle;">ActivePD</text></g><g id="sprotty_fsm$state/state$PowerOn" class="state" transform="translate(341.1276041666667, 596)"><ellipse cx="40.40625" cy="20" rx="40.40625" ry="20" class="sprotty-node clickable" style="fill:rgb(255, 255, 255);stroke:rgb(48, 48, 48);"/><text class="clickable sprotty-label state" id="sprotty_fsm$state/state$PowerOn/label" transform="translate(6, 8) translate(34.40625, 19)" style="cursor:default;perspective-origin:0px 0px;fill:rgb(48, 48, 48);text-anchor:middle;">PowerOn</text></g><g id="sprotty_fsm$state/state$Resetting" class="state" transform="translate(377.54817708333337, 666)"><ellipse cx="40.96875" cy="20" rx="40.96875" ry="20" class="sprotty-node clickable" style="fill:rgb(255, 255, 255);stroke:rgb(48, 48, 48);"/><text class="clickable sprotty-label state" id="sprotty_fsm$state/state$Resetting/label" transform="translate(6, 8) translate(34.96875, 19)" style="cursor:default;perspective-origin:0px 0px;fill:rgb(48, 48, 48);text-anchor:middle;">Resetting</text></g><g id="sprotty_fsm$state/state$SelfRefreshing" class="state" transform="translate(554.7604166666667, 526)"><ellipse cx="59.765625" cy="20" rx="59.765625" ry="20" class="sprotty-node clickable" style="fill:rgb(255, 255, 255);stroke:rgb(48, 48, 48);"/><text class="clickable sprotty-label state" id="sprotty_fsm$state/state$SelfRefreshing/label" transform="translate(6, 8) translate(53.765625, 19)" style="cursor:default;perspective-origin:0px 0px;fill:rgb(48, 48, 48);text-anchor:middle;">SelfRefreshing</text></g><g id="sprotty_fsm$state/state$ResettingPD" class="state" transform="translate(190.99069940476193, 756)"><ellipse cx="51.5234375" cy="20" rx="51.5234375" ry="20" class="sprotty-node clickable" style="fill:rgb(255, 255, 255);stroke:rgb(48, 48, 48);"/><text class="clickable sprotty-label state" id="sprotty_fsm$state/state$ResettingPD/label" transform="translate(6, 8) translate(45.515625, 19)" style="cursor:default;perspective-origin:0px 0px;fill:rgb(48, 48, 48);text-anchor:middle;">ResettingPD</text></g><g id="sprotty_fsm$state/state$Idle_to_fsm$state/state$Activating" class="sprotty-edge transition" style="fill:none;stroke:rgb(48, 48, 48);stroke-linejoin:round;"><g><path d=" M458.53645833333337,446 C458.53645833333337,446 189.01458333333335,486 159.06770833333334,526"/><path d=" M458.53645833333337,446 C458.53645833333337,446 189.01458333333335,486 159.06770833333334,526" class="clickable"/></g><path d="M 159.06770833333334,526 L 166.06770833333334,523.5 L 166.06770833333334,528.5 Z" transform="rotate(-53.178834821946424 159.06770833333334 526)" class="arrow" style="fill:rgb(48, 48, 48);stroke-linejoin:miter;stroke-miterlimit:2;"/></g><g id="sprotty_fsm$state/state$Idle_to_fsm$state/state$Refreshing" class="sprotty-edge transition" style="fill:none;stroke:rgb(48, 48, 48);stroke-linejoin:round;"><g><path d=" M518.5364583333334,446 C518.5364583333334,446 504.83489583333335,486 503.3125,526"/><path d=" M518.5364583333334,446 C518.5364583333334,446 504.83489583333335,486 503.3125,526" class="clickable"/></g><path d="M 503.3125,526 L 510.3125,523.5 L 510.3125,528.5 Z" transform="rotate(-87.82038062714936 503.3125 526)" class="arrow" style="fill:rgb(48, 48, 48);stroke-linejoin:miter;stroke-miterlimit:2;"/></g><g id="sprotty_fsm$state/state$Idle_to_fsm$state/state$SelfRefreshing" class="sprotty-edge transition" style="fill:none;stroke:rgb(48, 48, 48);stroke-linejoin:round;"><g><path d=" M548.5364583333334,446 C548.5364583333334,446 625.8567708333334,486 634.4479166666667,526"/><path d=" M548.5364583333334,446 C548.5364583333334,446 625.8567708333334,486 634.4479166666667,526" class="clickable"/></g><path d="M 634.4479166666667,526 L 641.4479166666667,523.5 L 641.4479166666667,528.5 Z" transform="rotate(-102.12175731342865 634.4479166666667 526)" class="arrow" style="fill:rgb(48, 48, 48);stroke-linejoin:miter;stroke-miterlimit:2;"/></g><g id="sprotty_fsm$state/state$Idle_to_fsm$state/state$Resetting" class="sprotty-edge transition" style="fill:none;stroke:rgb(48, 48, 48);stroke-linejoin:round;"><g><path d=" M528.5364583333334,446 C543.7604166666667,486 543.7604166666667,506 543.7604166666667,520.5833333333334 C543.7604166666667,535.1666666666667 543.7604166666666,544.3333333333333 543.7604166666666,553.4999999999999 C543.7604166666667,562.6666666666666 543.7604166666667,571.8333333333333 543.7604166666667,585.5833333333333 C543.7604166666667,599.3333333333334 543.7604166666667,617.6666666666667 543.7604166666667,630.5833333333335 C543.7604166666667,643.5 543.7604166666667,651 439.00130208333337,666"/><path d=" M528.5364583333334,446 C543.7604166666667,486 543.7604166666667,506 543.7604166666667,520.5833333333334 C543.7604166666667,535.1666666666667 543.7604166666666,544.3333333333333 543.7604166666666,553.4999999999999 C543.7604166666667,562.6666666666666 543.7604166666667,571.8333333333333 543.7604166666667,585.5833333333333 C543.7604166666667,599.3333333333334 543.7604166666667,617.6666666666667 543.7604166666667,630.5833333333335 C543.7604166666667,643.5 543.7604166666667,651 439.00130208333337,666" class="clickable"/></g><path d="M 439.00130208333337,666 L 446.00130208333337,663.5 L 446.00130208333337,668.5 Z" transform="rotate(-8.14854611024614 439.00130208333337 666)" class="arrow" style="fill:rgb(48, 48, 48);stroke-linejoin:miter;stroke-miterlimit:2;"/></g><g id="sprotty_fsm$state/state$Idle_to_fsm$state/state$IdlePD" class="sprotty-edge transition" style="fill:none;stroke:rgb(48, 48, 48);stroke-linejoin:round;"><g><path d=" M568.5364583333334,446 C568.5364583333334,446 722.9098958333334,486 740.0625000000001,526"/><path d=" M568.5364583333334,446 C568.5364583333334,446 722.9098958333334,486 740.0625000000001,526" class="clickable"/></g><path d="M 740.0625000000001,526 L 747.0625000000001,523.5 L 747.0625000000001,528.5 Z" transform="rotate(-113.21038460353557 740.0625000000001 526)" class="arrow" style="fill:rgb(48, 48, 48);stroke-linejoin:miter;stroke-miterlimit:2;"/></g><g id="sprotty_fsm$state/state$Idle_to_fsm$state/state$DeepPD" class="sprotty-edge transition" style="fill:none;stroke:rgb(48, 48, 48);stroke-linejoin:round;"><g><path d=" M498.53645833333337,446 C498.53645833333337,446 393.23411458333334,486 381.5338541666667,526"/><path d=" M498.53645833333337,446 C498.53645833333337,446 393.23411458333334,486 381.5338541666667,526" class="clickable"/></g><path d="M 381.5338541666667,526 L 388.5338541666667,523.5 L 388.5338541666667,528.5 Z" transform="rotate(-73.69545837625532 381.5338541666667 526)" class="arrow" style="fill:rgb(48, 48, 48);stroke-linejoin:miter;stroke-miterlimit:2;"/></g><g id="sprotty_fsm$state/state$Idle_to_fsm$state/state$IdleMRW" class="sprotty-edge transition" style="fill:none;stroke:rgb(48, 48, 48);stroke-linejoin:round;"><g><path d=" M588.5364583333334,446 C588.5364583333334,446 812.1817708333334,486 837.0312500000001,526"/><path d=" M588.5364583333334,446 C588.5364583333334,446 812.1817708333334,486 837.0312500000001,526" class="clickable"/></g><path d="M 837.0312500000001,526 L 844.0312500000001,523.5 L 844.0312500000001,528.5 Z" transform="rotate(-121.85007898006222 837.0312500000001 526)" class="arrow" style="fill:rgb(48, 48, 48);stroke-linejoin:miter;stroke-miterlimit:2;"/></g><g id="sprotty_fsm$state/state$Idle_to_fsm$state/state$IdleMRR" class="sprotty-edge transition" style="fill:none;stroke:rgb(48, 48, 48);stroke-linejoin:round;"><g><path d=" M488.53645833333337,446 C488.53645833333337,446 315.42708333333337,486 296.19270833333337,526"/><path d=" M488.53645833333337,446 C488.53645833333337,446 315.42708333333337,486 296.19270833333337,526" class="clickable"/></g><path d="M 296.19270833333337,526 L 303.19270833333337,523.5 L 303.19270833333337,528.5 Z" transform="rotate(-64.318989258197 296.19270833333337 526)" class="arrow" style="fill:rgb(48, 48, 48);stroke-linejoin:miter;stroke-miterlimit:2;"/></g><g id="sprotty_fsm$state/state$Activating_to_fsm$state/state$BankActive" class="sprotty-edge transition" style="fill:none;stroke:rgb(48, 48, 48);stroke-linejoin:round;"><g><path d=" M130.359375,526 C130.359375,486 130.359375,463.49999999999994 130.359375,444.74999999999994 C130.359375,425.99999999999994 130.359375,411 130.359375,392.6666666666667 C130.359375,374.33333333333337 130.359375,352.6666666666667 130.359375,337.25 C130.359375,321.8333333333333 130.359375,312.66666666666663 130.359375,303.49999999999994 C130.359375,294.3333333333333 130.359375,285.1666666666667 130.359375,274.3333333333333 C130.359375,263.5 130.359375,251 158.75954861111111,226"/><path d=" M130.359375,526 C130.359375,486 130.359375,463.49999999999994 130.359375,444.74999999999994 C130.359375,425.99999999999994 130.359375,411 130.359375,392.6666666666667 C130.359375,374.33333333333337 130.359375,352.6666666666667 130.359375,337.25 C130.359375,321.8333333333333 130.359375,312.66666666666663 130.359375,303.49999999999994 C130.359375,294.3333333333333 130.359375,285.1666666666667 130.359375,274.3333333333333 C130.359375,263.5 130.359375,251 158.75954861111111,226" class="clickable"/></g><path d="M 158.75954861111111,226 L 165.75954861111111,223.5 L 165.75954861111111,228.5 Z" transform="rotate(138.6433019239206 158.75954861111111 226)" class="arrow" style="fill:rgb(48, 48, 48);stroke-linejoin:miter;stroke-miterlimit:2;"/></g><g id="sprotty_fsm$state/state$Activating_to_fsm$state/state$ActivePD" class="sprotty-edge transition" style="fill:none;stroke:rgb(48, 48, 48);stroke-linejoin:round;"><g><path d=" M144.71354166666669,566 C144.71354166666669,566 141.74817708333336,581 115.0598958333334,596"/><path d=" M144.71354166666669,566 C144.71354166666669,566 141.74817708333336,581 115.0598958333334,596" class="clickable"/></g><path d="M 115.0598958333334,596 L 122.0598958333334,593.5 L 122.0598958333334,598.5 Z" transform="rotate(-29.337921565454003 115.0598958333334 596)" class="arrow" style="fill:rgb(48, 48, 48);stroke-linejoin:miter;stroke-miterlimit:2;"/></g><g id="sprotty_fsm$state/state$ActivePD_to_fsm$state/state$BankActive" class="sprotty-edge transition" style="fill:none;stroke:rgb(48, 48, 48);stroke-linejoin:round;"><g><path d=" M134.6536458333334,596 C197.77604166666669,581 197.77604166666669,573.5 197.77604166666669,556.4166666666666 C197.77604166666669,539.3333333333333 197.77604166666669,512.6666666666666 197.77604166666669,491.8333333333333 C197.77604166666669,471 197.77604166666669,456 197.77604166666669,441 C197.77604166666669,426 197.77604166666669,411 197.77604166666669,392.66666666666663 C197.77604166666669,374.3333333333333 197.77604166666669,352.66666666666663 197.77604166666669,337.25 C197.77604166666669,321.8333333333333 197.77604166666669,312.66666666666663 197.77604166666669,303.5 C197.77604166666669,294.3333333333333 197.77604166666669,285.16666666666663 197.77604166666669,274.3333333333333 C197.77604166666669,263.5 197.77604166666669,251 169.37586805555557,226"/><path d=" M134.6536458333334,596 C197.77604166666669,581 197.77604166666669,573.5 197.77604166666669,556.4166666666666 C197.77604166666669,539.3333333333333 197.77604166666669,512.6666666666666 197.77604166666669,491.8333333333333 C197.77604166666669,471 197.77604166666669,456 197.77604166666669,441 C197.77604166666669,426 197.77604166666669,411 197.77604166666669,392.66666666666663 C197.77604166666669,374.3333333333333 197.77604166666669,352.66666666666663 197.77604166666669,337.25 C197.77604166666669,321.8333333333333 197.77604166666669,312.66666666666663 197.77604166666669,303.5 C197.77604166666669,294.3333333333333 197.77604166666669,285.16666666666663 197.77604166666669,274.3333333333333 C197.77604166666669,263.5 197.77604166666669,251 169.37586805555557,226" class="clickable"/></g><path d="M 169.37586805555557,226 L 176.37586805555557,223.5 L 176.37586805555557,228.5 Z" transform="rotate(41.356698076079404 169.37586805555557 226)" class="arrow" style="fill:rgb(48, 48, 48);stroke-linejoin:miter;stroke-miterlimit:2;"/></g><g id="sprotty_fsm$state/state$BankActive_to_fsm$state/state$Writing" class="sprotty-edge transition" style="fill:none;stroke:rgb(48, 48, 48);stroke-linejoin:round;"><g><path d=" M154.51302083333334,186 C170.45833333333334,171 170.45833333333334,163.5 170.45833333333334,156.41666666666666 C170.45833333333334,149.33333333333331 170.45833333333331,142.66666666666666 170.45833333333334,136 C170.45833333333334,129.33333333333331 170.45833333333331,122.66666666666666 170.45833333333334,114.33333333333333 C170.45833333333334,106 170.45833333333334,96 458.6302083333333,76"/><path d=" M154.51302083333334,186 C170.45833333333334,171 170.45833333333334,163.5 170.45833333333334,156.41666666666666 C170.45833333333334,149.33333333333331 170.45833333333331,142.66666666666666 170.45833333333334,136 C170.45833333333334,129.33333333333331 170.45833333333331,122.66666666666666 170.45833333333334,114.33333333333333 C170.45833333333334,106 170.45833333333334,96 458.6302083333333,76" class="clickable"/></g><path d="M 458.6302083333333,76 L 465.6302083333333,73.5 L 465.6302083333333,78.5 Z" transform="rotate(176.02986580497253 458.6302083333333 76)" class="arrow" style="fill:rgb(48, 48, 48);stroke-linejoin:miter;stroke-miterlimit:2;"/></g><g id="sprotty_fsm$state/state$BankActive_to_fsm$state/state$WritingAPR" class="sprotty-edge transition" style="fill:none;stroke:rgb(48, 48, 48);stroke-linejoin:round;"><g><path d=" M190.60850694444446,226 C190.60850694444446,226 392.60772569444447,251 415.05208333333337,276"/><path d=" M190.60850694444446,226 C190.60850694444446,226 392.60772569444447,251 415.05208333333337,276" class="clickable"/></g><path d="M 415.05208333333337,276 L 422.05208333333337,273.5 L 422.05208333333337,278.5 Z" transform="rotate(-131.91667983312325 415.05208333333337 276)" class="arrow" style="fill:rgb(48, 48, 48);stroke-linejoin:miter;stroke-miterlimit:2;"/></g><g id="sprotty_fsm$state/state$BankActive_to_fsm$state/state$Reading" class="sprotty-edge transition" style="fill:none;stroke:rgb(48, 48, 48);stroke-linejoin:round;"><g><path d=" M173.62239583333334,186 C202.29644097222223,171 460.3628472222222,156 460.3628472222222,156"/><path d=" M173.62239583333334,186 C202.29644097222223,171 460.3628472222222,156 460.3628472222222,156" class="clickable"/></g><path d="M 460.3628472222222,156 L 467.3628472222222,153.5 L 467.3628472222222,158.5 Z" transform="rotate(176.67345005061858 460.3628472222222 156)" class="arrow" style="fill:rgb(48, 48, 48);stroke-linejoin:miter;stroke-miterlimit:2;"/></g><g id="sprotty_fsm$state/state$BankActive_to_fsm$state/state$ReadingAPR" class="sprotty-edge transition" style="fill:none;stroke:rgb(48, 48, 48);stroke-linejoin:round;"><g><path d=" M201.2248263888889,226 C201.2248263888889,226 535.1857638888889,251 572.2925347222222,276"/><path d=" M201.2248263888889,226 C201.2248263888889,226 535.1857638888889,251 572.2925347222222,276" class="clickable"/></g><path d="M 572.2925347222222,276 L 579.2925347222222,273.5 L 579.2925347222222,278.5 Z" transform="rotate(-146.0306100155876 572.2925347222222 276)" class="arrow" style="fill:rgb(48, 48, 48);stroke-linejoin:miter;stroke-miterlimit:2;"/></g><g id="sprotty_fsm$state/state$BankActive_to_fsm$state/state$Precharging" class="sprotty-edge transition" style="fill:none;stroke:rgb(48, 48, 48);stroke-linejoin:round;"><g><path d=" M179.9921875,226 C380.08333333333337,251 380.08333333333337,263.5 380.08333333333337,273.0833333333333 C380.08333333333337,282.66666666666663 380.08333333333337,289.3333333333333 380.08333333333337,296 C380.08333333333337,302.66666666666663 380.08333333333337,309.3333333333333 380.08333333333337,316.41666666666663 C380.08333333333337,323.5 380.08333333333337,331 489.4947916666667,346"/><path d=" M179.9921875,226 C380.08333333333337,251 380.08333333333337,263.5 380.08333333333337,273.0833333333333 C380.08333333333337,282.66666666666663 380.08333333333337,289.3333333333333 380.08333333333337,296 C380.08333333333337,302.66666666666663 380.08333333333337,309.3333333333333 380.08333333333337,316.41666666666663 C380.08333333333337,323.5 380.08333333333337,331 489.4947916666667,346" class="clickable"/></g><path d="M 489.4947916666667,346 L 496.4947916666667,343.5 L 496.4947916666667,348.5 Z" transform="rotate(-172.19357758090254 489.4947916666667 346)" class="arrow" style="fill:rgb(48, 48, 48);stroke-linejoin:miter;stroke-miterlimit:2;"/></g><g id="sprotty_fsm$state/state$BankActive_to_fsm$state/state$ActivePD" class="sprotty-edge transition" style="fill:none;stroke:rgb(48, 48, 48);stroke-linejoin:round;"><g><path d=" M126.91059027777779,226 C12,251 12,263.5 12,274.3333333333333 C12,285.16666666666663 12,294.3333333333333 12,303.5 C12,312.66666666666663 12,321.8333333333333 12,337.25 C12,352.66666666666663 12,374.3333333333333 12,392.66666666666663 C12,411 12,426 12,441 C12,456 12,471 12,491.8333333333333 C12,512.6666666666666 12,539.3333333333333 12,556.4166666666666 C12,573.5 12,581 95.4661458333334,596"/><path d=" M126.91059027777779,226 C12,251 12,263.5 12,274.3333333333333 C12,285.16666666666663 12,294.3333333333333 12,303.5 C12,312.66666666666663 12,321.8333333333333 12,337.25 C12,352.66666666666663 12,374.3333333333333 12,392.66666666666663 C12,411 12,426 12,441 C12,456 12,471 12,491.8333333333333 C12,512.6666666666666 12,539.3333333333333 12,556.4166666666666 C12,573.5 12,581 95.4661458333334,596" class="clickable"/></g><path d="M 95.4661458333334,596 L 102.4661458333334,593.5 L 102.4661458333334,598.5 Z" transform="rotate(-169.8119226280539 95.4661458333334 596)" class="arrow" style="fill:rgb(48, 48, 48);stroke-linejoin:miter;stroke-miterlimit:2;"/></g><g id="sprotty_fsm$state/state$BankActive_to_fsm$state/state$ZRowClone" class="sprotty-edge transition" style="fill:none;stroke:rgb(48, 48, 48);stroke-linejoin:round;"><g><path d=" M148.14322916666669,226 C148.14322916666669,226 93.92994791666666,251 87.90625,276"/><path d=" M148.14322916666669,226 C148.14322916666669,226 93.92994791666666,251 87.90625,276" class="clickable"/></g><path d="M 87.90625,276 L 94.90625,273.5 L 94.90625,278.5 Z" transform="rotate(-76.45292412337182 87.90625 276)" class="arrow" style="fill:rgb(48, 48, 48);stroke-linejoin:miter;stroke-miterlimit:2;"/></g><g id="sprotty_fsm$state/state$Config_to_fsm$state/state$Resetting" class="sprotty-edge transition" style="fill:none;stroke:rgb(48, 48, 48);stroke-linejoin:round;"><g><path d=" M499.7042410714286,756 C494.51184895833336,731 447.7803199404762,706 447.7803199404762,706"/><path d=" M499.7042410714286,756 C494.51184895833336,731 447.7803199404762,706 447.7803199404762,706" class="clickable"/></g><path d="M 447.7803199404762,706 L 454.7803199404762,703.5 L 454.7803199404762,708.5 Z" transform="rotate(28.145477162225223 447.7803199404762 706)" class="arrow" style="fill:rgb(48, 48, 48);stroke-linejoin:miter;stroke-miterlimit:2;"/></g><g id="sprotty_fsm$state/state$DeepPD_to_fsm$state/state$PowerOn" class="sprotty-edge transition" style="fill:none;stroke:rgb(48, 48, 48);stroke-linejoin:round;"><g><path d=" M381.5338541666667,566 C381.5338541666667,566 381.5338541666667,581 381.5338541666667,596"/><path d=" M381.5338541666667,566 C381.5338541666667,566 381.5338541666667,581 381.5338541666667,596" class="clickable"/></g><path d="M 381.5338541666667,596 L 388.5338541666667,593.5 L 388.5338541666667,598.5 Z" transform="rotate(-90 381.5338541666667 596)" class="arrow" style="fill:rgb(48, 48, 48);stroke-linejoin:miter;stroke-miterlimit:2;"/></g><g id="sprotty_fsm$state/state$IdleMRR_to_fsm$state/state$Idle" class="sprotty-edge transition" style="fill:none;stroke:rgb(48, 48, 48);stroke-linejoin:round;"><g><path d=" M271.734375,526 C292.4145833333333,486 478.53645833333337,446 478.53645833333337,446"/><path d=" M271.734375,526 C292.4145833333333,486 478.53645833333337,446 478.53645833333337,446" class="clickable"/></g><path d="M 478.53645833333337,446 L 485.53645833333337,443.5 L 485.53645833333337,448.5 Z" transform="rotate(167.87088750467424 478.53645833333337 446)" class="arrow" style="fill:rgb(48, 48, 48);stroke-linejoin:miter;stroke-miterlimit:2;"/></g><g id="sprotty_fsm$state/state$IdleMRW_to_fsm$state/state$Idle" class="sprotty-edge transition" style="fill:none;stroke:rgb(48, 48, 48);stroke-linejoin:round;"><g><path d=" M811.2395833333334,526 C787.9692708333334,486 578.5364583333334,446 578.5364583333334,446"/><path d=" M811.2395833333334,526 C787.9692708333334,486 578.5364583333334,446 578.5364583333334,446" class="clickable"/></g><path d="M 578.5364583333334,446 L 585.5364583333334,443.5 L 585.5364583333334,448.5 Z" transform="rotate(10.8128163513511 578.5364583333334 446)" class="arrow" style="fill:rgb(48, 48, 48);stroke-linejoin:miter;stroke-miterlimit:2;"/></g><g id="sprotty_fsm$state/state$IdlePD_to_fsm$state/state$Idle" class="sprotty-edge transition" style="fill:none;stroke:rgb(48, 48, 48);stroke-linejoin:round;"><g><path d=" M719.6770833333334,526 C703.5630208333333,486 558.5364583333334,446 558.5364583333334,446"/><path d=" M719.6770833333334,526 C703.5630208333333,486 558.5364583333334,446 558.5364583333334,446" class="clickable"/></g><path d="M 558.5364583333334,446 L 565.5364583333334,443.5 L 565.5364583333334,448.5 Z" transform="rotate(15.419471090932827 558.5364583333334 446)" class="arrow" style="fill:rgb(48, 48, 48);stroke-linejoin:miter;stroke-miterlimit:2;"/></g><g id="sprotty_fsm$state/state$PowerOn_to_fsm$state/state$Resetting" class="sprotty-edge transition" style="fill:none;stroke:rgb(48, 48, 48);stroke-linejoin:round;"><g><path d=" M381.5338541666667,636 C381.5338541666667,636 385.23216145833334,651 418.51692708333337,666"/><path d=" M381.5338541666667,636 C381.5338541666667,636 385.23216145833334,651 418.51692708333337,666" class="clickable"/></g><path d="M 418.51692708333337,666 L 425.51692708333337,663.5 L 425.51692708333337,668.5 Z" transform="rotate(-155.74097621757355 418.51692708333337 666)" class="arrow" style="fill:rgb(48, 48, 48);stroke-linejoin:miter;stroke-miterlimit:2;"/></g><g id="sprotty_fsm$state/state$Precharging_to_fsm$state/state$Idle" class="sprotty-edge transition" style="fill:none;stroke:rgb(48, 48, 48);stroke-linejoin:round;"><g><path d=" M523.5364583333334,386 C523.5364583333334,386 523.5364583333334,396 523.5364583333334,406"/><path d=" M523.5364583333334,386 C523.5364583333334,386 523.5364583333334,396 523.5364583333334,406" class="clickable"/></g><path d="M 523.5364583333334,406 L 530.5364583333334,403.5 L 530.5364583333334,408.5 Z" transform="rotate(-90 523.5364583333334 406)" class="arrow" style="fill:rgb(48, 48, 48);stroke-linejoin:miter;stroke-miterlimit:2;"/></g><g id="sprotty_fsm$state/state$Reading_to_fsm$state/state$ReadingAPR" class="sprotty-edge transition" style="fill:none;stroke:rgb(48, 48, 48);stroke-linejoin:round;"><g><path d=" M508.8628472222222,156 C597.9722222222222,171 597.9722222222222,178.5 597.9722222222222,187.66666666666669 C597.9722222222222,196.83333333333334 597.9722222222221,207.66666666666666 597.972222222222,221.2083333333333 C597.9722222222221,234.74999999999997 597.9722222222222,251 597.9722222222222,276"/><path d=" M508.8628472222222,156 C597.9722222222222,171 597.9722222222222,178.5 597.9722222222222,187.66666666666669 C597.9722222222222,196.83333333333334 597.9722222222221,207.66666666666666 597.972222222222,221.2083333333333 C597.9722222222221,234.74999999999997 597.9722222222222,251 597.9722222222222,276" class="clickable"/></g><path d="M 597.9722222222222,276 L 604.9722222222222,273.5 L 604.9722222222222,278.5 Z" transform="rotate(-90 597.9722222222222 276)" class="arrow" style="fill:rgb(48, 48, 48);stroke-linejoin:miter;stroke-miterlimit:2;"/></g><g id="sprotty_fsm$state/state$Reading_to_fsm$state/state$Precharging" class="sprotty-edge transition" style="fill:none;stroke:rgb(48, 48, 48);stroke-linejoin:round;"><g><path d=" M496.7378472222222,156 C535.6128472222222,171 535.6128472222222,178.5 535.6128472222222,187.66666666666669 C535.6128472222222,196.83333333333334 535.6128472222222,207.66666666666663 535.6128472222222,218.49999999999997 C535.6128472222222,229.33333333333331 535.6128472222222,240.16666666666669 535.6128472222222,256.41666666666674 C535.6128472222222,272.6666666666667 535.6128472222222,294.33333333333337 535.6128472222222,308.91666666666674 C535.6128472222222,323.5 535.6128472222222,331 523.5364583333334,346"/><path d=" M496.7378472222222,156 C535.6128472222222,171 535.6128472222222,178.5 535.6128472222222,187.66666666666669 C535.6128472222222,196.83333333333334 535.6128472222222,207.66666666666663 535.6128472222222,218.49999999999997 C535.6128472222222,229.33333333333331 535.6128472222222,240.16666666666669 535.6128472222222,256.41666666666674 C535.6128472222222,272.6666666666667 535.6128472222222,294.33333333333337 535.6128472222222,308.91666666666674 C535.6128472222222,323.5 535.6128472222222,331 523.5364583333334,346" class="clickable"/></g><path d="M 523.5364583333334,346 L 530.5364583333334,343.5 L 530.5364583333334,348.5 Z" transform="rotate(-51.16271608727632 523.5364583333334 346)" class="arrow" style="fill:rgb(48, 48, 48);stroke-linejoin:miter;stroke-miterlimit:2;"/></g><g id="sprotty_fsm$state/state$Reading_to_fsm$state/state$Writing" class="sprotty-edge transition" style="fill:none;stroke:rgb(48, 48, 48);stroke-linejoin:round;"><g><path d=" M496.7378472222222,116 C495.92708333333326,96 488.6302083333333,76 488.6302083333333,76"/><path d=" M496.7378472222222,116 C495.92708333333326,96 488.6302083333333,76 488.6302083333333,76" class="clickable"/></g><path d="M 488.6302083333333,76 L 495.6302083333333,73.5 L 495.6302083333333,78.5 Z" transform="rotate(69.9558182409043 488.6302083333333 76)" class="arrow" style="fill:rgb(48, 48, 48);stroke-linejoin:miter;stroke-miterlimit:2;"/></g><g id="sprotty_fsm$state/state$Reading_to_fsm$state/state$BankActive" class="sprotty-edge transition" style="fill:none;stroke:rgb(48, 48, 48);stroke-linejoin:round;"><g><path d=" M472.4878472222222,156 C472.4878472222222,156 220.70737847222225,171 192.73177083333334,186"/><path d=" M472.4878472222222,156 C472.4878472222222,156 220.70737847222225,171 192.73177083333334,186" class="clickable"/></g><path d="M 192.73177083333334,186 L 199.73177083333334,183.5 L 199.73177083333334,188.5 Z" transform="rotate(-28.19938088205911 192.73177083333334 186)" class="arrow" style="fill:rgb(48, 48, 48);stroke-linejoin:miter;stroke-miterlimit:2;"/></g><g id="sprotty_fsm$state/state$Reading_to_fsm$state/state$WritingAPR" class="sprotty-edge transition" style="fill:none;stroke:rgb(48, 48, 48);stroke-linejoin:round;"><g><path d=" M484.6128472222222,156 C484.6128472222222,171 484.6128472222222,184.75 484.6128472222222,196.20833333333334 C484.6128472222222,207.66666666666669 484.6128472222222,216.83333333333334 484.6128472222222,227.66666666666663 C484.6128472222222,238.49999999999997 484.6128472222222,251 462.98958333333337,276"/><path d=" M484.6128472222222,156 C484.6128472222222,171 484.6128472222222,184.75 484.6128472222222,196.20833333333334 C484.6128472222222,207.66666666666669 484.6128472222222,216.83333333333334 484.6128472222222,227.66666666666663 C484.6128472222222,238.49999999999997 484.6128472222222,251 462.98958333333337,276" class="clickable"/></g><path d="M 462.98958333333337,276 L 469.98958333333337,273.5 L 469.98958333333337,278.5 Z" transform="rotate(-49.14247059701189 462.98958333333337 276)" class="arrow" style="fill:rgb(48, 48, 48);stroke-linejoin:miter;stroke-miterlimit:2;"/></g><g id="sprotty_fsm$state/state$ReadingAPR_to_fsm$state/state$Precharging" class="sprotty-edge transition" style="fill:none;stroke:rgb(48, 48, 48);stroke-linejoin:round;"><g><path d=" M597.9722222222222,316 C597.9722222222222,316 592.2307291666666,331 540.5572916666667,346"/><path d=" M597.9722222222222,316 C597.9722222222222,316 592.2307291666666,331 540.5572916666667,346" class="clickable"/></g><path d="M 540.5572916666667,346 L 547.5572916666667,343.5 L 547.5572916666667,348.5 Z" transform="rotate(-16.18719606146212 540.5572916666667 346)" class="arrow" style="fill:rgb(48, 48, 48);stroke-linejoin:miter;stroke-miterlimit:2;"/></g><g id="sprotty_fsm$state/state$Refreshing_to_fsm$state/state$Idle" class="sprotty-edge transition" style="fill:none;stroke:rgb(48, 48, 48);stroke-linejoin:round;"><g><path d=" M472.86458333333337,526 C476.43177083333336,486 508.53645833333337,446 508.53645833333337,446"/><path d=" M472.86458333333337,526 C476.43177083333336,486 508.53645833333337,446 508.53645833333337,446" class="clickable"/></g><path d="M 508.53645833333337,446 L 515.5364583333334,443.5 L 515.5364583333334,448.5 Z" transform="rotate(128.7511268350006 508.53645833333337 446)" class="arrow" style="fill:rgb(48, 48, 48);stroke-linejoin:miter;stroke-miterlimit:2;"/></g><g id="sprotty_fsm$state/state$Resetting_to_fsm$state/state$ResettingMRR" class="sprotty-edge transition" style="fill:none;stroke:rgb(48, 48, 48);stroke-linejoin:round;"><g><path d=" M424.3696056547619,706 C424.3696056547619,706 398.72077752976196,731 395.8709077380953,756"/><path d=" M424.3696056547619,706 C424.3696056547619,706 398.72077752976196,731 395.8709077380953,756" class="clickable"/></g><path d="M 395.8709077380953,756 L 402.8709077380953,753.5 L 402.8709077380953,758.5 Z" transform="rotate(-83.49665252025837 395.8709077380953 756)" class="arrow" style="fill:rgb(48, 48, 48);stroke-linejoin:miter;stroke-miterlimit:2;"/></g><g id="sprotty_fsm$state/state$Resetting_to_fsm$state/state$ResettingPD" class="sprotty-edge transition" style="fill:none;stroke:rgb(48, 48, 48);stroke-linejoin:round;"><g><path d=" M400.95889136904765,706 C400.95889136904765,706 273.8156436011905,731 259.68861607142856,756"/><path d=" M400.95889136904765,706 C400.95889136904765,706 273.8156436011905,731 259.68861607142856,756" class="clickable"/></g><path d="M 259.68861607142856,756 L 266.68861607142856,753.5 L 266.68861607142856,758.5 Z" transform="rotate(-60.53002950954402 259.68861607142856 756)" class="arrow" style="fill:rgb(48, 48, 48);stroke-linejoin:miter;stroke-miterlimit:2;"/></g><g id="sprotty_fsm$state/state$Resetting_to_fsm$state/state$Config" class="sprotty-edge transition" style="fill:none;stroke:rgb(48, 48, 48);stroke-linejoin:round;"><g><path d=" M436.0749627976191,706 C436.0749627976191,706 475.1538132440476,731 479.49590773809524,756"/><path d=" M436.0749627976191,706 C436.0749627976191,706 475.1538132440476,731 479.49590773809524,756" class="clickable"/></g><path d="M 479.49590773809524,756 L 486.49590773809524,753.5 L 486.49590773809524,758.5 Z" transform="rotate(-99.85305624591994 479.49590773809524 756)" class="arrow" style="fill:rgb(48, 48, 48);stroke-linejoin:miter;stroke-miterlimit:2;"/></g><g id="sprotty_fsm$state/state$Resetting_to_fsm$state/state$Idle" class="sprotty-edge transition" style="fill:none;stroke:rgb(48, 48, 48);stroke-linejoin:round;"><g><path d=" M398.03255208333337,666 C236.27604166666669,651 236.2760416666667,643.5 236.2760416666667,630.5833333333335 C236.2760416666667,617.6666666666667 236.27604166666669,599.3333333333334 236.2760416666667,585.5833333333333 C236.27604166666669,571.8333333333333 236.27604166666666,562.6666666666666 236.27604166666663,553.4999999999999 C236.27604166666663,544.3333333333333 236.27604166666669,535.1666666666667 236.27604166666669,520.5833333333334 C236.27604166666669,506 236.27604166666669,486 468.53645833333337,446"/><path d=" M398.03255208333337,666 C236.27604166666669,651 236.2760416666667,643.5 236.2760416666667,630.5833333333335 C236.2760416666667,617.6666666666667 236.27604166666669,599.3333333333334 236.2760416666667,585.5833333333333 C236.27604166666669,571.8333333333333 236.27604166666666,562.6666666666666 236.27604166666663,553.4999999999999 C236.27604166666663,544.3333333333333 236.27604166666669,535.1666666666667 236.27604166666669,520.5833333333334 C236.27604166666669,506 236.27604166666669,486 468.53645833333337,446" class="clickable"/></g><path d="M 468.53645833333337,446 L 475.53645833333337,443.5 L 475.53645833333337,448.5 Z" transform="rotate(170.2283497007212 468.53645833333337 446)" class="arrow" style="fill:rgb(48, 48, 48);stroke-linejoin:miter;stroke-miterlimit:2;"/></g><g id="sprotty_fsm$state/state$ResettingMRR_to_fsm$state/state$Resetting" class="sprotty-edge transition" style="fill:none;stroke:rgb(48, 48, 48);stroke-linejoin:round;"><g><path d=" M357.4542410714286,756 C362.97524181547624,731 412.6642485119048,706 412.6642485119048,706"/><path d=" M357.4542410714286,756 C362.97524181547624,731 412.6642485119048,706 412.6642485119048,706" class="clickable"/></g><path d="M 412.6642485119048,706 L 419.6642485119048,703.5 L 419.6642485119048,708.5 Z" transform="rotate(153.29168743666952 412.6642485119048 706)" class="arrow" style="fill:rgb(48, 48, 48);stroke-linejoin:miter;stroke-miterlimit:2;"/></g><g id="sprotty_fsm$state/state$ResettingPD_to_fsm$state/state$Resetting" class="sprotty-edge transition" style="fill:none;stroke:rgb(48, 48, 48);stroke-linejoin:round;"><g><path d=" M225.33965773809524,756 C241.73104538690478,731 389.25353422619054,706 389.25353422619054,706"/><path d=" M225.33965773809524,756 C241.73104538690478,731 389.25353422619054,706 389.25353422619054,706" class="clickable"/></g><path d="M 389.25353422619054,706 L 396.25353422619054,703.5 L 396.25353422619054,708.5 Z" transform="rotate(170.38171126719374 389.25353422619054 706)" class="arrow" style="fill:rgb(48, 48, 48);stroke-linejoin:miter;stroke-miterlimit:2;"/></g><g id="sprotty_fsm$state/state$SelfRefreshing_to_fsm$state/state$Idle" class="sprotty-edge transition" style="fill:none;stroke:rgb(48, 48, 48);stroke-linejoin:round;"><g><path d=" M594.6041666666667,526 C588.9973958333334,486 538.5364583333334,446 538.5364583333334,446"/><path d=" M594.6041666666667,526 C588.9973958333334,486 538.5364583333334,446 538.5364583333334,446" class="clickable"/></g><path d="M 538.5364583333334,446 L 545.5364583333334,443.5 L 545.5364583333334,448.5 Z" transform="rotate(38.403593875430204 538.5364583333334 446)" class="arrow" style="fill:rgb(48, 48, 48);stroke-linejoin:miter;stroke-miterlimit:2;"/></g><g id="sprotty_fsm$state/state$Writing_to_fsm$state/state$WritingAPR" class="sprotty-edge transition" style="fill:none;stroke:rgb(48, 48, 48);stroke-linejoin:round;"><g><path d=" M468.6302083333333,76 C433.61284722222223,96 433.61284722222223,106 433.61284722222223,115.58333333333334 C433.61284722222223,125.16666666666667 433.61284722222223,134.33333333333331 433.6128472222222,143.49999999999997 C433.6128472222222,152.66666666666666 433.61284722222223,161.83333333333331 433.61284722222223,175.58333333333331 C433.61284722222223,189.33333333333334 433.61284722222223,207.66666666666669 433.61284722222223,223.08333333333337 C433.61284722222223,238.5 433.61284722222223,251 439.02083333333337,276"/><path d=" M468.6302083333333,76 C433.61284722222223,96 433.61284722222223,106 433.61284722222223,115.58333333333334 C433.61284722222223,125.16666666666667 433.61284722222223,134.33333333333331 433.6128472222222,143.49999999999997 C433.6128472222222,152.66666666666666 433.61284722222223,161.83333333333331 433.61284722222223,175.58333333333331 C433.61284722222223,189.33333333333334 433.61284722222223,207.66666666666669 433.61284722222223,223.08333333333337 C433.61284722222223,238.5 433.61284722222223,251 439.02083333333337,276" class="clickable"/></g><path d="M 439.02083333333337,276 L 446.02083333333337,273.5 L 446.02083333333337,278.5 Z" transform="rotate(-102.2061189960874 439.02083333333337 276)" class="arrow" style="fill:rgb(48, 48, 48);stroke-linejoin:miter;stroke-miterlimit:2;"/></g><g id="sprotty_fsm$state/state$Writing_to_fsm$state/state$Precharging" class="sprotty-edge transition" style="fill:none;stroke:rgb(48, 48, 48);stroke-linejoin:round;"><g><path d=" M508.6302083333333,76 C699.9722222222222,96 699.9722222222222,106 699.9722222222222,115.58333333333331 C699.9722222222222,125.16666666666666 699.9722222222222,134.33333333333331 699.9722222222222,143.5 C699.9722222222222,152.66666666666669 699.9722222222222,161.83333333333331 699.9722222222221,179.74999999999997 C699.9722222222221,197.66666666666666 699.9722222222221,224.33333333333331 699.9722222222221,243.08333333333331 C699.9722222222222,261.83333333333337 699.9722222222222,272.6666666666667 699.9722222222221,283.5 C699.9722222222221,294.3333333333333 699.9722222222221,305.16666666666663 699.9722222222221,314.3333333333333 C699.9722222222222,323.5 699.9722222222222,331 557.578125,346"/><path d=" M508.6302083333333,76 C699.9722222222222,96 699.9722222222222,106 699.9722222222222,115.58333333333331 C699.9722222222222,125.16666666666666 699.9722222222222,134.33333333333331 699.9722222222222,143.5 C699.9722222222222,152.66666666666669 699.9722222222222,161.83333333333331 699.9722222222221,179.74999999999997 C699.9722222222221,197.66666666666666 699.9722222222221,224.33333333333331 699.9722222222221,243.08333333333331 C699.9722222222222,261.83333333333337 699.9722222222222,272.6666666666667 699.9722222222221,283.5 C699.9722222222221,294.3333333333333 699.9722222222221,305.16666666666663 699.9722222222221,314.3333333333333 C699.9722222222222,323.5 699.9722222222222,331 557.578125,346" class="clickable"/></g><path d="M 557.578125,346 L 564.578125,343.5 L 564.578125,348.5 Z" transform="rotate(-6.013442301234394 557.578125 346)" class="arrow" style="fill:rgb(48, 48, 48);stroke-linejoin:miter;stroke-miterlimit:2;"/></g><g id="sprotty_fsm$state/state$Writing_to_fsm$state/state$Reading" class="sprotty-edge transition" style="fill:none;stroke:rgb(48, 48, 48);stroke-linejoin:round;"><g><path d=" M478.6302083333333,76 C478.6302083333333,76 473.10208333333327,96 472.4878472222222,116"/><path d=" M478.6302083333333,76 C478.6302083333333,76 473.10208333333327,96 472.4878472222222,116" class="clickable"/></g><path d="M 472.4878472222222,116 L 479.4878472222222,113.5 L 479.4878472222222,118.5 Z" transform="rotate(-88.24089609246265 472.4878472222222 116)" class="arrow" style="fill:rgb(48, 48, 48);stroke-linejoin:miter;stroke-miterlimit:2;"/></g><g id="sprotty_fsm$state/state$Writing_to_fsm$state/state$BankActive" class="sprotty-edge transition" style="fill:none;stroke:rgb(48, 48, 48);stroke-linejoin:round;"><g><path d=" M448.6302083333333,76 C119.45833333333334,96 119.45833333333334,106 119.45833333333334,114.33333333333333 C119.45833333333334,122.66666666666666 119.45833333333334,129.33333333333331 119.45833333333334,136 C119.45833333333334,142.66666666666666 119.45833333333334,149.33333333333331 119.45833333333334,156.41666666666666 C119.45833333333334,163.5 119.45833333333334,171 135.40364583333334,186"/><path d=" M448.6302083333333,76 C119.45833333333334,96 119.45833333333334,106 119.45833333333334,114.33333333333333 C119.45833333333334,122.66666666666666 119.45833333333334,129.33333333333331 119.45833333333334,136 C119.45833333333334,142.66666666666666 119.45833333333334,149.33333333333331 119.45833333333334,156.41666666666666 C119.45833333333334,163.5 119.45833333333334,171 135.40364583333334,186" class="clickable"/></g><path d="M 135.40364583333334,186 L 142.40364583333334,183.5 L 142.40364583333334,188.5 Z" transform="rotate(-136.74971826203978 135.40364583333334 186)" class="arrow" style="fill:rgb(48, 48, 48);stroke-linejoin:miter;stroke-miterlimit:2;"/></g><g id="sprotty_fsm$state/state$Writing_to_fsm$state/state$ReadingAPR" class="sprotty-edge transition" style="fill:none;stroke:rgb(48, 48, 48);stroke-linejoin:round;"><g><path d=" M498.6302083333333,76 C648.9722222222222,96 648.9722222222222,106 648.9722222222222,115.58333333333334 C648.9722222222222,125.16666666666667 648.9722222222222,134.33333333333331 648.9722222222222,143.49999999999997 C648.9722222222222,152.66666666666666 648.9722222222223,161.83333333333331 648.9722222222223,175.58333333333331 C648.9722222222222,189.33333333333334 648.9722222222223,207.66666666666669 648.9722222222223,223.08333333333337 C648.9722222222223,238.5 648.9722222222222,251 623.6519097222222,276"/><path d=" M498.6302083333333,76 C648.9722222222222,96 648.9722222222222,106 648.9722222222222,115.58333333333334 C648.9722222222222,125.16666666666667 648.9722222222222,134.33333333333331 648.9722222222222,143.49999999999997 C648.9722222222222,152.66666666666666 648.9722222222223,161.83333333333331 648.9722222222223,175.58333333333331 C648.9722222222222,189.33333333333334 648.9722222222223,207.66666666666669 648.9722222222223,223.08333333333337 C648.9722222222223,238.5 648.9722222222222,251 623.6519097222222,276" class="clickable"/></g><path d="M 623.6519097222222,276 L 630.6519097222222,273.5 L 630.6519097222222,278.5 Z" transform="rotate(-44.63529029148566 623.6519097222222 276)" class="arrow" style="fill:rgb(48, 48, 48);stroke-linejoin:miter;stroke-miterlimit:2;"/></g><g id="sprotty_fsm$state/state$WritingAPR_to_fsm$state/state$Precharging" class="sprotty-edge transition" style="fill:none;stroke:rgb(48, 48, 48);stroke-linejoin:round;"><g><path d=" M439.02083333333337,316 C439.02083333333337,316 445.77031250000005,331 506.51562500000006,346"/><path d=" M439.02083333333337,316 C439.02083333333337,316 445.77031250000005,331 506.51562500000006,346" class="clickable"/></g><path d="M 506.51562500000006,346 L 513.515625,343.5 L 513.515625,348.5 Z" transform="rotate(-166.12928461546105 506.51562500000006 346)" class="arrow" style="fill:rgb(48, 48, 48);stroke-linejoin:miter;stroke-miterlimit:2;"/></g><g id="sprotty_fsm$state/state$ZRowClone_to_fsm$state/state$BankActive" class="sprotty-edge transition" style="fill:none;stroke:rgb(48, 48, 48);stroke-linejoin:round;"><g><path d=" M55.453125,276 C63.660503472222224,251 137.52690972222223,226 137.52690972222223,226"/><path d=" M55.453125,276 C63.660503472222224,251 137.52690972222223,226 137.52690972222223,226" class="clickable"/></g><path d="M 137.52690972222223,226 L 144.52690972222223,223.5 L 144.52690972222223,228.5 Z" transform="rotate(161.30166964491718 137.52690972222223 226)" class="arrow" style="fill:rgb(48, 48, 48);stroke-linejoin:miter;stroke-miterlimit:2;"/></g></g></g></svg>